<svg width="136" height="48" viewBox="0 0 136 48" fill="none" xmlns="http://www.w3.org/2000/svg">
<path fill-rule="evenodd" clip-rule="evenodd" d="M71.1813 14.825L77.5566 14.4145C77.702 15.4528 77.9686 16.2254 78.4049 16.7807C79.1079 17.6499 80.0775 18.0845 81.3622 18.0845C82.3076 18.0845 83.059 17.8672 83.5681 17.4085C84.0529 17.0463 84.3438 16.4668 84.3438 15.8632C84.3438 15.2838 84.0771 14.7283 83.6166 14.3662C83.1318 13.9316 81.9925 13.497 80.1987 13.1107C77.2657 12.4588 75.1567 11.5895 73.9205 10.4789C72.6843 9.44066 71.9812 7.91953 72.0297 6.30181C72.0297 5.19115 72.3691 4.08049 72.9994 3.16298C73.7266 2.12476 74.7204 1.30383 75.9081 0.845071C77.193 0.289739 78.9867 0 81.241 0C84.0044 0 86.1132 0.507043 87.5677 1.54527C89.0221 2.55937 89.8947 4.20121 90.1614 6.44669L83.859 6.80886C83.6893 5.84306 83.3499 5.14286 82.7924 4.68411C82.2349 4.22536 81.5076 4.00806 80.5623 4.00806C79.7866 4.00806 79.2048 4.17707 78.817 4.49096C78.4534 4.78069 78.211 5.2153 78.2353 5.69819C78.2353 6.06037 78.4292 6.39839 78.7201 6.6157C79.0352 6.90543 79.7866 7.17103 80.9743 7.41249C83.9074 8.04025 85.992 8.66801 87.2768 9.31993C88.5615 9.97184 89.4826 10.7686 90.0402 11.7103C90.0894 11.792 90.1365 11.8747 90.1816 11.9585C91.3218 9.14207 93.3314 6.48482 96.0822 4.42005C102.957 -0.740593 112.129 -0.447695 116.514 5.34894C120.899 11.1456 118.655 20.0076 111.779 25.1683C111.474 25.3975 111.164 25.6158 110.85 25.8235C113.247 26.1861 115.178 27.0913 116.632 28.5393C117.609 29.513 118.347 30.6833 118.837 32.0498V26.0282H125.552V42.3018H136V47.6137H118.837V41.5649C118.678 42.0233 118.492 42.4538 118.28 42.8573C117.456 44.4508 116.171 45.7546 114.595 46.6238C112.971 47.5171 110.959 47.976 108.56 47.976C106.111 47.976 104.099 47.5895 102.5 46.8169C100.851 45.996 99.4938 44.7164 98.597 43.147C97.6031 41.4568 97.0941 39.3562 97.0941 36.821C97.0941 33.3998 98.0302 30.7063 99.8802 28.7626C96.4744 28.4468 93.3912 26.9408 91.3475 24.2394C90.241 22.7767 89.5564 21.1188 89.2621 19.3744C88.5166 20.2629 87.574 20.9614 86.5012 21.4165C85.1194 22.0201 83.3742 22.334 81.2894 22.334C77.605 22.334 75.0598 21.6338 73.6296 20.2093C72.1995 18.7847 71.351 16.998 71.1813 14.825ZM3.52713 21.9477V0.386319H14.7019C16.7622 0.386319 18.362 0.555333 19.4529 0.917505C20.5195 1.25554 21.4648 1.95573 22.0951 2.89739C22.798 3.93561 23.1374 5.14286 23.1131 6.3984C23.1858 8.52315 22.0951 10.5513 20.2286 11.6137C19.5014 12.0242 18.7014 12.3139 17.8773 12.4588C18.4832 12.6278 19.0894 12.9175 19.6226 13.2555C20.0347 13.5935 20.374 13.9799 20.6892 14.3903C21.0528 14.8008 21.3679 15.2596 21.6345 15.7425L24.8827 21.996H17.2713L13.6837 15.3562C13.2232 14.511 12.8353 13.9557 12.4717 13.6901C11.9869 13.3521 11.4052 13.1831 10.8234 13.1831H10.2416V21.9477H3.52713ZM10.2416 9.12677H13.0777C13.6837 9.07848 14.2656 8.9819 14.8473 8.83704C15.2836 8.76459 15.6715 8.52315 15.9381 8.16097C16.5926 7.29175 16.4956 6.06037 15.6957 5.31187C15.2594 4.9497 14.411 4.75654 13.1989 4.75654H10.2416V9.12677ZM2 40.4669L8.37515 40.0564C8.52059 41.0946 8.78724 41.8672 9.22356 42.4226C9.90228 43.2917 10.8961 43.7506 12.1809 43.7506C13.1262 43.7506 13.8777 43.5332 14.3868 43.0744C14.8716 42.6881 15.1624 42.1328 15.1624 41.5292C15.1624 40.9497 14.8958 40.3944 14.4352 40.0323C13.9504 39.5977 12.8111 39.1631 10.9931 38.7766C8.06004 38.1247 5.95114 37.2556 4.7149 36.1449C3.47865 35.1067 2.77568 33.5855 2.82416 31.9678C2.82416 30.8572 3.16353 29.7466 3.79377 28.829C4.52097 27.7907 5.51482 26.9698 6.70259 26.5111C7.98731 25.9558 9.78108 25.6661 12.0354 25.6661C14.7988 25.6661 16.9077 26.1731 18.362 27.2113C19.3826 27.9398 20.1048 28.9536 20.537 30.2693C20.9132 29.6314 21.3597 29.0545 21.8769 28.5392C23.7919 26.6318 26.4825 25.6661 29.9731 25.6661C32.7122 25.6661 34.8454 26.2214 36.421 27.3079C37.9723 28.4185 39.1359 30.1087 39.9116 32.3783L33.997 33.6822C33.8516 33.175 33.6334 32.668 33.3426 32.2334C32.9788 31.7264 32.5183 31.3401 31.9608 31.0503C31.4033 30.7606 30.7731 30.6399 30.1428 30.6399C28.6157 30.6399 27.4521 31.2435 26.6522 32.4749C26.0462 33.3682 25.7311 34.7928 25.7311 36.7244C25.7311 39.1148 26.0947 40.7566 26.8219 41.6499C27.5491 42.5433 28.5673 42.9779 29.9004 42.9779C31.1851 42.9779 32.1547 42.6157 32.8092 41.9155C33.4638 41.167 33.9485 40.1288 34.2394 38.7768L40.1055 40.5393C39.7904 42.0121 39.1359 43.4126 38.2391 44.6439C37.4148 45.7304 36.324 46.5755 35.0878 47.1308C33.8274 47.6861 32.2274 47.976 30.2883 47.976C27.9369 47.976 25.9977 47.6378 24.5191 46.9618C23.1368 46.34 21.939 45.2688 20.907 43.7669C20.7901 43.9929 20.6608 44.2132 20.5195 44.4266C19.7196 45.6097 18.6044 46.5272 17.2955 47.0825C15.9139 47.6861 14.1686 48 12.0839 48C8.39939 48 5.85418 47.2998 4.42401 45.8753C2.99385 44.4266 2.19392 42.6398 2 40.4669ZM14.6292 32.4749L19.6768 32.1848C19.3365 33.2164 19.1283 34.3629 19.051 35.623C18.7454 35.4151 18.4108 35.2189 18.0469 35.0343C16.7622 34.3824 14.6776 33.7545 11.7445 33.1268C10.5568 32.8853 9.80532 32.6197 9.4902 32.33C9.19932 32.1127 9.00539 31.7747 9.00539 31.4125C8.98115 30.9296 9.19932 30.495 9.58717 30.2053C9.975 29.8673 10.5568 29.6983 11.3324 29.6983C12.2778 29.6741 13.0293 29.8914 13.5625 30.3502C14.1201 30.8089 14.4595 31.5091 14.6292 32.4749ZM54.6254 26.0282H47.9351V47.6137H54.6254V38.8733H61.9458V47.6137H68.6846V41.98C68.8553 42.3888 69.0492 42.7776 69.2664 43.147C70.1633 44.7164 71.5207 45.996 73.1691 46.8169C74.7689 47.5895 76.7808 47.976 79.2291 47.976C81.6288 47.976 83.6408 47.5171 85.2648 46.6238C86.8405 45.7546 88.1252 44.4508 88.9494 42.8573C89.7978 41.2395 90.2341 39.1872 90.2341 36.6519C90.2341 33.175 89.2645 30.4709 87.3011 28.5393C85.3376 26.6077 82.5743 25.6419 78.9624 25.6419C75.4476 25.6419 72.6843 26.6318 70.7208 28.5876C69.8512 29.4538 69.1717 30.4763 68.6846 31.653V26.0282H61.9458V33.5855H54.6254V26.0282ZM74.4538 36.8451C74.4538 39.0182 74.8658 40.5876 75.6657 41.5534C76.4657 42.495 77.5808 42.978 78.9867 42.978C80.4168 42.978 81.5318 42.5191 82.3319 41.5775C83.1318 40.6359 83.5196 38.9699 83.5196 36.5554C83.5196 34.5272 83.1075 33.0302 82.2834 32.1127C81.4591 31.1711 80.3441 30.7123 78.9382 30.7123C77.702 30.664 76.5141 31.1952 75.69 32.1368C74.8658 33.0785 74.4538 34.648 74.4538 36.8451ZM104.996 41.5534C104.196 40.5876 103.784 39.0182 103.784 36.8451C103.784 34.648 104.196 33.0785 105.021 32.1368C105.82 31.1952 107.033 30.664 108.269 30.7123C109.675 30.7123 110.79 31.1711 111.614 32.1127C112.438 33.0302 112.85 34.5272 112.85 36.5554C112.85 38.9699 112.462 40.6359 111.662 41.5775C110.863 42.5191 109.747 42.978 108.317 42.978C106.911 42.978 105.796 42.495 104.996 41.5534ZM96.6657 5.19136C90.0695 10.1426 88.1603 18.4218 92.1219 23.6581C96.0834 28.8944 104.6 29.3482 111.196 24.397C117.792 19.4457 119.701 11.1665 115.74 5.93018C111.778 0.693882 103.262 0.240126 96.6657 5.19136ZM97.1183 13.2074L99.5424 11.5172L102.524 15.7425C103.033 16.4187 103.421 17.143 103.712 17.9398C103.881 18.5434 103.833 19.1953 103.59 19.7747C103.275 20.4991 102.766 21.1028 102.088 21.5374C101.288 22.0927 100.609 22.4066 100.027 22.5031C99.4697 22.5997 98.8878 22.5031 98.3546 22.2617C97.7728 21.972 97.2638 21.5615 96.8759 21.0303L98.9605 19.0987C99.1302 19.3643 99.3485 19.6057 99.5909 19.7989C99.7606 19.9196 99.9545 19.992 100.173 19.992C100.342 19.992 100.512 19.9196 100.633 19.823C100.876 19.6781 101.045 19.3884 101.021 19.0987C100.948 18.6882 100.779 18.2778 100.512 17.9639L97.1183 13.2074ZM104.39 15.8875L106.596 14.149C106.839 14.4387 107.154 14.656 107.493 14.7767C107.978 14.9216 108.487 14.825 108.899 14.5111C109.19 14.318 109.432 14.0524 109.529 13.7144C109.675 13.2798 109.432 12.7969 108.996 12.652C108.923 12.6279 108.851 12.6038 108.778 12.6038C108.487 12.5796 107.978 12.7003 107.226 13.0142C105.99 13.5212 105.021 13.7144 104.293 13.642C103.59 13.5695 102.936 13.2074 102.548 12.6038C102.257 12.1933 102.112 11.7104 102.088 11.2275C102.088 10.6721 102.233 10.1168 102.548 9.65805C103.009 9.00614 103.566 8.4508 104.245 8.0162C105.263 7.31599 106.16 6.97796 106.936 6.97796C107.711 6.97796 108.438 7.34014 109.117 8.08864L106.936 9.80292C106.499 9.24759 105.675 9.12686 105.118 9.56147L105.045 9.63391C104.803 9.77877 104.633 9.99608 104.536 10.2617C104.463 10.4548 104.512 10.6721 104.633 10.8412C104.73 10.9619 104.875 11.0585 105.045 11.0585C105.239 11.0826 105.578 10.986 106.063 10.7687C107.275 10.2617 108.196 9.97194 108.826 9.87536C109.36 9.77877 109.917 9.82706 110.426 10.0444C110.887 10.2375 111.275 10.5756 111.541 10.986C111.881 11.4689 112.074 12.0484 112.099 12.652C112.123 13.2798 111.953 13.8834 111.614 14.4146C111.178 15.0665 110.62 15.6218 109.966 16.0565C108.632 16.974 107.542 17.3603 106.669 17.2154C105.724 17.0706 104.948 16.5877 104.39 15.8875Z" fill="#FF00FF"/>
</svg>
