<svg width="60" height="60" viewBox="0 0 60 60" fill="none" xmlns="http://www.w3.org/2000/svg">
<path d="M59.6562 15.8985L44.1012 0.343125C43.6436 -0.114375 42.9018 -0.114375 42.4438 0.343125L38.3012 4.48547C38.0815 4.70525 37.9581 5.00331 37.9581 5.3141C37.9581 5.62489 38.0815 5.92295 38.3012 6.14273L43.2223 11.0637L38.5634 15.7226L31.3923 8.55152C30.9346 8.09391 30.1927 8.09402 29.7349 8.55152L24.9765 13.3099C24.7568 13.5297 24.6334 13.8278 24.6334 14.1386C24.6334 14.4493 24.7568 14.7474 24.9765 14.9672L26.4878 16.4784L7.0649 35.902C5.28014 37.6868 5.28014 40.5911 7.0649 42.3762L8.55612 43.8674L5.8219 46.6016C5.71307 46.7104 5.62674 46.8396 5.56784 46.9818C5.50894 47.124 5.47862 47.2763 5.47862 47.4302C5.47862 47.5841 5.50894 47.7365 5.56784 47.8787C5.62674 48.0209 5.71307 48.1501 5.8219 48.2589L7.9526 50.3897L0.34303 57.9991C-0.114587 58.4568 -0.114587 59.1988 0.34303 59.6565C0.571897 59.8854 0.87178 59.9998 1.17166 59.9998C1.47155 59.9998 1.77155 59.8854 2.0003 59.6565L9.60998 52.0468L11.7408 54.1777C11.9606 54.3974 12.2586 54.5208 12.5694 54.5208C12.8802 54.5208 13.1783 54.3974 13.3981 54.1777L16.1323 51.4434L17.6235 52.9347C18.4881 53.7993 19.6378 54.2754 20.8606 54.2754C22.0833 54.2754 23.233 53.7993 24.0976 52.9347L43.5208 33.5116L45.032 35.0229C45.1407 35.1319 45.2699 35.2183 45.4121 35.2772C45.5543 35.3361 45.7067 35.3663 45.8606 35.3661C46.1606 35.3661 46.4604 35.2518 46.6893 35.0229L51.4476 30.2645C51.6673 30.0447 51.7907 29.7466 51.7907 29.4359C51.7907 29.1251 51.6673 28.827 51.4476 28.6072L44.2765 21.4362L48.9354 16.7773L53.8563 21.6982C53.965 21.8072 54.0942 21.8936 54.2364 21.9525C54.3786 22.0114 54.5311 22.0416 54.685 22.0414C54.985 22.0414 55.2847 21.9271 55.5136 21.6982L59.6561 17.5557C60.1139 17.0982 60.1139 16.3562 59.6562 15.8985ZM24.7356 21.546L30.1574 26.9678C30.2661 27.0768 30.3953 27.1632 30.5375 27.2221C30.6797 27.281 30.8321 27.3112 30.986 27.311C31.286 27.311 31.5858 27.1966 31.8147 26.9678C32.2723 26.5102 32.2723 25.7681 31.8147 25.3105L26.3929 19.8887L28.1452 18.1364L38.2339 28.2251L32.8745 33.5844L22.7857 23.4956L24.7356 21.546ZM12.5694 51.6916L8.3078 47.4301L10.2135 45.5246L14.4749 49.7861L12.5694 51.6916ZM22.4401 51.2773C21.5692 52.1482 20.1518 52.1483 19.2809 51.2773L8.72217 40.7187C7.85112 39.8476 7.85112 38.4302 8.72217 37.5593L10.3914 35.8901L13.277 38.7757C13.5059 39.0046 13.8058 39.1189 14.1056 39.1189C14.4055 39.1189 14.7055 39.0046 14.9343 38.7757C15.3919 38.3181 15.3919 37.5761 14.9343 37.1183L12.0487 34.2327L13.9772 32.304L19.3989 37.7257C19.6278 37.9546 19.9276 38.0689 20.2275 38.0689C20.5274 38.0689 20.8274 37.9545 21.0562 37.7257C21.5138 37.2681 21.5138 36.5261 21.0562 36.0684L15.6344 30.6466L17.563 28.718L20.4487 31.6036C20.6775 31.8325 20.9774 31.9468 21.2773 31.9468C21.5772 31.9468 21.8772 31.8325 22.1059 31.6036C22.5635 31.146 22.5635 30.4039 22.1059 29.9462L19.2203 27.0606L21.1279 25.153L31.2167 35.2417L23.5958 42.8626C23.1382 43.3202 23.1382 44.0623 23.5958 44.52C23.8247 44.7489 24.1246 44.8632 24.4245 44.8632C24.7244 44.8632 25.0244 44.7487 25.2531 44.52L32.8739 36.8991L34.8457 38.8709L22.4401 51.2773ZM36.5039 37.2137L34.5321 35.2417L39.8915 29.8822L41.8633 31.854L36.5039 37.2137ZM48.9617 29.4359L45.8606 32.5369L27.4626 14.1389L30.5636 11.0379L48.9617 29.4359ZM42.6194 19.7789L40.2206 17.3802L44.8796 12.7212L47.2783 15.1199L42.6194 19.7789ZM54.6853 19.2123L40.7874 5.31422L43.2726 2.82902L57.1705 16.727L54.6853 19.2123Z" fill="black"/>
<path d="M22.3154 46.7207C22.3014 46.6457 22.2779 46.5719 22.2486 46.5016C22.2195 46.4306 22.1834 46.3627 22.1408 46.2988C22.0986 46.2344 22.0494 46.1746 21.9955 46.1207C21.9416 46.0668 21.8818 46.0176 21.8174 45.9754C21.7536 45.9328 21.6856 45.8967 21.6147 45.8676C21.5443 45.8383 21.4705 45.816 21.3955 45.8008C21.2447 45.7703 21.0893 45.7703 20.9385 45.8008C20.8635 45.816 20.7897 45.8383 20.7193 45.8676C20.6479 45.8969 20.5799 45.9332 20.5166 45.9754C20.4522 46.0176 20.3924 46.0668 20.3385 46.1207C20.2846 46.1746 20.2354 46.2344 20.1932 46.2988C20.151 46.362 20.1147 46.4301 20.0854 46.5016C20.0561 46.5719 20.0326 46.6457 20.0186 46.7207C20.0033 46.7957 19.9951 46.8731 19.9951 46.9492C19.9951 47.0254 20.0033 47.1028 20.0186 47.1789C20.0326 47.2528 20.0561 47.3266 20.0854 47.3981C20.1147 47.4684 20.151 47.5364 20.1932 47.5996C20.2354 47.6641 20.2846 47.7239 20.3385 47.7778C20.4472 47.8871 20.5767 47.9735 20.7193 48.0321C20.8611 48.0913 21.0133 48.1216 21.167 48.1211C21.3207 48.1216 21.4729 48.0913 21.6147 48.0321C21.7573 47.9735 21.8868 47.8871 21.9955 47.7778C22.0494 47.7239 22.0986 47.6641 22.1408 47.5996C22.183 47.5364 22.2193 47.4684 22.2486 47.3981C22.2779 47.3266 22.3014 47.2528 22.3154 47.1789C22.3307 47.1028 22.3389 47.0254 22.3389 46.9492C22.3389 46.8731 22.3307 46.7957 22.3154 46.7207Z" fill="black"/>
</svg>
