<svg width="60" height="60" viewBox="0 0 60 60" fill="none" xmlns="http://www.w3.org/2000/svg">
<path d="M57.2966 10.2511C55.7375 8.99675 53.539 7.88136 50.7613 6.93613C45.1981 5.04273 37.8246 4 29.9993 4C22.174 4 14.8007 5.04285 9.23751 6.93613C6.45993 7.88136 4.26127 8.99675 2.70221 10.2511C0.909007 11.6942 -0.000366211 13.2863 -0.000366211 14.983V28.0989C-0.000366211 29.7957 0.909007 31.3878 2.70232 32.8308C4.26138 34.0851 6.45993 35.2005 9.23762 36.1458C14.5222 37.9443 21.4406 38.9745 28.8277 39.0733V43.7755H24.7865C24.3388 41.4099 22.2563 39.6156 19.7626 39.6156C16.9432 39.6156 14.6496 41.9093 14.6496 44.7284C14.6496 45.9542 15.0843 47.1148 15.8535 48.0249C15.0747 48.9466 14.648 50.1147 14.6496 51.3214C14.6496 54.1407 16.9432 56.4343 19.7626 56.4343C22.2563 56.4343 24.3388 54.6398 24.7865 52.2744H35.2128C35.6604 54.6399 37.743 56.4343 40.2367 56.4343C43.0561 56.4343 45.3497 54.1406 45.3497 51.3214C45.3497 50.0956 44.9149 48.935 44.1457 48.0249C44.9246 47.1032 45.3512 45.9351 45.3497 44.7284C45.3497 41.9091 43.0561 39.6156 40.2367 39.6156C37.743 39.6156 35.6604 41.41 35.2128 43.7755H31.1716V39.0733C38.5587 38.9745 45.4771 37.9443 50.7616 36.1458C53.5392 35.2005 55.7379 34.0851 57.2969 32.8308C59.0903 31.3878 59.9996 29.7957 59.9996 28.0989V14.983C59.9993 13.2863 59.0899 11.6942 57.2966 10.2511ZM36.3018 46.1193C36.4611 46.1193 36.6188 46.0868 36.7651 46.0238C36.9115 45.9608 37.0434 45.8686 37.1529 45.7528C37.2624 45.6371 37.3472 45.5003 37.4021 45.3507C37.4569 45.2011 37.4807 45.0419 37.4719 44.8828C37.469 44.8314 37.4675 44.78 37.4673 44.7286C37.4673 43.2016 38.7096 41.9594 40.2366 41.9594C41.7635 41.9594 43.0058 43.2017 43.0058 44.7286C43.0058 45.6643 42.5373 46.5303 41.7526 47.0453C41.5902 47.152 41.4568 47.2974 41.3645 47.4684C41.2721 47.6394 41.2238 47.8307 41.2238 48.025C41.2238 48.2194 41.2721 48.4107 41.3645 48.5817C41.4568 48.7527 41.5902 48.8981 41.7526 49.0047C42.5373 49.5198 43.0058 50.3858 43.0058 51.3215C43.0058 52.8485 41.7635 54.0906 40.2366 54.0906C38.7096 54.0906 37.4673 52.8483 37.4673 51.3215C37.4673 51.2697 37.4692 51.2184 37.4719 51.1673C37.4808 51.0082 37.457 50.8489 37.4022 50.6993C37.3474 50.5497 37.2627 50.4128 37.1531 50.297C37.0436 50.1813 36.9116 50.0891 36.7652 50.0261C36.6188 49.9631 36.4611 49.9307 36.3018 49.9307H23.6971C23.5378 49.9308 23.3801 49.9633 23.2338 50.0263C23.0875 50.0893 22.9555 50.1815 22.846 50.2972C22.7365 50.413 22.6517 50.5498 22.5969 50.6994C22.542 50.849 22.5182 51.0082 22.527 51.1673C22.5297 51.2184 22.5316 51.2697 22.5316 51.3215C22.5316 52.8485 21.2893 54.0906 19.7623 54.0906C18.2354 54.0906 16.9931 52.8483 16.9931 51.3215C16.9931 50.3858 17.4616 49.5198 18.2463 49.0047C18.4087 48.8981 18.5421 48.7527 18.6345 48.5817C18.7268 48.4107 18.7751 48.2194 18.7751 48.025C18.7751 47.8307 18.7268 47.6394 18.6345 47.4684C18.5421 47.2974 18.4087 47.152 18.2463 47.0453C17.4616 46.5303 16.9931 45.6643 16.9931 44.7286C16.9931 43.2016 18.2354 41.9594 19.7623 41.9594C21.2893 41.9594 22.5316 43.2017 22.5316 44.7286C22.5316 44.7803 22.5297 44.8317 22.527 44.8828C22.5182 45.0419 22.5419 45.2011 22.5967 45.3508C22.6515 45.5004 22.7363 45.6373 22.8458 45.753C22.9553 45.8688 23.0873 45.961 23.2337 46.0239C23.3801 46.0869 23.5378 46.1194 23.6971 46.1193H36.3018ZM29.9995 36.7383C28.4431 36.7383 27.1769 35.472 27.1769 33.9157C27.1769 32.3593 28.4431 31.0931 29.9995 31.0931C31.5558 31.0931 32.822 32.3593 32.822 33.9157C32.822 35.472 31.5558 36.7383 29.9995 36.7383ZM57.6555 28.0989C57.6555 31.8067 48.3041 35.8985 34.3961 36.6248C34.9002 35.8111 35.1668 34.8727 35.1658 33.9156C35.1658 33.5463 35.126 33.1862 35.0521 32.8386C39.6003 32.5404 43.8251 31.8617 47.3491 30.8562C47.9714 30.6785 48.3321 30.0301 48.1545 29.4077C47.9768 28.7853 47.3286 28.4248 46.706 28.6024C43.0895 29.6344 38.6786 30.3074 33.9208 30.5577C32.9725 29.4519 31.567 28.7494 29.9995 28.7494C28.4238 28.7494 27.0114 29.4593 26.063 30.5753C22.8381 30.4214 19.7736 30.0771 16.95 29.5459C16.3146 29.426 15.7013 29.8448 15.5817 30.4808C15.462 31.1169 15.8806 31.7294 16.5167 31.8492C19.1489 32.3444 21.9772 32.6832 24.9414 32.8625C24.8694 33.2089 24.8331 33.5619 24.8333 33.9157C24.8323 34.8729 25.0989 35.8112 25.6029 36.6249C11.6948 35.8986 2.34338 31.8068 2.34338 28.0989V19.4139L2.35932 19.4272C2.47168 19.5254 2.586 19.6213 2.70221 19.7149C2.85887 19.8402 3.01848 19.9617 3.18092 20.0794L3.18338 20.0811C3.2708 20.1448 3.35998 20.2081 3.4508 20.271L3.49135 20.2989C3.57678 20.3576 3.66338 20.4161 3.75174 20.4741C3.76955 20.4858 3.78783 20.4975 3.80588 20.5092C3.89506 20.5672 3.98529 20.6251 4.0774 20.6824L4.11713 20.7068C5.50205 21.5632 7.21556 22.3418 9.23739 23.0299C14.8006 24.9233 22.1739 25.9661 29.9993 25.9661C37.8248 25.9661 45.1981 24.9233 50.7613 23.0299C52.7834 22.3418 54.497 21.5631 55.882 20.7066L55.9213 20.6825C56.0135 20.6251 56.1039 20.5672 56.1932 20.5091L56.2471 20.4742C56.3354 20.4162 56.4221 20.3577 56.5076 20.299L56.5481 20.2711C56.6389 20.2082 56.7281 20.1449 56.8155 20.0813L56.818 20.0795C56.9805 19.9619 57.1401 19.8403 57.2967 19.715C57.4129 19.6214 57.5272 19.5255 57.6396 19.4274L57.6555 19.414V28.0989ZM7.52892 19.8543C8.54973 19.3876 9.94602 18.8517 11.802 18.3313C16.845 16.9173 23.3077 16.1387 29.9995 16.1387C36.6912 16.1387 43.154 16.9174 48.1968 18.3313C50.0529 18.8516 51.4493 19.3875 52.47 19.8543C47.6203 22.0156 39.6817 23.6224 29.9995 23.6224C20.3172 23.6224 12.3786 22.0154 7.52892 19.8543ZM57.6482 15.1548C57.643 15.2232 57.6348 15.2913 57.6237 15.359L57.6221 15.3696C57.6095 15.4416 57.5936 15.5129 57.5747 15.5835C57.5612 15.6345 57.5462 15.6851 57.5297 15.7353L57.5201 15.7647C57.4942 15.839 57.4655 15.9122 57.4338 15.9843C57.4214 16.0128 57.4079 16.0411 57.3944 16.0696C57.3675 16.1263 57.3391 16.1828 57.3084 16.2387L57.3002 16.2537C56.8126 17.1338 55.8921 17.9036 54.978 18.5047C53.7642 17.8055 51.8175 16.9124 48.8297 16.0746C43.5866 14.6046 36.8993 13.7952 29.9996 13.7952C23.0998 13.7952 16.4126 14.6047 11.1693 16.0747C8.18165 16.9124 6.23505 17.8055 5.02111 18.5049C4.10716 17.9038 3.18666 17.1339 2.69893 16.2538L2.69072 16.2388C2.66002 16.1828 2.63166 16.1263 2.60459 16.0695C2.59123 16.0411 2.57775 16.0129 2.56545 15.9845C2.5549 15.9606 2.54494 15.9366 2.5351 15.9126C2.51506 15.8633 2.49596 15.8141 2.47908 15.7649C2.47568 15.7552 2.47264 15.7452 2.46936 15.7355C2.44821 15.6715 2.42956 15.6068 2.41346 15.5414C2.39921 15.4847 2.38702 15.4275 2.37689 15.3699L2.37537 15.3592C2.36419 15.2915 2.35602 15.2234 2.35088 15.1551C2.34617 15.0978 2.34366 15.0404 2.34338 14.983C2.34338 10.8967 13.7013 6.34375 29.9995 6.34375C46.2976 6.34375 57.6555 10.8967 57.6555 14.983C57.6555 15.0402 57.6525 15.0975 57.6482 15.1548Z" fill="black"/>
<path d="M48.1762 11.6432C48.1306 11.4162 48.0194 11.2076 47.8563 11.0432C47.8018 10.989 47.7421 10.9404 47.6781 10.8979C47.5502 10.8129 47.4069 10.7536 47.2563 10.7233C47.1051 10.6928 46.9494 10.6928 46.7981 10.7233C46.7231 10.7385 46.6505 10.7608 46.579 10.7901C46.5087 10.8194 46.4407 10.8557 46.3774 10.8979C46.313 10.9401 46.2532 10.9893 46.1981 11.0432C46.1442 11.0971 46.0962 11.1581 46.053 11.2213C45.9679 11.3493 45.9086 11.4926 45.8783 11.6432C45.8631 11.7194 45.8561 11.7956 45.8561 11.8717C45.8561 11.9491 45.8632 12.0252 45.8783 12.1014C45.9086 12.252 45.9679 12.3953 46.053 12.5233C46.0962 12.5866 46.1442 12.6463 46.1981 12.7014C46.2533 12.7553 46.3131 12.8034 46.3774 12.8467C46.4407 12.8889 46.5087 12.9252 46.579 12.9545C46.6505 12.9838 46.7233 13.0061 46.7981 13.0213C46.8743 13.0366 46.9518 13.0448 47.0278 13.0448C47.104 13.0448 47.1815 13.0366 47.2563 13.0213C47.3313 13.0061 47.4053 12.9838 47.4755 12.9545C47.5458 12.9252 47.6138 12.8889 47.6781 12.8467C47.7414 12.8034 47.8024 12.7553 47.8563 12.7014C47.9103 12.6463 47.9595 12.5866 48.0017 12.5233C48.0867 12.3953 48.1459 12.252 48.1762 12.1014C48.1915 12.0252 48.1996 11.9491 48.1996 11.8717C48.1996 11.7954 48.1915 11.7193 48.1762 11.6432Z" fill="black"/>
<path d="M43.4826 9.86056C39.4451 9.10095 34.8496 8.69935 30.1932 8.69935C23.7484 8.69935 17.5182 9.46435 12.6501 10.8536C12.0278 11.0313 11.6671 11.6797 11.8448 12.302C11.9915 12.8171 12.4607 13.1527 12.9709 13.1527C13.0773 13.1527 13.1856 13.1382 13.2931 13.1075C17.9578 11.7763 23.9596 11.0432 30.193 11.0432C34.7066 11.0432 39.1521 11.4308 43.0491 12.164C43.6854 12.2834 44.2977 11.8651 44.4175 11.229C44.5373 10.5929 44.1185 9.98044 43.4826 9.86056Z" fill="black"/>
<path d="M14.1206 29.6092C14.1054 29.5342 14.0831 29.4604 14.0538 29.3889C14.0246 29.3186 13.9882 29.2506 13.946 29.1873C13.9034 29.1231 13.8543 29.0634 13.7996 29.0092C13.7456 28.9553 13.6859 28.9061 13.6214 28.8627C13.5581 28.8205 13.4902 28.7854 13.4197 28.7561C13.3491 28.7265 13.2757 28.7041 13.2006 28.6893C13.0494 28.6588 12.8937 28.6588 12.7425 28.6893C12.6674 28.7033 12.5936 28.7268 12.5234 28.7561C12.4519 28.7854 12.3839 28.8205 12.3206 28.8627C12.2562 28.9061 12.1964 28.9553 12.1425 29.0092C12.0886 29.0631 12.0394 29.1229 11.9972 29.1873C11.955 29.2506 11.9187 29.3186 11.8894 29.3889C11.8601 29.4604 11.8378 29.5342 11.8226 29.6092C11.8074 29.6842 11.7992 29.7615 11.7992 29.8377C11.7999 29.9914 11.8305 30.1434 11.8894 30.2854C11.9187 30.3568 11.955 30.4248 11.9972 30.4881C12.0394 30.5525 12.0886 30.6122 12.1425 30.6662C12.1964 30.7201 12.2562 30.7693 12.3206 30.8115C12.3839 30.8549 12.4519 30.8901 12.5234 30.9193C12.5937 30.9486 12.6674 30.9721 12.7425 30.9861C12.8175 31.0014 12.8949 31.0096 12.9709 31.0096C13.0471 31.0096 13.1246 31.0014 13.2006 30.9861C13.2757 30.9713 13.3491 30.9489 13.4197 30.9193C13.4905 30.8905 13.5581 30.8543 13.6214 30.8115C13.6856 30.7693 13.7453 30.7206 13.7996 30.6662C13.9089 30.5575 13.9953 30.428 14.0538 30.2854C14.113 30.1436 14.1433 29.9914 14.1428 29.8377C14.1428 29.7614 14.1358 29.6842 14.1206 29.6092Z" fill="black"/>
</svg>
