<svg width="60" height="60" viewBox="0 0 60 60" fill="none" xmlns="http://www.w3.org/2000/svg">
<path d="M57.9523 19.9663L30.98 0.226256C30.7792 0.0792462 30.5368 0 30.2879 0C30.039 0 29.7965 0.0792462 29.5957 0.226256L2.62358 19.9663C2.10139 20.3485 1.98784 21.0818 2.3701 21.6041L5.89546 26.4211C5.98631 26.5453 6.10076 26.6504 6.23226 26.7304C6.36376 26.8104 6.50973 26.8637 6.66183 26.8872C6.81394 26.9107 6.96919 26.9041 7.11871 26.8676C7.26824 26.8311 7.40911 26.7655 7.53327 26.6745L8.5971 25.8959V58.828C8.5971 59.4751 9.12186 59.9998 9.76897 59.9998H50.8687C51.5158 59.9998 52.0406 59.4751 52.0406 58.828V25.9413L53.0426 26.6745C53.1667 26.7655 53.3076 26.831 53.4571 26.8675C53.6066 26.904 53.7618 26.9106 53.9139 26.8871C54.066 26.8636 54.212 26.8103 54.3435 26.7303C54.4749 26.6504 54.5894 26.5453 54.6803 26.4211L58.2056 21.6041C58.588 21.0816 58.4744 20.3485 57.9523 19.9663ZM49.6969 53.0856H21.9712C21.3241 53.0856 20.7994 53.6103 20.7994 54.2574C20.7994 54.9045 21.3241 55.4293 21.9712 55.4293H49.6969V57.6562H10.9407V25.105H38.3839C39.031 25.105 39.5558 24.5803 39.5558 23.9332C39.5558 23.2861 39.031 22.7613 38.3839 22.7613H12.8809L30.2879 10.0213L49.6969 24.226V53.0856ZM53.4811 24.0911L30.98 7.62348C30.7793 7.47638 30.5368 7.39712 30.2879 7.39719C30.039 7.39709 29.7966 7.47636 29.5958 7.62348L7.09464 24.0911L4.9535 21.1654L30.288 2.62391L55.6226 21.1654L53.4811 24.0911Z" fill="black"/>
<path d="M43.7551 23.7046C43.7399 23.6295 43.7165 23.5557 43.6872 23.4842C43.6579 23.4139 43.6215 23.3459 43.5793 23.2826C43.5371 23.2184 43.4884 23.1587 43.434 23.1045C43.2138 22.8855 42.9161 22.7621 42.6055 22.761C42.2973 22.761 41.995 22.8864 41.7771 23.1045C41.7232 23.1584 41.674 23.2182 41.6318 23.2826C41.5896 23.3459 41.5533 23.4139 41.524 23.4842C41.4947 23.5557 41.4713 23.6295 41.4572 23.7046C41.442 23.7796 41.4338 23.8569 41.4338 23.933C41.4338 24.0092 41.442 24.0866 41.4572 24.1615C41.4713 24.2364 41.4947 24.3103 41.524 24.3818C41.5533 24.4523 41.5896 24.5202 41.6318 24.5835C41.674 24.648 41.7232 24.7076 41.7771 24.7616C41.831 24.8155 41.8908 24.8648 41.9552 24.9069C42.0185 24.949 42.0865 24.9855 42.158 25.0148C42.2283 25.0441 42.302 25.0675 42.3771 25.0816C42.4521 25.0968 42.5295 25.1049 42.6055 25.1049C42.6817 25.1049 42.7591 25.0968 42.834 25.0816C42.9092 25.067 42.9827 25.0446 43.0532 25.0148C43.1247 24.9855 43.1926 24.949 43.2559 24.9069C43.3204 24.8648 43.38 24.8155 43.434 24.7616C43.4879 24.7077 43.5372 24.648 43.5793 24.5835C43.6215 24.5202 43.6579 24.4523 43.6872 24.3818C43.7165 24.3105 43.7399 24.2365 43.7551 24.1615C43.7704 24.0865 43.7773 24.0092 43.7773 23.933C43.7773 23.8569 43.7702 23.7795 43.7551 23.7046Z" fill="black"/>
<path d="M18.8982 54.0281C18.8832 53.9531 18.8609 53.8797 18.8315 53.809C18.8022 53.7386 18.7658 53.6695 18.7236 53.6063C18.6812 53.5423 18.6325 53.4826 18.5784 53.4281C18.5245 53.3742 18.4646 53.3262 18.4003 53.2828C18.2723 53.1978 18.129 53.1385 17.9784 53.1082C17.8272 53.0777 17.6714 53.0777 17.5202 53.1082C17.4464 53.1234 17.3725 53.1457 17.3011 53.175C17.2307 53.2043 17.1628 53.2406 17.0995 53.2828C17.035 53.325 16.9752 53.3742 16.9214 53.4281C16.8663 53.482 16.8182 53.543 16.7749 53.6063C16.6899 53.7342 16.6306 53.8775 16.6004 54.0281C16.585 54.1043 16.5781 54.1805 16.5781 54.2566C16.5776 54.4106 16.6079 54.5632 16.6671 54.7054C16.6964 54.7758 16.7328 54.8438 16.7749 54.9081C16.8182 54.9714 16.8663 55.0312 16.9214 55.0862C16.9753 55.1403 17.0352 55.1895 17.0995 55.2315C17.1628 55.2737 17.2307 55.3101 17.3011 55.3394C17.3725 55.3686 17.4464 55.3909 17.5202 55.4061C17.5964 55.4214 17.6737 55.4296 17.7499 55.4296C17.9814 55.4286 18.2075 55.3598 18.4003 55.2315C18.4645 55.1894 18.5242 55.1407 18.5784 55.0862C18.6323 55.0312 18.6815 54.9715 18.7236 54.9081C18.8521 54.7151 18.921 54.4885 18.9216 54.2566C18.9216 54.1805 18.9134 54.1042 18.8982 54.0281Z" fill="black"/>
<path d="M44.8444 30.5741C44.8444 29.5803 44.4546 28.6476 43.7468 27.9481C43.0458 27.2554 42.0872 26.8676 41.1097 26.876C40.8016 26.8793 40.495 26.9208 40.1971 26.9997C38.027 27.5554 35.9068 28.2902 33.8583 29.1966C32.6884 28.9199 31.4902 28.7806 30.2881 28.7813C29.6111 28.7813 28.9281 28.8257 28.2577 28.9133C27.74 28.9816 27.226 29.0761 26.7179 29.1966C24.6697 28.2903 22.5499 27.5556 20.3802 26.9999C20.3698 26.997 20.3593 26.9942 20.3488 26.9915C19.1954 26.6978 18.006 26.9619 17.0856 27.7171C16.1654 28.472 15.6741 29.5867 15.7372 30.7745C15.8018 31.9938 15.9217 33.2096 16.0966 34.418C16.2538 35.5012 16.4545 36.5776 16.6984 37.6446C16.3356 38.5729 16.0828 39.5405 15.9452 40.5276C15.888 40.9397 15.8591 41.3553 15.8588 41.7714C15.8588 47.0173 20.4333 51.2853 26.0564 51.2853H34.5201C37.6022 51.2853 40.4857 50.0035 42.4314 47.7686C44.2144 45.7205 44.9956 43.1486 44.631 40.5269C44.5526 39.9648 44.4369 39.4085 44.2848 38.8617C44.1695 38.4498 44.0339 38.0438 43.8784 37.6453C44.3942 35.3878 44.7156 33.0901 44.839 30.7777C44.8426 30.7091 44.8444 30.6416 44.8444 30.5741ZM42.4984 30.647L42.4982 30.651C42.3758 32.949 42.0457 35.2312 41.512 37.4697C41.454 37.7133 41.4754 37.9692 41.5733 38.1997C41.7519 38.6199 41.9033 39.0511 42.0265 39.4907C42.1506 39.937 42.245 40.391 42.309 40.8497C42.5788 42.7897 41.9943 44.7004 40.663 46.2296C39.1627 47.9529 36.9236 48.9414 34.5195 48.9414H26.0558C21.7253 48.9414 18.2019 45.7249 18.2019 41.7714C18.2019 41.4679 18.2236 41.1574 18.2661 40.8496C18.3935 39.938 18.6409 39.0473 19.002 38.2007C19.1002 37.9699 19.1219 37.7138 19.0637 37.4698C18.797 36.3508 18.5807 35.2203 18.4156 34.0819C18.2508 32.9439 18.1379 31.799 18.0771 30.6508C18.0539 30.2148 18.2341 29.806 18.5718 29.5289C18.819 29.326 19.1195 29.2196 19.4288 29.2196C19.5341 29.2196 19.6406 29.2319 19.7465 29.2571L19.7698 29.2633C21.9491 29.8194 24.0748 30.5674 26.1222 31.4985C26.3694 31.6112 26.6481 31.6346 26.9107 31.5646C27.4534 31.4199 28.0048 31.3106 28.5616 31.2372C29.1308 31.1628 29.7116 31.125 30.2873 31.125C31.4351 31.125 32.571 31.2729 33.6639 31.5646C33.9261 31.6342 34.2046 31.6114 34.4516 31.499C36.5063 30.5646 38.6398 29.8145 40.8271 29.2573C40.9272 29.2333 41.0297 29.2207 41.1326 29.2196H41.1478C41.4981 29.2196 41.844 29.3632 42.0988 29.6149C42.2263 29.74 42.3274 29.8892 42.3964 30.0539C42.4653 30.2186 42.5006 30.3955 42.5002 30.574C42.5003 30.5983 42.4997 30.6224 42.4984 30.647Z" fill="black"/>
<path d="M32.4858 43.5662C31.9201 43.5662 31.4598 43.1059 31.4598 42.5403C31.4598 41.8932 30.9352 41.3684 30.2879 41.3684C29.6407 41.3684 29.1161 41.8932 29.1161 42.5403V42.5831C29.1161 43.1487 28.6559 43.609 28.0902 43.609C27.443 43.609 26.9183 44.1338 26.9183 44.7809C26.9183 45.428 27.443 45.9528 28.0902 45.9528C28.941 45.9528 29.7189 45.6356 30.3125 45.1135C30.9195 45.6284 31.6898 45.9107 32.4858 45.9099C33.1329 45.9099 33.6577 45.3851 33.6577 44.738C33.6577 44.0908 33.1329 43.5662 32.4858 43.5662Z" fill="black"/>
<path d="M26.1916 38.1664L24.4509 37.3688C24.2977 37.2985 24.1312 37.2621 23.9628 37.2621C23.7943 37.2621 23.6278 37.2985 23.4747 37.3688L21.7339 38.1664C21.1455 38.4359 20.8869 39.1314 21.1566 39.7198C21.2207 39.8597 21.3117 39.9856 21.4244 40.0904C21.5372 40.1951 21.6695 40.2766 21.8137 40.3302C21.958 40.3838 22.1114 40.4085 22.2652 40.4028C22.419 40.3971 22.5701 40.3612 22.71 40.2971L23.9627 39.7232L25.2153 40.2971C25.8033 40.5669 26.4992 40.3082 26.7687 39.7198C27.0385 39.1314 26.7798 38.4358 26.1916 38.1664Z" fill="black"/>
<path d="M38.842 38.1662L37.1013 37.3686C36.9481 37.2983 36.7816 37.262 36.6132 37.262C36.4447 37.262 36.2782 37.2983 36.1251 37.3686L34.3844 38.1662C33.796 38.4357 33.5375 39.1312 33.8071 39.7196C34.0768 40.3083 34.7723 40.5669 35.3605 40.2969L36.6132 39.723L37.8658 40.2969C38.0187 40.3672 38.1849 40.4036 38.3532 40.4036C38.7973 40.4036 39.2221 40.1498 39.4192 39.7196C39.6889 39.1312 39.4305 38.4357 38.842 38.1662Z" fill="black"/>
</svg>
