<svg width="40" height="32" viewBox="0 0 40 32" fill="none" xmlns="http://www.w3.org/2000/svg">
<path d="M20 0C13.9347 0 9 4.78519 9 10.6667C9 12.4323 9.45523 14.1829 10.3206 15.7357L19.3985 31.6562C19.5193 31.8685 19.7496 32 20 32C20.2504 32 20.4807 31.8685 20.6015 31.6562L29.6827 15.7304C30.5448 14.1829 31 12.4323 31 10.6666C31 4.78519 26.0653 0 20 0ZM28.4762 15.0905L20 29.9557L11.5271 15.0964C10.7732 13.7435 10.375 12.2116 10.375 10.6667C10.375 5.52019 14.6927 1.33337 20 1.33337C25.3073 1.33337 29.625 5.52025 29.625 10.6667C29.625 12.2116 29.2268 13.7435 28.4762 15.0905Z" fill="black"/>
<path d="M20 5.33329C16.9674 5.33329 14.5001 7.72585 14.5001 10.6666C14.5001 13.6074 16.9674 16 20 16C23.0327 16 25.5 13.6074 25.5 10.6667C25.5 7.72592 23.0327 5.33329 20 5.33329ZM20 14.6667C17.7253 14.6667 15.875 12.8724 15.875 10.6667C15.875 8.46092 17.7253 6.66667 20 6.66667C22.2747 6.66667 24.125 8.46092 24.125 10.6667C24.125 12.8724 22.2747 14.6667 20 14.6667Z" fill="black"/>
</svg>
