<svg width="60" height="36" fill="none" xmlns="http://www.w3.org/2000/svg"><path d="M36.173 19.518v6.647H1.18a.774.774 0 0 1-.777-.777v-5.093c0-.432.346-.777.777-.777h34.993Z" fill="#CBD7E3"/><path fill-rule="evenodd" clip-rule="evenodd" d="M36.173 26.54H1.18c-.662 0-1.18-.518-1.18-1.151v-5.094c0-.662.518-1.18 1.18-1.18h34.993c.23 0 .403.173.403.374v6.677c0 .2-.173.374-.403.374ZM1.18 19.892a.393.393 0 0 0-.403.403v5.093c0 .202.173.403.403.403h34.618v-5.899H1.18Z" fill="#00082B"/><path d="M36.173 26.165v3.914H18.159a3.862 3.862 0 0 0-3.77-2.906 3.862 3.862 0 0 0-3.77 2.906 1.382 1.382 0 0 1-1.381-1.381v-2.533h26.935Z" fill="#5C6C7C"/><path fill-rule="evenodd" clip-rule="evenodd" d="M36.173 30.453H18.16a.397.397 0 0 1-.374-.288 3.507 3.507 0 0 0-3.396-2.618 3.54 3.54 0 0 0-3.425 2.618.342.342 0 0 1-.345.288c-.978 0-1.784-.806-1.784-1.755v-2.533c0-.23.173-.402.403-.402h26.935c.23 0 .403.172.403.402v3.914c0 .201-.173.374-.403.374Zm-17.727-.777H35.8V26.54H9.612v2.158c0 .431.316.834.72.95a4.32 4.32 0 0 1 4.057-2.878 4.28 4.28 0 0 1 4.058 2.906Z" fill="#00082B"/><path fill-rule="evenodd" clip-rule="evenodd" d="M58.072 30.453H54.62a.397.397 0 0 1-.374-.287 3.507 3.507 0 0 0-3.396-2.62 3.54 3.54 0 0 0-3.424 2.62.342.342 0 0 1-.345.287H36.172a.38.38 0 0 1-.374-.374V12.64c0-.892.748-1.64 1.669-1.64h1.496c.777 0 1.583.058 2.36.23 1.007.202 1.986.518 2.907.979.95.489 1.812 1.064 2.59 1.726l3.913 3.482a12.818 12.818 0 0 0 3.482 2.159l1.87.776c.346.154.672.336.98.547a5.397 5.397 0 0 1 1.438 1.353c.46.575.777 1.237.978 1.928v.029a14.61 14.61 0 0 1 .518 3.856v.46a1.928 1.928 0 0 1-1.928 1.928Zm-3.165-.777h3.165c.633 0 1.151-.518 1.151-1.15v-.461a13.3 13.3 0 0 0-.489-3.655 5.191 5.191 0 0 0-.834-1.698 4.96 4.96 0 0 0-1.267-1.18 3.976 3.976 0 0 0-.834-.46l-1.87-.777a14.565 14.565 0 0 1-3.713-2.302l-3.914-3.482a10.727 10.727 0 0 0-2.417-1.612 10.212 10.212 0 0 0-2.734-.92 11.06 11.06 0 0 0-2.187-.23h-1.496a.897.897 0 0 0-.892.891v17.036h10.216a4.28 4.28 0 0 1 4.057-2.906 4.28 4.28 0 0 1 4.058 2.906Z" fill="#00082B"/><path fill-rule="evenodd" clip-rule="evenodd" d="M56.403 30.31h-1.784c-.115 0-.23-.058-.26-.173a3.63 3.63 0 0 0-3.51-2.734 3.662 3.662 0 0 0-3.54 2.734c-.028.115-.115.172-.23.172h-1.784a.261.261 0 0 1-.201-.086c-.058-.058-.058-.115-.058-.201.077-.46.211-.912.403-1.353.23-.604.576-1.18 1.036-1.67a5.721 5.721 0 0 1 4.374-2.014c2.878 0 5.324 2.101 5.784 5.037.029.086 0 .143-.057.2-.029.058-.115.087-.173.087Zm-1.583-.49h1.267c-.547-2.532-2.706-4.345-5.238-4.345-1.525 0-2.993.69-4 1.841-.403.46-.72.979-.95 1.554a4.16 4.16 0 0 0-.287.95h1.266a4.145 4.145 0 0 1 3.971-2.906 4.172 4.172 0 0 1 3.971 2.906Z" fill="#00082B"/><path d="M59.108 24.295h-1.324a2.68 2.68 0 0 1-2.273-1.238l-1.151-1.841h2.504a5.397 5.397 0 0 1 2.244 3.079Z" fill="#FFCF0D"/><path fill-rule="evenodd" clip-rule="evenodd" d="M59.109 24.554h-1.324a2.92 2.92 0 0 1-2.475-1.381l-1.15-1.813a.287.287 0 0 1-.029-.26c.058-.086.144-.143.23-.143h2.504c.038 0 .086.01.144.029a5.664 5.664 0 0 1 2.33 3.251c.03.087.03.144-.028.23a.262.262 0 0 1-.201.087Zm-4.288-3.08.92 1.44c.432.719 1.21 1.122 2.044 1.122h.978a5.283 5.283 0 0 0-1.985-2.561H54.82Z" fill="#00082B"/><path d="M54.763 31.058a3.918 3.918 0 0 1-3.914 3.913 3.918 3.918 0 0 1-3.913-3.913c0-.346.047-.672.143-.979a3.862 3.862 0 0 1 3.77-2.906 3.862 3.862 0 0 1 3.77 2.906c.077.307.125.633.144.979Z" fill="#353D4A"/><path fill-rule="evenodd" clip-rule="evenodd" d="M50.85 35.345a4.299 4.299 0 0 1-4.288-4.287 4.284 4.284 0 0 1 4.288-4.288 4.31 4.31 0 0 1 4.143 3.194c.096.364.144.729.144 1.094a4.299 4.299 0 0 1-4.288 4.287Zm0-7.798a3.541 3.541 0 0 0-3.425 2.618 3.537 3.537 0 0 0 3.425 4.432c1.927 0 3.51-1.583 3.51-3.54a3.508 3.508 0 0 0-3.51-3.51Z" fill="#00082B"/><path fill-rule="evenodd" clip-rule="evenodd" d="M50.85 33.389a2.321 2.321 0 0 1-2.331-2.331c0-.375.086-.777.287-1.123a2.303 2.303 0 0 1 2.043-1.208c.835 0 1.64.46 2.044 1.208.172.346.287.748.287 1.123a2.321 2.321 0 0 1-2.33 2.33Zm0-4.144c-.662 0-1.296.345-1.612.95-.144.258-.23.575-.23.863 0 1.007.834 1.841 1.841 1.841 1.008 0 1.813-.834 1.813-1.841 0-.288-.086-.605-.23-.864a1.762 1.762 0 0 0-1.583-.95Z" fill="#00082B"/><path d="M52.921 31.058c0 1.15-.92 2.1-2.072 2.1-1.15 0-2.072-.95-2.072-2.1 0-.346.087-.691.23-.979.375-.662 1.037-1.093 1.842-1.093a2.04 2.04 0 0 1 1.813 1.093c.173.288.26.633.26.979Z" fill="#CBD7E3"/><path fill-rule="evenodd" clip-rule="evenodd" d="M50.85 33.389a2.321 2.321 0 0 1-2.331-2.331c0-.375.086-.777.287-1.123a2.303 2.303 0 0 1 2.043-1.208c.835 0 1.64.46 2.044 1.208.172.346.287.748.287 1.123a2.321 2.321 0 0 1-2.33 2.33Zm0-4.144c-.662 0-1.296.345-1.612.95-.144.258-.23.575-.23.863 0 1.007.834 1.841 1.841 1.841 1.008 0 1.813-.834 1.813-1.841 0-.288-.086-.605-.23-.864a1.762 1.762 0 0 0-1.583-.95Z" fill="#00082B"/><path d="M18.274 31.058c0 2.158-1.727 3.913-3.885 3.913a3.918 3.918 0 0 1-3.914-3.913c0-.346.048-.672.144-.979a3.862 3.862 0 0 1 3.77-2.906 3.862 3.862 0 0 1 3.77 2.906c.076.307.115.633.115.979Z" fill="#353D4A"/><path fill-rule="evenodd" clip-rule="evenodd" d="M14.389 35.345a4.298 4.298 0 0 1-4.288-4.287c0-.365.048-.73.144-1.094a4.284 4.284 0 0 1 4.144-3.194 4.31 4.31 0 0 1 4.144 3.194c.096.364.144.729.144 1.094a4.299 4.299 0 0 1-4.288 4.287Zm0-7.798a3.54 3.54 0 0 0-3.425 2.618 3.537 3.537 0 0 0 3.424 4.432c1.929 0 3.512-1.583 3.512-3.54a3.508 3.508 0 0 0-3.51-3.51Z" fill="#00082B"/><path fill-rule="evenodd" clip-rule="evenodd" d="M14.39 33.389a2.321 2.321 0 0 1-2.332-2.331c0-.375.086-.777.288-1.123a2.303 2.303 0 0 1 2.043-1.208c.835 0 1.64.46 2.043 1.208.173.346.288.748.288 1.123a2.34 2.34 0 0 1-2.33 2.33Zm0-4.144c-.663 0-1.296.345-1.613.95a1.85 1.85 0 0 0-.23.863c0 1.007.835 1.841 1.842 1.841 1.007 0 1.813-.834 1.813-1.841 0-.288-.086-.605-.23-.864a1.762 1.762 0 0 0-1.583-.95Z" fill="#00082B"/><path d="M16.46 31.058c0 1.15-.92 2.1-2.071 2.1-1.151 0-2.1-.95-2.1-2.1 0-.346.114-.691.258-.979.374-.662 1.036-1.093 1.842-1.093a2.04 2.04 0 0 1 1.813 1.093c.172.288.259.633.259.979Z" fill="#CBD7E3"/><path fill-rule="evenodd" clip-rule="evenodd" d="M14.39 33.389a2.321 2.321 0 0 1-2.332-2.331c0-.375.086-.777.288-1.123a2.303 2.303 0 0 1 2.043-1.208c.835 0 1.64.46 2.043 1.208.173.346.288.748.288 1.123a2.34 2.34 0 0 1-2.33 2.33Zm0-4.144c-.663 0-1.296.345-1.613.95a1.85 1.85 0 0 0-.23.863c0 1.007.835 1.841 1.842 1.841 1.007 0 1.813-.834 1.813-1.841 0-.288-.086-.605-.23-.864a1.762 1.762 0 0 0-1.583-.95Z" fill="#00082B"/><path d="M59.511 26.626h-5.323a.258.258 0 0 1-.26-.26c0-.143.116-.258.26-.258h5.323c.144 0 .26.115.26.259a.258.258 0 0 1-.26.259Z" fill="#00082B"/><path d="M46.648 27.173a5.603 5.603 0 0 0-.979 1.582h-9.496v-1.582h10.475Z" fill="#353D4A"/><path fill-rule="evenodd" clip-rule="evenodd" d="M45.67 29.014h-9.497a.258.258 0 0 1-.259-.259v-1.582c0-.144.115-.26.259-.26h10.475c.115 0 .201.058.23.145.058.086.029.201-.029.259a5.37 5.37 0 0 0-.95 1.553c-.028.087-.143.144-.23.144Zm-9.238-.518h9.065a6.16 6.16 0 0 1 .633-1.093h-9.698v1.093Z" fill="#00082B"/><path d="M36.173 22.08H.403a.258.258 0 0 1-.258-.26c0-.144.115-.259.258-.259h35.77c.144 0 .26.115.26.26a.258.258 0 0 1-.26.258Zm0 2.157H.403c-.143 0-.258-.115-.258-.23 0-.144.115-.259.258-.259h35.77c.144 0 .26.115.26.26 0 .114-.116.23-.26.23Z" fill="#00082B"/><path d="M9.238 26.424a.258.258 0 0 1-.259-.258v-6.677c0-.115.115-.23.259-.23.144 0 .259.115.259.23v6.677a.258.258 0 0 1-.259.258Zm9.208 0a.258.258 0 0 1-.259-.258v-6.677c0-.115.115-.23.259-.23.144 0 .259.115.259.23v6.677a.258.258 0 0 1-.259.258Zm9.209 0a.258.258 0 0 1-.259-.258v-6.677c0-.115.115-.23.259-.23.144 0 .259.115.259.23v6.677a.258.258 0 0 1-.259.258Z" fill="#00082B"/><path d="M52.921 22.223a27.91 27.91 0 0 1-8.144-1.209l-2.705-.834c-1.352-.432-2.417-1.497-2.82-2.791a3.846 3.846 0 0 1-.23-1.324v-2.101c0-.49.432-.863.92-.777l.576.086a10.944 10.944 0 0 1 5.526 2.677l1.525 1.41 5.352 4.863Z" fill="#2196FF"/><path fill-rule="evenodd" clip-rule="evenodd" d="M52.921 22.482c-2.79 0-5.553-.403-8.201-1.237l-2.705-.806c-1.439-.46-2.561-1.554-3.022-2.993a4.173 4.173 0 0 1-.23-1.381v-2.101c0-.316.144-.604.374-.806a.992.992 0 0 1 .835-.23l.575.086a11.303 11.303 0 0 1 5.67 2.763l6.877 6.245c.087.086.115.201.058.287-.03.115-.116.173-.23.173Zm-13.093-9.065a.476.476 0 0 0-.345.144.504.504 0 0 0-.202.403v2.1c0 .423.067.835.202 1.238a3.998 3.998 0 0 0 2.676 2.619l2.705.834a26.864 26.864 0 0 0 7.396 1.209l-6.389-5.813a10.615 10.615 0 0 0-5.41-2.619l-.575-.086c-.02-.02-.039-.029-.058-.029Z" fill="#00082B"/><path d="M47.569 17.36c-1.324.23-2.734.345-4.23.345a26.17 26.17 0 0 1-4.087-.316 3.845 3.845 0 0 1-.23-1.324v-2.101c0-.49.432-.863.92-.777l.576.086a10.944 10.944 0 0 1 5.526 2.677l1.525 1.41Z" fill="#fff" style="mix-blend-mode:overlay" opacity=".3"/><path d="M58.216 22.482c-6.33 1.439-13.841 2.446-22.043 2.878a204.25 204.25 0 0 1-8.518.201c-10.043 0-19.424-.863-27.252-2.388v-2.878c0-.432.346-.777.777-.777h34.993V12.64c0-.69.576-1.266 1.295-1.266h1.496c.768 0 1.526.077 2.274.23a12.06 12.06 0 0 1 2.82.95c.892.46 1.727 1.007 2.504 1.669l3.913 3.482a13.72 13.72 0 0 0 3.597 2.245l1.87.777c.327.134.634.297.922.489.518.345.978.777 1.352 1.266Z" fill="#fff" style="mix-blend-mode:overlay" opacity=".3"/></svg>