<svg width="60" height="36" fill="none" xmlns="http://www.w3.org/2000/svg"><path fill-rule="evenodd" clip-rule="evenodd" d="M55.776 29.881c-.206 2.955-2.691 5.313-5.695 5.313-3.005 0-5.464-2.358-5.668-5.313H16.011c-.205 2.955-2.691 5.313-5.695 5.313-3.004 0-5.464-2.358-5.667-5.313H3.222c-1.78 0-3.222-1.47-3.222-3.25V13.546c0-1.922.424-3.815 1.244-5.54A3.574 3.574 0 0 1 4.437 6h.141l29.054 1.102a7.573 7.573 0 0 1 3.137.792c.584.301 1.12.659 1.61 1.073l6.614 5.172c1.441 1.216 3.363 2.657 5.341 3.25l4.607 1.329a7.018 7.018 0 0 1 3.844 2.883c.113.17.207.33.282.48l.679 1.3c.17.31.254.678.254 1.046v2.006c0 .763-.367 1.47-.99 1.866l-1.751 1.158a2.338 2.338 0 0 1-1.357.424h-.126Z" fill="#F0F"/></svg>