<svg width="60" height="36" fill="none" xmlns="http://www.w3.org/2000/svg"><path fill-rule="evenodd" clip-rule="evenodd" d="M55.902 29.881h-.509c-.197 0-.367-.17-.367-.395a4.951 4.951 0 0 0-4.946-4.946c-2.713 0-4.946 2.233-4.946 4.946 0 .226-.141.395-.367.395H15.629c-.198 0-.368-.17-.368-.395a4.951 4.951 0 0 0-4.945-4.946c-2.714 0-4.946 2.233-4.946 4.946 0 .226-.17.395-.368.395h-1.78c-1.78 0-3.222-1.47-3.222-3.25V13.546c0-1.922.424-3.815 1.244-5.54A3.574 3.574 0 0 1 4.437 6h.141l29.054 1.102a7.573 7.573 0 0 1 3.137.792c.584.301 1.12.659 1.61 1.073l6.614 5.172c1.441 1.216 3.363 2.657 5.341 3.25l4.607 1.329a7.018 7.018 0 0 1 3.844 2.883c.113.17.207.33.282.48l.679 1.3c.17.31.254.678.254 1.046v2.006c0 .763-.367 1.47-.99 1.866l-1.751 1.158a2.338 2.338 0 0 1-1.357.424Zm-.141-.763h.141c.34 0 .65-.113.933-.282l1.752-1.16a1.48 1.48 0 0 0 .678-1.243v-2.006c0-.255-.056-.48-.17-.707l-.706-1.272a5.495 5.495 0 0 0-.254-.452 6.242 6.242 0 0 0-3.392-2.543l-4.635-1.357c-2.12-.593-4.098-2.12-5.567-3.363L37.899 9.56a6.935 6.935 0 0 0-1.47-.99 6.955 6.955 0 0 0-2.826-.706L4.55 6.763a.463.463 0 0 0-.113-.028c-1.074 0-2.035.622-2.515 1.582a12.309 12.309 0 0 0-1.187 5.229V26.63a2.51 2.51 0 0 0 2.487 2.487h1.413c.198-2.967 2.685-5.313 5.68-5.313a5.69 5.69 0 0 1 5.681 5.313H44.4c.198-2.967 2.685-5.313 5.681-5.313a5.69 5.69 0 0 1 5.68 5.313Z" fill="#00082B"/><path d="M58.474 21.798c-6.953 1.527-15.262 2.403-24.164 2.403-13.679 0-25.888-2.064-33.943-5.314v-5.341c0-1.865.424-3.702 1.215-5.37a3.184 3.184 0 0 1 2.855-1.809h.113L33.63 7.47a7.816 7.816 0 0 1 2.968.763 7.18 7.18 0 0 1 1.526 1.017l6.642 5.2c1.582 1.329 3.448 2.713 5.454 3.307l4.607 1.328a6.547 6.547 0 0 1 3.646 2.713Z" fill="#fff" style="mix-blend-mode:overlay" opacity=".3"/><path d="M43.467 24.2h-24.39a.374.374 0 0 1-.368-.367c0-.198.17-.367.368-.367h24.39c.198 0 .367.17.367.367 0 .198-.17.368-.367.368Z" fill="#00082B"/><path d="M27.979 10.155V17.7c0 .424-.367.763-.791.763l-23.769-.706c-.424 0-.734-.34-.734-.763V9.448c0-.424.339-.791.79-.763l23.77.706c.395 0 .734.34.734.764Z" fill="#2196FF"/><path fill-rule="evenodd" clip-rule="evenodd" d="M27.217 18.718h-.028L3.42 18.01c-.565-.028-.989-.452-.989-1.017V9.448c0-.283.113-.537.311-.735.198-.198.452-.282.735-.282l23.768.706c.565 0 .99.452.99 1.018V17.7c0 .255-.114.537-.312.735a1.11 1.11 0 0 1-.706.283ZM3.449 8.939a.537.537 0 0 0-.368.142.497.497 0 0 0-.17.367v7.546c0 .282.227.509.51.509l23.768.706a.675.675 0 0 0 .395-.141.595.595 0 0 0 .142-.368v-7.545a.507.507 0 0 0-.51-.51L3.45 8.94Z" fill="#00082B"/><path d="M46.886 19.114 30.89 18.52c-.396-.028-.735-.367-.735-.763v-7.461a.76.76 0 0 1 .763-.763h3.11a4.37 4.37 0 0 1 2.825 1.046l3.364 2.854 6.67 5.68Z" fill="#2196FF"/><path fill-rule="evenodd" clip-rule="evenodd" d="m46.886 19.368-15.996-.594a1.026 1.026 0 0 1-.99-1.017v-7.461c0-.565.453-1.018 1.018-1.018h3.11a4.72 4.72 0 0 1 2.995 1.103l10.033 8.535c.085.056.113.17.056.282a.246.246 0 0 1-.226.17Zm-15.968-9.58a.507.507 0 0 0-.508.508v7.461c0 .254.226.48.48.509l15.29.565-9.496-8.055a4.022 4.022 0 0 0-2.657-.989h-3.109Z" fill="#00082B"/><path d="M3.222 29.486A2.847 2.847 0 0 1 .367 26.63h2.855v2.855Z" fill="#FF4D4D"/><path fill-rule="evenodd" clip-rule="evenodd" d="M3.222 29.74a3.118 3.118 0 0 1-3.109-3.11c0-.141.113-.254.255-.254h2.854c.141 0 .254.113.254.254v2.855a.253.253 0 0 1-.254.254Zm-2.6-2.854c.141 1.243 1.13 2.232 2.346 2.345v-2.346H.622Z" fill="#00082B"/><path d="m59.576 23.946.057 2.487c0 .622-.311 1.216-.848 1.555-1.074.763-1.978 1.356-2.43 1.441v-2.967c0-1.385 1.102-2.516 2.487-2.516h.734Z" fill="#FFCF0D"/><path fill-rule="evenodd" clip-rule="evenodd" d="M56.355 29.683a.304.304 0 0 1-.17-.056c-.057-.028-.085-.113-.085-.198v-2.967c0-.735.283-1.442.791-1.95.537-.51 1.216-.82 1.95-.82h.735c.142 0 .255.113.255.254l.056 2.487a2.16 2.16 0 0 1-.96 1.78c-1.329.933-2.092 1.386-2.516 1.47h-.056Zm2.487-5.482a2.25 2.25 0 0 0-1.583.678c-.424.424-.678.99-.65 1.583v2.628c.537-.254 1.385-.848 2.035-1.3.48-.311.735-.82.735-1.357l-.057-2.232h-.48Z" fill="#00082B"/><path fill-rule="evenodd" clip-rule="evenodd" d="M15.63 29.486a5.307 5.307 0 0 1-5.314 5.313 5.307 5.307 0 0 1-5.313-5.313 5.307 5.307 0 0 1 5.313-5.314 5.307 5.307 0 0 1 5.313 5.314Zm-2.488 0a2.835 2.835 0 0 0-2.826-2.827 2.834 2.834 0 0 0-2.826 2.827 2.834 2.834 0 0 0 2.826 2.826 2.835 2.835 0 0 0 2.826-2.826Z" fill="#353D4A"/><path fill-rule="evenodd" clip-rule="evenodd" d="M10.316 35.194c-3.137 0-5.68-2.571-5.68-5.708a5.68 5.68 0 0 1 5.68-5.681c3.137 0 5.709 2.544 5.709 5.68 0 3.138-2.572 5.71-5.71 5.71Zm0-10.654c-2.713 0-4.946 2.233-4.946 4.946a4.951 4.951 0 0 0 4.946 4.945 4.933 4.933 0 0 0 4.946-4.945 4.951 4.951 0 0 0-4.946-4.946Zm0 8.168c-1.752 0-3.194-1.442-3.194-3.222a3.208 3.208 0 0 1 3.194-3.194c1.78 0 3.222 1.441 3.222 3.194a3.22 3.22 0 0 1-3.222 3.222Zm0-5.681a2.46 2.46 0 0 0-2.459 2.459 2.46 2.46 0 0 0 2.459 2.458 2.46 2.46 0 0 0 2.459-2.458 2.46 2.46 0 0 0-2.46-2.46Z" fill="#00082B"/><path d="M13.142 29.486a2.834 2.834 0 0 1-2.827 2.826 2.834 2.834 0 0 1-2.826-2.826 2.834 2.834 0 0 1 2.826-2.826 2.834 2.834 0 0 1 2.827 2.826Z" fill="#CBD7E3"/><path fill-rule="evenodd" clip-rule="evenodd" d="M10.316 32.566a3.088 3.088 0 0 1-3.08-3.08 3.088 3.088 0 0 1 3.08-3.08 3.088 3.088 0 0 1 3.08 3.08 3.088 3.088 0 0 1-3.08 3.08Zm0-5.652a2.581 2.581 0 0 0-2.572 2.572 2.563 2.563 0 0 0 2.572 2.571 2.563 2.563 0 0 0 2.572-2.571 2.581 2.581 0 0 0-2.572-2.572Zm39.764 5.794c-1.752 0-3.193-1.442-3.193-3.222a3.208 3.208 0 0 1 3.193-3.194c1.78 0 3.222 1.441 3.222 3.194a3.22 3.22 0 0 1-3.222 3.222Zm0-5.681c-1.356 0-2.43 1.102-2.43 2.459 0 1.356 1.074 2.458 2.43 2.458a2.46 2.46 0 0 0 2.46-2.458 2.46 2.46 0 0 0-2.46-2.46Z" fill="#00082B"/><path d="M55.393 29.486a5.307 5.307 0 0 1-5.313 5.313 5.307 5.307 0 0 1-5.313-5.313 5.307 5.307 0 0 1 5.313-5.314 5.307 5.307 0 0 1 5.313 5.314Z" fill="#353D4A"/><path fill-rule="evenodd" clip-rule="evenodd" d="M50.08 35.194c-3.136 0-5.68-2.571-5.68-5.708a5.681 5.681 0 0 1 5.68-5.681c3.138 0 5.71 2.544 5.71 5.68 0 3.138-2.572 5.71-5.71 5.71Zm0-10.654c-2.713 0-4.917 2.233-4.917 4.946 0 2.741 2.204 4.945 4.918 4.945a4.933 4.933 0 0 0 4.945-4.945 4.951 4.951 0 0 0-4.945-4.946Z" fill="#00082B"/><path d="M50.08 32.312a2.835 2.835 0 0 1-2.826-2.826 2.835 2.835 0 0 1 2.826-2.826 2.816 2.816 0 0 1 2.826 2.826 2.816 2.816 0 0 1-2.826 2.826Z" fill="#CBD7E3"/><path fill-rule="evenodd" clip-rule="evenodd" d="M50.08 32.708c-1.752 0-3.193-1.442-3.193-3.222a3.208 3.208 0 0 1 3.193-3.194c1.78 0 3.222 1.441 3.222 3.194a3.22 3.22 0 0 1-3.222 3.222Zm0-5.681c-1.356 0-2.43 1.102-2.43 2.459 0 1.356 1.074 2.458 2.43 2.458a2.46 2.46 0 0 0 2.46-2.458 2.46 2.46 0 0 0-2.46-2.46Z" fill="#00082B"/><path d="M13.65 18.18a.253.253 0 0 1-.254-.253V8.996c0-.142.113-.255.255-.255.141 0 .254.113.254.255v8.93a.253.253 0 0 1-.254.255Z" fill="#00082B"/><path d="M27.979 10.155v4.832a77.755 77.755 0 0 1-3.646.085c-8.563 0-16.25-1.3-21.648-3.363V9.448c0-.424.339-.791.79-.763l23.77.706c.395 0 .734.34.734.764Zm12.238 3.278c-3.024.678-6.416 1.159-10.062 1.441v-4.578a.76.76 0 0 1 .763-.763h3.11a4.37 4.37 0 0 1 2.825 1.045l3.364 2.855Z" fill="#fff" style="mix-blend-mode:overlay" opacity=".3"/><path fill-rule="evenodd" clip-rule="evenodd" d="M55.902 29.881h-.509c-.197 0-.367-.17-.367-.395a4.951 4.951 0 0 0-4.946-4.946c-2.713 0-4.946 2.233-4.946 4.946 0 .226-.141.395-.367.395H15.629c-.198 0-.368-.17-.368-.395a4.951 4.951 0 0 0-4.945-4.946c-2.714 0-4.946 2.233-4.946 4.946 0 .226-.17.395-.368.395h-1.78c-1.78 0-3.222-1.47-3.222-3.25V13.546c0-1.922.424-3.815 1.244-5.54A3.574 3.574 0 0 1 4.437 6h.141l29.054 1.102a7.573 7.573 0 0 1 3.137.792c.584.301 1.12.659 1.61 1.073l6.614 5.172c1.441 1.216 3.363 2.657 5.341 3.25l4.607 1.329a7.018 7.018 0 0 1 3.844 2.883c.113.17.207.33.282.48l.679 1.3c.17.31.254.678.254 1.046v2.006c0 .763-.367 1.47-.99 1.866l-1.751 1.158a2.338 2.338 0 0 1-1.357.424Zm-.141-.763h.141c.34 0 .65-.113.933-.282l1.752-1.16a1.48 1.48 0 0 0 .678-1.243v-2.006c0-.255-.056-.48-.17-.707l-.706-1.272a5.495 5.495 0 0 0-.254-.452 6.242 6.242 0 0 0-3.392-2.543l-4.635-1.357c-2.12-.593-4.098-2.12-5.567-3.363L37.899 9.56a6.935 6.935 0 0 0-1.47-.99 6.955 6.955 0 0 0-2.826-.706L4.55 6.763a.463.463 0 0 0-.113-.028c-1.074 0-2.035.622-2.515 1.582a12.309 12.309 0 0 0-1.187 5.229V26.63a2.51 2.51 0 0 0 2.487 2.487h1.413c.198-2.967 2.685-5.313 5.68-5.313a5.69 5.69 0 0 1 5.681 5.313H44.4c.198-2.967 2.685-5.313 5.681-5.313a5.69 5.69 0 0 1 5.68 5.313Z" fill="#00082B"/></svg>