<svg width="60" height="36" fill="none" xmlns="http://www.w3.org/2000/svg"><path fill-rule="evenodd" clip-rule="evenodd" d="M56.123 32.187h-1.705c-.791 1.793-2.572 2.922-4.532 2.922a4.961 4.961 0 0 1-4.557-2.922H18.252l-.617-.04a5.017 5.017 0 0 1-4.553 2.962A4.967 4.967 0 0 1 8.3 31.578l-.893-.065h-.056l-3.484-.59a4.08 4.08 0 0 1-3.146-2.67l-.618-1.741a1.835 1.835 0 0 1 .561-2.023c.225-.197.366-.45.366-.73l.056-.562a1.851 1.851 0 0 1 1.517-1.658l6.209-1.04a12.337 12.337 0 0 0 3.568-1.151l1.545-.787c2.051-1.011 4.158-1.714 6.237-2.079a30.984 30.984 0 0 1 12.755.393h.028c1.349.338 2.697.871 3.99 1.574l2.219 1.208a13.808 13.808 0 0 0 5.76 1.686h.224c3.877.224 7.81.618 11.66 1.208l.533.084a2.11 2.11 0 0 1 1.826 2.163v.59c-.028.281.056.534.225.787l.197.196c.28.281.421.619.421 1.012 0 .225-.056.45-.169.674l-1.517 2.81c-.45.814-1.292 1.32-2.191 1.32Z" fill="#F0F" style="mix-blend-mode:overlay"/></svg>