<svg width="60" height="36" fill="none" xmlns="http://www.w3.org/2000/svg"><path fill-rule="evenodd" clip-rule="evenodd" d="M57.453 33.02h-.028l-5.037-.056c-.14 0-.252-.084-.336-.196-.056-.14-.056-.28.028-.392.42-.672.644-1.427.644-2.239a4.192 4.192 0 0 0-1.316-3.05 4.166 4.166 0 0 0-2.854-1.12c-1.623 0-3.134.952-3.806 2.435a4.322 4.322 0 0 0-.364 1.735c0 .756.196 1.483.588 2.127.056.14.056.28 0 .392-.084.112-.196.196-.336.196l-29.608-.476-1.427-.056c-.112 0-.224-.084-.28-.168a.344.344 0 0 1-.028-.364 4.148 4.148 0 0 0 .336-1.65c0-.318-.038-.626-.112-.925a4.137 4.137 0 0 0-4.058-3.246c-1.54 0-2.966.84-3.694 2.211a4.005 4.005 0 0 0-.504 1.96 4.9 4.9 0 0 0 .224 1.286.458.458 0 0 1-.056.336c-.084.112-.196.168-.336.14l-.615-.028a2.65 2.65 0 0 1-.644-.084l-1.371-.364a2.823 2.823 0 0 1-1.12-.531c-.42-.28-.755-.7-.98-1.148-.251-.448-.363-.98-.363-1.483V25.94c0-.56.196-1.147.532-1.595.224-.28.336-.616.392-.951l.027-.448c.094-.746.28-1.418.56-2.015a10.862 10.862 0 0 1 3.023-3.806 10.903 10.903 0 0 1 5.54-2.267c.057-.028 7.585-1.203 14.553-.755 5.653.363 11.166 2.322 12.117 2.826l5.094 2.575c1.539.811 3.218 1.315 4.953 1.539 4.366.56 7.724 1.483 9.963 2.714.224.112.447.243.671.392.28.168.541.364.784.588.448.42.84.895 1.12 1.455.13.224.242.457.335.7.224.588.336 1.231.336 1.903V30.5c0 .671-.28 1.315-.756 1.79a2.517 2.517 0 0 1-1.79.729Zm-4.45-.812 4.422.084c.476 0 .952-.196 1.288-.532a1.78 1.78 0 0 0 .531-1.26v-1.706c0-.579-.102-1.129-.307-1.651a5.566 5.566 0 0 0-.252-.588 4.661 4.661 0 0 0-.98-1.26 3.667 3.667 0 0 0-.671-.531 3.163 3.163 0 0 0-.616-.308c0-.019-.01-.028-.028-.028-2.127-1.203-5.401-2.099-9.71-2.63a16.335 16.335 0 0 1-5.206-1.624L36.409 17.6c-.924-.476-6.27-2.407-11.838-2.743-6.884-.447-14.3.728-14.384.728a10.24 10.24 0 0 0-5.178 2.127c-1.203.951-2.155 2.183-2.826 3.526v.028a5.698 5.698 0 0 0-.476 1.763l-.056.448a2.581 2.581 0 0 1-.532 1.315 1.869 1.869 0 0 0-.363 1.147v2.323c0 .392.084.784.251 1.147.196.336.448.672.784.896.261.186.55.317.868.392l1.37.364c.169.037.327.065.477.084h.112a6.117 6.117 0 0 1-.084-1.008c0-.811.195-1.595.56-2.323a4.984 4.984 0 0 1 4.365-2.602 4.88 4.88 0 0 1 4.785 3.834c.094.354.14.718.14 1.091 0 .504-.074.989-.223 1.455l.895.056 28.965.42a4.958 4.958 0 0 1-.392-1.93c0-.7.14-1.4.448-2.044.811-1.735 2.546-2.882 4.477-2.882 1.26 0 2.435.475 3.358 1.343a4.874 4.874 0 0 1 1.568 3.582 4.78 4.78 0 0 1-.476 2.071Z" fill="#00082B"/><path d="M13.992 30.137c0 .644-.112 1.26-.364 1.82-.7 1.594-2.294 2.742-4.17 2.742a4.528 4.528 0 0 1-4.337-3.163 4.58 4.58 0 0 1-.224-1.399c0-2.519 2.043-4.534 4.562-4.534a4.515 4.515 0 0 1 4.533 4.534Z" fill="#353D4A"/><path fill-rule="evenodd" clip-rule="evenodd" d="M9.459 35.062a4.93 4.93 0 0 1-4.702-3.414 5.11 5.11 0 0 1-.224-1.51 4.933 4.933 0 0 1 4.926-4.926 4.933 4.933 0 0 1 4.925 4.925c0 .7-.14 1.343-.42 1.959a4.885 4.885 0 0 1-4.505 2.966Zm0-9.095a4.162 4.162 0 0 0-4.17 4.17 4.174 4.174 0 0 0 4.17 4.198c1.65 0 3.162-1.008 3.834-2.547a4.18 4.18 0 0 0-3.834-5.82Z" fill="#00082B"/><path fill-rule="evenodd" clip-rule="evenodd" d="M9.458 33.523a3.353 3.353 0 0 1-2.994-1.79 3.398 3.398 0 0 1 2.994-4.981 3.398 3.398 0 0 1 3.387 3.385c0 .672-.196 1.315-.56 1.875a3.42 3.42 0 0 1-2.827 1.511Zm0-6.268a2.878 2.878 0 0 0-2.882 2.882c0 .476.112.951.336 1.371.504.924 1.483 1.54 2.546 1.54.952 0 1.875-.504 2.407-1.316a2.886 2.886 0 0 0 .476-1.595 2.878 2.878 0 0 0-2.883-2.882Z" fill="#00082B"/><path d="M12.593 30.137a3.1 3.1 0 0 1-.532 1.735 3.12 3.12 0 0 1-2.602 1.4 3.147 3.147 0 0 1-2.771-1.652c-.252-.447-.364-.951-.364-1.483a3.13 3.13 0 0 1 3.135-3.134 3.13 3.13 0 0 1 3.134 3.134Z" fill="#CBD7E3"/><path fill-rule="evenodd" clip-rule="evenodd" d="M9.458 33.523a3.353 3.353 0 0 1-2.994-1.79 3.398 3.398 0 0 1 2.994-4.981 3.398 3.398 0 0 1 3.387 3.385c0 .672-.196 1.315-.56 1.875a3.42 3.42 0 0 1-2.827 1.511Zm0-6.268a2.878 2.878 0 0 0-2.882 2.882c0 .476.112.951.336 1.371.504.924 1.483 1.54 2.546 1.54.952 0 1.875-.504 2.407-1.316a2.886 2.886 0 0 0 .476-1.595 2.878 2.878 0 0 0-2.883-2.882Z" fill="#00082B"/><path d="M53.116 30.137c0 .896-.28 1.735-.728 2.435a4.501 4.501 0 0 1-3.834 2.127c-1.65 0-3.106-.896-3.918-2.24a4.582 4.582 0 0 1-.643-2.322c0-2.519 2.043-4.534 4.561-4.534 2.519 0 4.562 2.015 4.562 4.534Z" fill="#353D4A"/><path fill-rule="evenodd" clip-rule="evenodd" d="M48.554 35.062a4.91 4.91 0 0 1-4.226-2.406 4.946 4.946 0 0 1-.7-2.519 4.933 4.933 0 0 1 4.926-4.925 4.933 4.933 0 0 1 4.926 4.925c0 .952-.28 1.847-.784 2.659-.895 1.427-2.435 2.266-4.142 2.266Zm0-9.095a4.18 4.18 0 0 0-4.17 4.17c0 .756.196 1.483.588 2.127.728 1.287 2.127 2.07 3.582 2.07 1.427 0 2.743-.727 3.526-1.958a4.18 4.18 0 0 0-3.526-6.409Z" fill="#00082B"/><path fill-rule="evenodd" clip-rule="evenodd" d="M48.554 33.523c-.84 0-1.623-.28-2.239-.84a3.396 3.396 0 0 1-1.147-2.546 3.398 3.398 0 0 1 3.386-3.386 3.398 3.398 0 0 1 3.386 3.386 3.36 3.36 0 0 1-1.231 2.603 3.344 3.344 0 0 1-2.155.783Zm0-6.268a2.878 2.878 0 0 0-2.882 2.882c0 .84.336 1.623.98 2.183.53.448 1.203.727 1.902.727.672 0 1.316-.251 1.847-.671a2.884 2.884 0 0 0 1.036-2.239 2.878 2.878 0 0 0-2.883-2.882Z" fill="#00082B"/><path d="M51.688 30.137c0 .98-.448 1.847-1.12 2.407-.56.476-1.26.727-2.015.727-.783 0-1.51-.28-2.07-.783a3.105 3.105 0 0 1-1.064-2.35 3.13 3.13 0 0 1 3.134-3.135 3.13 3.13 0 0 1 3.135 3.134Z" fill="#CBD7E3"/><path fill-rule="evenodd" clip-rule="evenodd" d="M48.554 33.523c-.84 0-1.623-.28-2.239-.84a3.396 3.396 0 0 1-1.147-2.546 3.398 3.398 0 0 1 3.386-3.386 3.398 3.398 0 0 1 3.386 3.386 3.36 3.36 0 0 1-1.231 2.603 3.344 3.344 0 0 1-2.155.783Zm0-6.268a2.878 2.878 0 0 0-2.882 2.882c0 .84.336 1.623.98 2.183.53.448 1.203.727 1.902.727.672 0 1.316-.251 1.847-.671a2.884 2.884 0 0 0 1.036-2.239 2.878 2.878 0 0 0-2.883-2.882Z" fill="#00082B"/><path d="M59.3 27.003h-1.455c-.84 0-1.623-.308-2.239-.84l-1.903-1.707h3.526a5.083 5.083 0 0 1 1.791 1.903c.112.205.205.42.28.644Z" fill="#FFCF0D"/><path fill-rule="evenodd" clip-rule="evenodd" d="M59.3 27.255h-1.455a3.613 3.613 0 0 1-2.407-.896l-1.903-1.707c-.084-.084-.112-.196-.056-.28.028-.112.112-.168.224-.168h3.526a.46.46 0 0 1 .14.028 5.629 5.629 0 0 1 1.875 2.015c.112.224.205.448.28.672.028.084.028.168-.028.224-.028.084-.112.112-.196.112Zm-4.953-2.547 1.427 1.26c.56.503 1.315.783 2.07.783h1.092a1.097 1.097 0 0 0-.14-.252 4.833 4.833 0 0 0-1.65-1.791h-2.8Z" fill="#00082B"/><path d="m41.53 22.245-24.236-1.51a12.736 12.736 0 0 1-2.239-.365 9.628 9.628 0 0 1-2.35-.951 9.73 9.73 0 0 1-2.071-1.428l-.812-.7 1.12-.139 7.5-.98c.988-.13 1.987-.195 2.994-.195h2.49c2.268 0 4.506.335 6.69.98 1.175.372 2.322.83 3.441 1.37.187.094.364.187.532.28l6.94 3.638Z" fill="#2196FF"/><path fill-rule="evenodd" clip-rule="evenodd" d="M41.53 22.497h-.03l-24.235-1.511a12.693 12.693 0 0 1-2.294-.392 10.833 10.833 0 0 1-2.38-.951c-.783-.392-1.482-.896-2.126-1.456l-.812-.7a.226.226 0 0 1-.083-.251c.028-.112.111-.168.195-.196l8.62-1.12a22.623 22.623 0 0 1 3.05-.195h2.49a23.218 23.218 0 0 1 10.243 2.379c.187.093.364.186.532.28l6.94 3.637c.112.056.168.168.14.28-.056.112-.14.196-.252.196Zm-31.148-5.01.392.337a12.578 12.578 0 0 0 2.043 1.399c.727.392 1.511.672 2.295.895.7.196 1.455.308 2.182.364l23.088 1.427-5.905-3.106a12.903 12.903 0 0 1-.531-.252 24.034 24.034 0 0 0-3.415-1.343 21.982 21.982 0 0 0-6.604-1.007h-2.49c-.98 0-1.988.083-2.967.195l-8.088 1.092Z" fill="#00082B"/><path d="M4.897 21.098 3.19 23.113H1.315l.028-.14a5.49 5.49 0 0 1 .504-1.875h3.05Z" fill="#FF4D4D"/><path fill-rule="evenodd" clip-rule="evenodd" d="M3.19 23.365H1.315c-.056 0-.14-.028-.168-.084-.056-.028-.084-.112-.084-.168l.028-.168c.084-.7.252-1.371.532-1.96.056-.083.14-.139.224-.139h3.05c.112 0 .196.056.224.14.056.084.028.196-.028.28L3.386 23.28a.254.254 0 0 1-.196.084Zm-1.595-.476h1.483l1.287-1.54h-2.35a5.62 5.62 0 0 0-.42 1.54Zm23.787 8.199-5.625-.223a5.017 5.017 0 0 1-2.855-.98 5.51 5.51 0 0 1-1.287-1.343l-4.086-6.185a1.941 1.941 0 0 1 0-2.183l.616-1.007.084-.084 1.875-2.519a.272.272 0 0 1 .168-.112l5.457-.727h4.925c.112 0 .224.112.224.252l.308 5.205.448 9.655c0 .074-.019.14-.056.195a.344.344 0 0 1-.196.056ZM14.44 16.928l-1.82 2.435a.324.324 0 0 1-.055.084l-.616.98a1.479 1.479 0 0 0 0 1.65l4.086 6.185c.317.485.7.886 1.147 1.203.784.56 1.68.868 2.603.924l5.345.196-.448-9.375-.28-4.982h-4.617l-5.345.7Z" fill="#00082B"/><path fill-rule="evenodd" clip-rule="evenodd" d="M39.99 31.48h-.028l-14.58-.392c-.14 0-.224-.083-.252-.223l-.447-9.655c0-.056.028-.14.084-.196a.404.404 0 0 1 .195-.056l16.596 1.035c.084 0 .196.084.224.196.167.756.195 1.512.083 2.267l-.923 6.213a.961.961 0 0 1-.952.811Zm-14.356-.867 14.328.392a.461.461 0 0 0 .476-.42l.924-6.185a6.086 6.086 0 0 0-.028-1.93l-16.12-1.008.42 9.15Z" fill="#00082B"/><path d="M34.057 18.327c-2.21.14-4.561.224-7.024.224-6.324 0-12.061-.531-16.091-1.399l7.5-.98c.989-.13 1.987-.195 2.994-.195h2.49c2.268 0 4.507.335 6.69.98 1.175.372 2.322.83 3.441 1.37Z" fill="#fff" style="mix-blend-mode:overlay" opacity=".3"/><path d="M57.956 25.016c-1.958.671-4.057 1.26-6.296 1.79a97.549 97.549 0 0 1-7.248 1.456c-5.737.896-12.09 1.4-18.75 1.4-4.058 0-8.004-.197-11.782-.532-2.938-.28-5.765-.644-8.451-1.12a85.168 85.168 0 0 1-5.066-1.035v-1.036c0-.475.168-.98.476-1.371.252-.336.392-.728.448-1.147l.028-.308.028-.14a5.489 5.489 0 0 1 .504-1.875 10.56 10.56 0 0 1 2.938-3.694 10.673 10.673 0 0 1 5.345-2.183s7.472-1.203 14.468-.756c5.737.364 11.166 2.38 11.978 2.799l5.093 2.575a15.247 15.247 0 0 0 5.066 1.567c4.253.56 7.583 1.427 9.85 2.686.224.112.439.234.644.364.261.168.504.355.727.56Z" fill="#fff" style="mix-blend-mode:overlay" opacity=".3"/></svg>