<svg width="60" height="35" fill="none" xmlns="http://www.w3.org/2000/svg"><path d="M54.241 29.208c0 .434-.047.85-.142 1.248-.567 2.213-2.581 3.858-4.964 3.858-2.468 0-4.511-1.759-5.022-4.057a6.368 6.368 0 0 1-.085-1.05c0-2.836 2.27-5.134 5.107-5.134 2.808 0 5.106 2.298 5.106 5.135Z" fill="#353D4A"/><path fill-rule="evenodd" clip-rule="evenodd" d="M49.134 34.683a5.52 5.52 0 0 1-5.39-4.37v-.027a5.216 5.216 0 0 1-.113-1.079 5.509 5.509 0 0 1 5.503-5.503 5.509 5.509 0 0 1 5.504 5.503 7.788 7.788 0 0 1-.17 1.334 5.519 5.519 0 0 1-5.334 4.142ZM44.51 30.2c.454 2.156 2.412 3.717 4.624 3.717a4.736 4.736 0 0 0 4.596-3.546 4.78 4.78 0 0 0 .142-1.163 4.728 4.728 0 0 0-4.738-4.738c-2.61 0-4.737 2.1-4.737 4.738 0 .321.028.643.085.964l.028.028Z" fill="#00082B"/><path fill-rule="evenodd" clip-rule="evenodd" d="M58.043 30.91c-.02.019-.038.019-.057 0l-3.915-.085a.349.349 0 0 1-.284-.142c-.085-.085-.085-.199-.056-.312a5.01 5.01 0 0 0 .141-1.163c0-1.958-1.163-3.688-2.978-4.398a4.554 4.554 0 0 0-1.76-.34 4.776 4.776 0 0 0-3.063 1.106 4.692 4.692 0 0 0-1.674 3.631c0 .322.029.643.085.965.02.019.029.047.029.085a.423.423 0 0 1-.114.255.364.364 0 0 1-.283.114l-27.064-.567a.54.54 0 0 1-.284-.142.479.479 0 0 1-.085-.284c.019-.151.028-.293.028-.425a4.783 4.783 0 0 0-1.248-3.206 4.742 4.742 0 0 0-3.49-1.532c-.907 0-1.787.255-2.553.738a4.725 4.725 0 0 0-2.184 4v.198a.406.406 0 0 1-.113.284c-.086.056-.17.113-.284.085-.51-.038-.993-.085-1.447-.142a27.077 27.077 0 0 1-3.035-.51c-.454-.114-.908-.313-1.277-.625a3.173 3.173 0 0 1-.851-1.163A3.264 3.264 0 0 1 0 26.172c0-.303.038-.586.114-.851l1.304-4.454v-.057l.625-2.042c.085-.369.283-.738.539-1.05a2.13 2.13 0 0 1 .198-.227l.029-.028 3.716-3.092c.113-.085.113-.199.113-.256 0-.085-.056-.17-.141-.227a.681.681 0 0 1-.34-.567c0-.312.254-.596.566-.652.17-.029 1.816-.37 4-.795 8.851-1.759 17.873-.85 26.1 2.61l.085.028a.717.717 0 0 1 .17.086l4.199 1.787c1.56.68 3.205 1.191 4.88 1.532l9.105 1.872c.454.095.89.255 1.305.482a5.014 5.014 0 0 1 1.93 1.844c.037.057.075.123.113.199v.028h.028v.029l.596 1.163a6.1 6.1 0 0 1 .54 1.475c.15.567.226 1.135.226 1.702v2.241c0 .54-.199 1.05-.596 1.419-.369.34-.85.539-1.361.539Zm-3.49-.823 3.461.085a1.2 1.2 0 0 0 .851-.34c.256-.227.37-.54.37-.88v-2.24c0-.512-.058-1.013-.171-1.505a7.485 7.485 0 0 0-.51-1.333l-.596-1.163v-.028h-.029v-.029a.716.716 0 0 0-.085-.17 4.484 4.484 0 0 0-1.617-1.56 4.05 4.05 0 0 0-1.135-.397l-9.078-1.873a25.75 25.75 0 0 1-5.021-1.56l-4.227-1.816a1.103 1.103 0 0 1-.142-.056l-.085-.029c-8.085-3.432-16.965-4.312-25.674-2.581-1.815.369-3.262.652-3.801.766.198.17.312.425.34.68a.97.97 0 0 1-.397.88L3.291 18.03a.931.931 0 0 1-.114.142c-.198.255-.34.51-.425.823l-.596 2.07c-.019.02-.028.038-.028.057L.85 25.52a1.894 1.894 0 0 0-.113.652c0 .284.085.596.198.88.142.34.34.624.624.85.284.256.624.398.965.483.964.227 1.986.397 2.95.51.322.038.653.076.993.114.085-1.816 1.021-3.461 2.525-4.426.88-.595 1.929-.879 2.979-.879 1.532 0 3.035.652 4.056 1.787.937 1.021 1.419 2.326 1.419 3.716v.086l1.05.028 25.19.539a3.974 3.974 0 0 1-.056-.652c0-1.617.71-3.15 1.93-4.2a5.495 5.495 0 0 1 3.574-1.304c.709 0 1.39.142 2.042.397 2.1.851 3.461 2.837 3.461 5.107 0 .283-.028.576-.085.879Z" fill="#00082B"/><path d="M7.546 18.399c0 .17-.113.34-.284.397l-5.475 2.185.596-2.1c.113-.34.284-.652.51-.936h4.2c.254 0 .453.199.453.454Z" fill="#FF4D4D"/><path fill-rule="evenodd" clip-rule="evenodd" d="M1.787 21.208c-.076 0-.132-.02-.17-.057a.229.229 0 0 1-.085-.255l.624-2.1c.113-.369.283-.709.539-1.021.028-.057.113-.085.198-.085h4.199a.702.702 0 0 1 .255 1.362l-5.475 2.156h-.085Zm1.22-3.007a2.57 2.57 0 0 0-.369.737l-.482 1.617 5.021-1.986c.085-.028.114-.113.114-.17a.194.194 0 0 0-.2-.198H3.008Z" fill="#00082B"/><path d="m58.837 23.59-2.128-.567c-1.362-.369-2.639-1.078-3.717-2.014l-.482-.397h2.525c1.362 0 2.61.709 3.234 1.9.019 0 .029.01.029.029l.538 1.05Z" fill="#FFCF0D"/><path fill-rule="evenodd" clip-rule="evenodd" d="M58.837 23.846c-.02 0-.038-.01-.057-.029l-2.128-.567a9.465 9.465 0 0 1-3.83-2.042l-.482-.426a.272.272 0 0 1-.056-.255c.028-.114.142-.17.227-.17h2.524c1.476 0 2.809.765 3.461 2.042l.029.028.539 1.05c.028.085.028.199-.029.255-.056.057-.113.114-.198.114Zm-5.646-2.979a9.005 9.005 0 0 0 3.603 1.9l1.56.426-.283-.567c-.596-1.078-1.73-1.759-3.036-1.759h-1.844Z" fill="#00082B"/><path d="m41.248 19.279-4.794-.029a22.71 22.71 0 0 1-1.617-.057L19.8 18.03a23.488 23.488 0 0 1-2.014-.255l-4.369-.794a22.15 22.15 0 0 0-1.957-.256l-3.943-.312.936-.652a9.182 9.182 0 0 1 1.021-.624 11.652 11.652 0 0 1 5.277-1.447l9.532-.397c.227-.02.453-.02.68 0 2.98.17 5.873.766 8.625 1.759.453.17.907.359 1.361.567a26.819 26.819 0 0 1 6.185 3.574l.113.085Z" fill="#2196FF"/><path fill-rule="evenodd" clip-rule="evenodd" d="m41.248 19.534-4.823-.028c-.53 0-1.068-.02-1.617-.057l-15.035-1.163a26.04 26.04 0 0 1-2.014-.256l-4.397-.794a24.056 24.056 0 0 0-1.93-.255l-3.943-.312c-.113 0-.198-.085-.227-.199-.028-.085.029-.199.114-.255l.908-.653a12.414 12.414 0 0 1 6.44-2.128l9.531-.397c.227-.019.463-.019.71 0 2.978.17 5.9.766 8.709 1.788.491.17.955.35 1.39.539a29.667 29.667 0 0 1 6.24 3.63l.114.086c.085.085.114.199.085.284-.028.113-.141.17-.255.17Zm-33.021-3.32 3.262.256a27.26 27.26 0 0 1 1.986.255l4.369.795a24.72 24.72 0 0 0 1.957.255l15.064 1.163c.53.038 1.06.057 1.589.057l4.056.028a28.92 28.92 0 0 0-5.645-3.177c-.435-.19-.889-.369-1.362-.54-2.751-1.02-5.617-1.588-8.567-1.758a3.76 3.76 0 0 0-.652 0l-9.532.397a11.59 11.59 0 0 0-5.164 1.39c-.359.208-.69.416-.992.624l-.37.256Z" fill="#00082B"/><path d="M17.078 29.208c0 .15-.01.302-.029.454a5.095 5.095 0 0 1-5.078 4.652c-2.752 0-4.993-2.184-5.106-4.908v-.198c0-2.837 2.27-5.135 5.106-5.135 2.809 0 5.107 2.298 5.107 5.135Z" fill="#353D4A"/><path fill-rule="evenodd" clip-rule="evenodd" d="M11.971 34.683a5.496 5.496 0 0 1-5.503-5.248v-.227a5.509 5.509 0 0 1 5.503-5.504c3.036 0 5.476 2.468 5.476 5.503v.511c-.284 2.837-2.61 4.965-5.476 4.965Zm0-10.213c-2.61 0-4.737 2.1-4.737 4.738v.198a4.721 4.721 0 0 0 4.737 4.51 4.699 4.699 0 0 0 4.71-4.283c.018-.151.028-.293.028-.425a4.728 4.728 0 0 0-4.738-4.738Z" fill="#00082B"/><path d="m44.114 30.513-1.447-.029a.269.269 0 0 1-.227-.255.41.41 0 0 1 .057-.199c.056-.028.113-.085.198-.056l1.447.028c.113 0 .227.113.227.255a.305.305 0 0 1-.057.17.272.272 0 0 1-.198.086Z" fill="#00082B"/><path d="M14.979 29.208c0 .113-.01.236-.028.368a3.006 3.006 0 0 1-2.979 2.639 3.006 3.006 0 0 1-3.007-2.78v-.227c0-1.674 1.333-3.036 3.007-3.036 1.645 0 3.007 1.362 3.007 3.036Z" fill="#CBD7E3"/><path fill-rule="evenodd" clip-rule="evenodd" d="M11.971 32.47c-1.702 0-3.12-1.333-3.262-3.007v-.255c0-1.816 1.447-3.291 3.262-3.291 1.788 0 3.263 1.475 3.263 3.29 0 .114-.01.246-.029.398a3.275 3.275 0 0 1-3.234 2.865Zm0-6.043c-1.531 0-2.751 1.249-2.751 2.78v.2a2.756 2.756 0 0 0 2.751 2.552c1.39 0 2.553-1.05 2.724-2.44.019-.113.028-.217.028-.311 0-1.532-1.248-2.78-2.752-2.78Z" fill="#00082B"/><path d="M52.113 29.208c0 .113-.01.236-.028.368a3.006 3.006 0 0 1-2.979 2.639c-1.588 0-2.865-1.22-3.007-2.78v-.227c0-1.674 1.334-3.036 3.007-3.036 1.674 0 3.007 1.362 3.007 3.036Z" fill="#CBD7E3"/><path fill-rule="evenodd" clip-rule="evenodd" d="M49.106 32.47c-1.702 0-3.12-1.333-3.262-3.007v-.255c0-1.816 1.475-3.291 3.262-3.291 1.816 0 3.263 1.475 3.263 3.29 0 .114-.01.246-.029.398a3.275 3.275 0 0 1-3.234 2.865Zm0-6.043c-1.532 0-2.752 1.249-2.752 2.78v.2a2.776 2.776 0 0 0 2.752 2.552c1.39 0 2.582-1.05 2.752-2.44v-.311c0-1.532-1.22-2.78-2.752-2.78Zm-30.638 3.518-1.418-.028c-.057 0-.142-.029-.17-.085a.272.272 0 0 1-.086-.199c.02-.132.029-.274.029-.425 0-2.695-2.185-4.88-4.851-4.88a4.88 4.88 0 0 0-4.88 4.88c0 .056.01.123.029.198 0 .057-.029.142-.086.17a.257.257 0 0 1-.198.085 36.021 36.021 0 0 1-1.419-.141c-.113-.029-.227-.114-.227-.227v-.398c.057-1.05.34-2.07.851-2.978v-.029c.19-.321.398-.633.625-.936a6.793 6.793 0 0 1 5.305-2.553c2.07 0 4 .936 5.276 2.553a6.846 6.846 0 0 1 1.078 1.873c.255.652.397 1.361.426 2.127v.255c0 .152-.01.322-.029.511 0 .142-.113.227-.255.227Zm-1.135-.51h.908v-.454a6.862 6.862 0 0 0-.397-1.986 5.843 5.843 0 0 0-.993-1.73 6.197 6.197 0 0 0-4.88-2.355c-1.928 0-3.687.85-4.907 2.354a11.55 11.55 0 0 0-.568.851l-.028.029c-.454.85-.738 1.815-.766 2.78v.113c.303.038.605.067.908.085a5.364 5.364 0 0 1 5.362-5.305c2.95 0 5.361 2.412 5.361 5.39v.227Z" fill="#00082B"/><path d="M5.447 29.207v.057a27.735 27.735 0 0 1-3.007-.51 2.528 2.528 0 0 1-1.107-.54 2.698 2.698 0 0 1-.766-1.02 3.111 3.111 0 0 1-.198-1.022c0-.265.038-.51.113-.738l.085-.34 5.702.908s-.822 1.645-.822 3.206Z" fill="#5C6C7C"/><path fill-rule="evenodd" clip-rule="evenodd" d="M5.447 29.52h-.029a28.262 28.262 0 0 1-3.035-.511 3.126 3.126 0 0 1-1.22-.624 3.12 3.12 0 0 1-.823-1.078 2.98 2.98 0 0 1-.114-1.957l.114-.313a.236.236 0 0 1 .284-.17l5.674.88c.085.028.17.056.198.141.029.057.029.142 0 .227 0 .029-.794 1.617-.794 3.093v.028c0 .085-.028.17-.085.198-.057.057-.114.086-.17.086Zm-4.71-4.142-.028.113a2.582 2.582 0 0 0-.085.681c0 .322.066.634.199.936.141.34.368.653.652.908a2.81 2.81 0 0 0 1.021.482c.908.199 1.787.37 2.695.483.057-1.135.483-2.242.71-2.78l-5.164-.823Zm55.007 5.362-1.986-.029.085-.312c.095-.397.142-.794.142-1.192 0-2.695-2.184-4.879-4.85-4.879-2.696 0-4.852 2.184-4.852 4.88 0 .34.029.67.085.992l.057.313-1.957-.057-.029-.199a6.732 6.732 0 0 1-.085-1.05 6.77 6.77 0 0 1 6.78-6.808c3.348 0 6.156 2.411 6.695 5.73.057.36.085.72.085 1.078 0 .454-.047.899-.142 1.334l-.028.198Zm-1.333-.54.936.029c.057-.34.085-.69.085-1.05a6.03 6.03 0 0 0-.085-.993c-.482-3.064-3.092-5.276-6.213-5.276-3.092 0-5.702 2.212-6.184 5.248-.057.34-.085.68-.085 1.021 0 .265.019.53.056.795h.908a5.221 5.221 0 0 1-.057-.795c0-2.95 2.412-5.361 5.362-5.361 2.979 0 5.39 2.41 5.39 5.361 0 .34-.038.681-.113 1.021Z" fill="#00082B"/><path d="M42.695 28.13a6.559 6.559 0 0 0 0 2.099l-24.227-.54c.02-.17.029-.33.029-.482 0-.822-.426-2.326-.426-2.326l24.624 1.248Z" fill="#5C6C7C"/><path fill-rule="evenodd" clip-rule="evenodd" d="m42.978 30.484-24.766-.539v-.255c.02-.19.029-.35.029-.482 0-.795-.398-2.242-.398-2.242l-.113-.34 25.248 1.277-.056.283c-.029.34-.057.653-.057 1.022 0 .321.019.643.056.964l.057.312Zm-24.227-1.021 23.66.51a5.421 5.421 0 0 1-.057-.765c0-.284.019-.558.057-.823l-24-1.22c.142.51.34 1.447.34 2.043v.255Z" fill="#00082B"/><path d="M59.631 26.711v2.241c0 .908-.737 1.617-1.645 1.589l-2.468-.057a5.77 5.77 0 0 0 .141-1.276c0-.36-.028-.71-.085-1.05h.993c.397 0 .766-.199.965-.539a1.997 1.997 0 0 1 1.702-.936c.132 0 .265.01.397.028Z" fill="#5C6C7C"/><path fill-rule="evenodd" clip-rule="evenodd" d="M58.042 30.796h-.056l-2.752-.056.057-.313c.075-.397.113-.803.113-1.22 0-.34-.028-.67-.085-.992l-.028-.312h1.276a.904.904 0 0 0 .766-.397 2.264 2.264 0 0 1 1.9-1.079c.152 0 .294.02.426.057l.199.029v2.44c0 .51-.17.964-.539 1.333-.34.34-.794.51-1.277.51Zm-2.212-.539 2.184.029c.34.028.68-.114.965-.37a1.35 1.35 0 0 0 .397-.964v-2.014h-.142c-.596 0-1.163.312-1.475.823a1.43 1.43 0 0 1-1.192.652h-.709c.038.265.057.53.057.795 0 .34-.029.69-.085 1.05Z" fill="#00082B"/><path d="M26.723 18.825c-.113 0-.227-.114-.255-.227l-.88-5.192a.261.261 0 0 1 .199-.312c.142-.028.255.085.284.227l.907 5.191a.24.24 0 0 1-.227.284c0 .02-.009.029-.028.029Zm-12.057-1.362a.252.252 0 0 1-.113-.029c-.142-.085-.17-.226-.114-.34l2.015-3.631c.085-.114.227-.142.369-.085.113.056.141.227.085.34l-2.015 3.603c-.056.085-.141.142-.227.142Z" fill="#00082B"/><path d="M34.95 15.619c-3.46.539-7.347.88-11.46.88-5.135 0-9.958-.511-14.015-1.362a11.653 11.653 0 0 1 5.277-1.447l9.532-.397c.227-.02.454-.02.68 0 2.98.17 5.873.766 8.625 1.759.453.17.907.359 1.361.567Z" fill="#fff" style="mix-blend-mode:overlay" opacity=".3"/><path d="M58.411 22.74a80.923 80.923 0 0 1-7.376 1.702 99.893 99.893 0 0 1-5.22.85c-5.276.738-10.978 1.135-16.935 1.135-4.54 0-8.965-.255-13.135-.68-2.25-.227-4.426-.511-6.525-.852-2.865-.482-5.56-1.02-8.085-1.673l.652-2.241.596-2.1a3.05 3.05 0 0 1 .51-.936c.039-.057.086-.123.143-.198l3.744-3.093c.369-.283.312-.85-.113-1.106-.085-.028-.142-.142-.142-.227 0-.113.113-.255.255-.255 0 0 1.702-.37 4-.823 8.71-1.73 17.73-.851 25.9 2.582.077.037.162.075.256.113l4.199 1.816a24.888 24.888 0 0 0 4.936 1.532l9.106 1.872c.435.095.842.246 1.22.454.71.369 1.334.964 1.759 1.674.038.075.076.141.114.198v.028c.018 0 .028.01.028.029l.113.198Z" fill="#fff" style="mix-blend-mode:overlay" opacity=".3"/></svg>