<svg width="60" height="35" fill="none" xmlns="http://www.w3.org/2000/svg"><path fill-rule="evenodd" clip-rule="evenodd" d="M58.043 30.91c-.02.019-.038.019-.057 0l-3.601-.079a5.52 5.52 0 0 1-5.25 3.852 5.523 5.523 0 0 1-5.317-4.063l-26.417-.554a5.461 5.461 0 0 1-5.43 4.617 5.495 5.495 0 0 1-5.48-4.936c-.384-.032-.75-.07-1.1-.114a27.077 27.077 0 0 1-3.036-.51c-.454-.114-.908-.313-1.277-.625a3.173 3.173 0 0 1-.851-1.163A3.264 3.264 0 0 1 0 26.172c0-.303.038-.586.114-.851l1.304-4.454v-.057l.625-2.042c.085-.369.283-.738.539-1.05a2.13 2.13 0 0 1 .198-.227l.029-.028 3.716-3.092c.113-.085.113-.199.113-.256 0-.085-.056-.17-.141-.227a.681.681 0 0 1-.34-.567c0-.312.254-.596.566-.652.067-.012.36-.07.822-.164.72-.145 1.85-.372 3.178-.63 8.851-1.76 17.873-.852 26.1 2.61l.085.027a.717.717 0 0 1 .17.086l4.199 1.787c1.56.68 3.205 1.191 4.88 1.532l9.105 1.872c.454.095.89.255 1.305.482a5.014 5.014 0 0 1 1.93 1.844c.037.057.075.123.113.199v.028h.028v.029l.596 1.163a6.1 6.1 0 0 1 .54 1.475c.15.567.226 1.135.226 1.702v2.241c0 .54-.199 1.05-.596 1.419-.369.34-.85.539-1.361.539Z" fill="#F0F" style="mix-blend-mode:overlay"/></svg>