<svg width="60" height="36" fill="none" xmlns="http://www.w3.org/2000/svg"><path fill-rule="evenodd" clip-rule="evenodd" d="M55.319 32.745h-2.296a.42.42 0 0 1-.354-.177.503.503 0 0 1 0-.412 4.14 4.14 0 0 0 .59-2.444c-.09-1.207-.649-2.326-1.62-3.062-.736-.56-1.649-.853-2.62-.853a4.204 4.204 0 0 0-3.68 2.207 3.994 3.994 0 0 0-.53 2.002c0 .766.206 1.502.618 2.15a.503.503 0 0 1 0 .412.42.42 0 0 1-.353.177H16.428c-.471 0-.932-.02-1.384-.06l-1.06-.088a.483.483 0 0 1-.323-.206.362.362 0 0 1 .029-.383 4.28 4.28 0 0 0 .47-2.414c-.087-.765-.352-1.472-.794-2.06a4.177 4.177 0 0 0-3.209-1.737c-.707-.03-1.384.088-2.031.412a4.241 4.241 0 0 0-2.415 3.797c0 .432.07.845.207 1.237a.386.386 0 0 1-.089.353c-.088.118-.206.177-.324.148l-3.12-.295A2.654 2.654 0 0 1 0 28.8v-3.591c0-.736.324-1.384.883-1.826.157-.137.295-.284.412-.441.157-.197.265-.403.324-.618l.412-1.237a4.625 4.625 0 0 1 2.12-2.65l.412-.265a30.718 30.718 0 0 1 2.179-1.148l1.236-.56-.441-.676a.437.437 0 0 1 0-.383c.059-.147.176-.206.294-.236l11.894-1.03c1.59-.147 3.18-.177 4.74-.088l1.914.088a33.57 33.57 0 0 1 10.333 2.179l1.796.706c1.443.56 2.886 1.207 4.24 1.973 1.03.56 2.09.942 3.238 1.148l8.038 1.56c.333.079.667.177 1 .295l.972.382c.49.177.952.422 1.384.736.333.236.638.5.912.795.079.079.157.167.236.265.334.412.608.854.824 1.325l.354.795c.176.383.294.854.294 1.295v3.18a1.57 1.57 0 0 1-1.266 1.53l-.913.207c-.824.177-1.678.236-2.502.236Zm-1.649-.766h1.649c.765 0 1.56-.088 2.326-.235l.942-.207c.353-.058.618-.382.618-.765v-3.18a2.22 2.22 0 0 0-.206-.971l-.353-.766a5.175 5.175 0 0 0-.736-1.177 5.27 5.27 0 0 0-.972-.913 4.776 4.776 0 0 0-1.207-.648l-1-.382a4.304 4.304 0 0 0-.855-.265l-8.037-1.531a11.81 11.81 0 0 1-3.444-1.266 34.948 34.948 0 0 0-4.152-1.914l-1.825-.706a32.708 32.708 0 0 0-10.069-2.12l-1.913-.118a41.024 41.024 0 0 0-4.652.088L8.567 15.904l.295.5c.059.09.088.178.059.266a.362.362 0 0 1-.207.324l-1.648.765a28.63 28.63 0 0 0-2.12 1.09l-.383.264c-.853.501-1.501 1.266-1.796 2.209l-.382 1.236a2.434 2.434 0 0 1-.471.854 2.254 2.254 0 0 1-.56.589 1.57 1.57 0 0 0-.56 1.207v3.591c0 .972.707 1.767 1.679 1.855l2.561.265a4.645 4.645 0 0 1-.088-.913c0-1.913 1.119-3.68 2.856-4.533.765-.354 1.56-.5 2.414-.471a4.96 4.96 0 0 1 3.768 2.06c.53.707.883 1.56.942 2.444a4.89 4.89 0 0 1-.324 2.355l.501.06c.432.038.873.058 1.325.058h27.998a5.01 5.01 0 0 1-.383-1.973c0-.824.206-1.648.589-2.384a4.997 4.997 0 0 1 4.387-2.62h.03a5.01 5.01 0 0 1 3.09 1.03 5.05 5.05 0 0 1 1.914 3.65c.059.796-.088 1.561-.383 2.297Z" fill="#00082B"/><path d="M59.617 30.801h-.353c-.47 0-.942-.176-1.325-.5a2.058 2.058 0 0 1-.56-.854l-.823-2.443h2.738c.176 0 .324.117.324.294v3.503Z" fill="#FFCF0D"/><path fill-rule="evenodd" clip-rule="evenodd" d="M59.618 31.066h-.353c-.56 0-1.09-.206-1.502-.588-.294-.236-.5-.59-.618-.943l-.824-2.443c-.03-.088-.03-.177.029-.236.03-.088.118-.117.206-.117h2.738c.324 0 .56.235.56.559v3.503c0 .148-.118.265-.236.265Zm-2.709-3.797.707 2.09c.118.294.294.53.5.736.324.294.736.441 1.149.441h.088v-3.238c0-.03-.03-.03-.059-.03H56.91Z" fill="#00082B"/><path d="M59.087 30.271a1.67 1.67 0 0 1-.795-.382 1.524 1.524 0 0 1-.412-.619l-.589-1.736h1.796v2.738Z" fill="#fff" style="mix-blend-mode:overlay" opacity=".3"/><path d="M14.573 30.006a4.53 4.53 0 0 1-.559 2.18 4.548 4.548 0 0 1-4.063 2.443c-2.09 0-3.827-1.384-4.416-3.268a4.611 4.611 0 0 1 4.416-5.976 4.611 4.611 0 0 1 4.622 4.622Z" fill="#353D4A"/><path fill-rule="evenodd" clip-rule="evenodd" d="M9.951 35.011a4.99 4.99 0 0 1-4.799-3.533 5.23 5.23 0 0 1-.206-1.472 5 5 0 0 1 5.005-5.004 5 5 0 0 1 5.005 5.005 5.19 5.19 0 0 1-.589 2.384 5.009 5.009 0 0 1-4.416 2.62Zm0-9.215a4.21 4.21 0 0 0-4.21 4.21c0 .432.06.845.177 1.237a4.259 4.259 0 0 0 4.033 3.003c1.56 0 2.974-.854 3.74-2.238a4.3 4.3 0 0 0 .5-2.002c0-2.325-1.914-4.21-4.24-4.21Z" fill="#00082B"/><path d="M11.806 31.98c-.471.47-1.119.735-1.855.735a2.68 2.68 0 0 1-2.208-1.148 2.599 2.599 0 0 1-.5-1.56 2.701 2.701 0 0 1 2.708-2.709 2.701 2.701 0 0 1 2.709 2.709c0 .765-.324 1.472-.854 1.972Z" fill="#CBD7E3"/><path fill-rule="evenodd" clip-rule="evenodd" d="M9.951 32.98a2.984 2.984 0 0 1-2.414-1.236c-.383-.501-.56-1.12-.56-1.738a2.965 2.965 0 0 1 2.974-2.973 2.965 2.965 0 0 1 2.974 2.973c0 .825-.324 1.62-.913 2.18a3.11 3.11 0 0 1-2.06.794Zm0-5.417a2.438 2.438 0 0 0-2.444 2.444c0 .53.148 1 .442 1.413a2.47 2.47 0 0 0 2.002 1.03 2.49 2.49 0 0 0 1.678-.648c.5-.47.766-1.118.766-1.796a2.438 2.438 0 0 0-2.444-2.443Z" fill="#00082B"/><path d="M16.192 30.537a.264.264 0 0 1-.264-.265 6.056 6.056 0 0 0-6.065-6.065 6.082 6.082 0 0 0-5.947 4.887c-.03.147-.147.235-.295.206-.147-.03-.235-.147-.206-.294.59-3.092 3.327-5.33 6.448-5.33 3.65 0 6.595 2.974 6.595 6.596a.264.264 0 0 1-.265.265Z" fill="#00082B"/><path d="M53.67 30.006a4.56 4.56 0 0 1-.647 2.356 4.625 4.625 0 0 1-3.975 2.267c-1.678 0-3.15-.913-3.974-2.267a4.56 4.56 0 0 1-.648-2.356 4.611 4.611 0 0 1 4.622-4.622 4.611 4.611 0 0 1 4.623 4.622Z" fill="#353D4A"/><path fill-rule="evenodd" clip-rule="evenodd" d="M49.048 35.011a5.005 5.005 0 0 1-4.298-2.443 4.863 4.863 0 0 1-.707-2.561 5 5 0 0 1 5.005-5.005 5 5 0 0 1 5.005 5.005 4.86 4.86 0 0 1-.707 2.56 5.005 5.005 0 0 1-4.298 2.444Zm0-9.215c-2.326 0-4.24 1.885-4.24 4.21 0 .766.206 1.502.619 2.15.736 1.295 2.149 2.09 3.62 2.09 1.473 0 2.886-.795 3.622-2.09.412-.648.589-1.384.589-2.15a4.21 4.21 0 0 0-4.21-4.21Z" fill="#00082B"/><path d="M50.403 32.362a2.656 2.656 0 0 1-1.355.353c-.5 0-.942-.118-1.354-.353a2.697 2.697 0 0 1-1.354-2.356 2.701 2.701 0 0 1 2.708-2.708 2.701 2.701 0 0 1 2.709 2.709c0 1-.53 1.884-1.354 2.355Z" fill="#CBD7E3"/><path fill-rule="evenodd" clip-rule="evenodd" d="M49.049 32.98c-.53 0-1.03-.118-1.472-.383a2.968 2.968 0 0 1-1.502-2.59 2.965 2.965 0 0 1 2.974-2.974 2.965 2.965 0 0 1 2.973 2.973 2.97 2.97 0 0 1-1.501 2.591c-.442.265-.942.383-1.472.383Zm0-5.417a2.438 2.438 0 0 0-2.444 2.444c0 .883.471 1.707 1.237 2.12a2.365 2.365 0 0 0 2.414 0c.765-.413 1.236-1.237 1.236-2.12a2.437 2.437 0 0 0-2.443-2.444Z" fill="#00082B"/><path d="M57.998 24.177c-1.766.825-3.827 1.56-6.094 2.179-2.12.589-4.445 1.06-6.918 1.472-4.328.677-9.127 1.06-14.19 1.06-6.242 0-12.071-.589-17.106-1.59a51.912 51.912 0 0 1-5.711-1.472c-2.473-.765-4.622-1.649-6.36-2.65a2.03 2.03 0 0 0 .383-.736l.383-1.236c.324-1.03 1.03-1.884 1.973-2.444l.412-.235a24.847 24.847 0 0 1 2.149-1.148l1.62-.736v-.03l-.648-1.06 11.864-1.03c1.57-.138 3.14-.167 4.71-.089l1.914.089c3.474.206 6.919.912 10.187 2.178l1.795.677a35.78 35.78 0 0 1 4.21 1.973c1.031.56 2.18.972 3.327 1.207l8.067 1.531c.314.079.618.167.913.265l.971.383c.471.176.903.412 1.296.706.314.216.598.462.853.736Z" fill="#fff" style="mix-blend-mode:overlay" opacity=".3"/><path d="M42.778 31.066c-.148 0-.265-.117-.265-.235a5.23 5.23 0 0 1-.06-.795c0-3.562 2.915-6.448 6.478-6.448.147 0 .265.118.265.236a.264.264 0 0 1-.265.265c-3.268 0-5.947 2.679-5.947 5.947 0 .235.02.48.058.736a.287.287 0 0 1-.235.294h-.03Z" fill="#00082B"/><path d="M3.327 22.293H2.061l.147-.471c.02-.078.04-.147.06-.206.588-1.472 2.237-2.208 3.768-1.767l1.854.53-1.796 1.12c-.824.5-1.766.794-2.767.794Z" fill="#FF4D4D"/><path fill-rule="evenodd" clip-rule="evenodd" d="M3.327 22.529H2.061a.267.267 0 0 1-.206-.089c-.059-.059-.059-.147-.03-.235l.118-.471a1.15 1.15 0 0 0 .089-.236c.618-1.53 2.414-2.385 4.062-1.914l1.855.53c.088.03.177.118.177.236.03.088-.03.206-.118.265l-1.766 1.09a5.397 5.397 0 0 1-2.915.824Zm-.913-.5h.913c.942 0 1.855-.266 2.65-.766l1.266-.795-1.296-.354c-1.413-.412-2.914.295-3.415 1.59a.653.653 0 0 0-.088.206l-.03.118Z" fill="#00082B"/><path d="m2.974 21.793.03-.089a1 1 0 0 1 .058-.147c.294-.824 1.09-1.354 2.002-1.354.216.02.422.049.618.088l1.001.294-.971.619a3.876 3.876 0 0 1-2.032.589h-.706Z" fill="#fff" style="mix-blend-mode:overlay" opacity=".3"/><path d="M59.176 26.061h-1.913a.56.56 0 0 1-.383-.147 4.656 4.656 0 0 0-1.413-.971l-3.327-1.678h2.385c.677 0 1.325.088 1.943.323l1.148.413c.236.088.442.235.618.441.314.373.57.785.766 1.237l.176.383Z" fill="#FFCF0D"/><path fill-rule="evenodd" clip-rule="evenodd" d="M59.176 26.326h-1.914a.804.804 0 0 1-.559-.235 6.8 6.8 0 0 0-1.325-.942l-3.356-1.678c-.118-.03-.177-.148-.147-.295.03-.117.117-.176.265-.176h2.384a5.89 5.89 0 0 1 2.032.353l1.148.412c.294.088.53.265.736.5.314.413.579.845.795 1.296l.176.412c.03.06.03.147 0 .236a.268.268 0 0 1-.235.117ZM53.229 23.5l2.355 1.207a5.42 5.42 0 0 1 1.472 1.001.282.282 0 0 0 .206.089h1.502a5.84 5.84 0 0 0-.736-1.207 1.057 1.057 0 0 0-.5-.324l-1.149-.442a5.51 5.51 0 0 0-1.855-.324H53.23Z" fill="#00082B"/><path d="M57.262 25.532h-.03a5.929 5.929 0 0 0-1.53-1.06l-1.354-.707h.176a4.94 4.94 0 0 1 1.767.324l1.148.412a.896.896 0 0 1 .383.265c.196.236.372.49.53.766h-1.09Z" fill="#fff" style="mix-blend-mode:overlay" opacity=".3"/><path d="m42.778 31.066-26.585-.53a.264.264 0 0 1-.265-.265c0-.147.117-.265.265-.265l26.585.53c.147 0 .264.118.264.265a.264.264 0 0 1-.264.265Z" fill="#00082B"/><path d="M42.777 22.234c0 .206-.177.383-.412.383h-.03l-17.134-1.502a42.787 42.787 0 0 1-10.363-2.208l-2.208-.765 5.123-.736 6.241-.913a18.759 18.759 0 0 1 2.767-.206c1.708 0 3.416.236 5.064.677l1.296.354c1.56.412 3.061 1 4.445 1.795l.677.383 4.328 2.385c.118.088.206.206.206.353Z" fill="#2196FF"/><path fill-rule="evenodd" clip-rule="evenodd" d="M42.365 22.882h-.03L25.173 21.38a41.934 41.934 0 0 1-10.422-2.237l-2.208-.765c-.118-.03-.177-.148-.177-.265.03-.118.118-.236.236-.236l11.364-1.649a21.944 21.944 0 0 1 2.797-.176c1.737 0 3.474.206 5.122.647l1.325.354c1.56.441 3.091 1.03 4.505 1.825l4.975 2.767a.707.707 0 0 1 .353.59.66.66 0 0 1-.677.647ZM13.75 18.23l1.178.412A40.765 40.765 0 0 0 25.2 20.851l17.164 1.501c.089 0 .147-.059.147-.118s-.029-.098-.088-.118L37.45 19.35a19.644 19.644 0 0 0-4.387-1.796l-1.295-.324a19.168 19.168 0 0 0-5.005-.677c-.913 0-1.826.088-2.738.206L13.749 18.23Z" fill="#00082B"/><path d="M22.375 21.057a.264.264 0 0 1-.265-.265v-4.063c0-.147.118-.265.265-.265.148 0 .265.118.265.265v4.063a.264.264 0 0 1-.265.265Z" fill="#00082B"/><path d="M38.244 19.496a59.54 59.54 0 0 1-5.211.236c-5.83 0-11.158-.883-15.28-2.326l6.241-.913a18.761 18.761 0 0 1 2.768-.206c1.707 0 3.415.236 5.064.677l1.295.354c1.56.412 3.062 1 4.445 1.795l.678.383Z" fill="#fff" style="mix-blend-mode:overlay" opacity=".3"/></svg>