<svg width="60" height="36" fill="none" xmlns="http://www.w3.org/2000/svg"><path fill-rule="evenodd" clip-rule="evenodd" d="M16.428 32.745h28.43a5.01 5.01 0 0 0 4.19 2.266 5.01 5.01 0 0 0 4.189-2.267h2.082c.824 0 1.678-.058 2.502-.235l.913-.206A1.572 1.572 0 0 0 60 30.772v-3.18a3.21 3.21 0 0 0-.294-1.295l-.354-.795a6.214 6.214 0 0 0-.824-1.325 3.201 3.201 0 0 0-.236-.265 5.887 5.887 0 0 0-.912-.795 5.524 5.524 0 0 0-1.384-.736L55.025 22a9.657 9.657 0 0 0-1.002-.295l-8.037-1.56a10.64 10.64 0 0 1-3.238-1.148c-1.354-.766-2.797-1.413-4.24-1.973l-1.796-.706a33.567 33.567 0 0 0-10.333-2.179l-1.914-.088a31.934 31.934 0 0 0-4.74.088l-11.894 1.03c-.118.03-.235.089-.294.236a.437.437 0 0 0 0 .383l.441.677-1.236.56a30.36 30.36 0 0 0-2.179 1.147l-.412.265a4.625 4.625 0 0 0-2.12 2.65l-.412 1.237a1.706 1.706 0 0 1-.324.618 2.894 2.894 0 0 1-.412.441A2.288 2.288 0 0 0 0 25.208v3.591a2.654 2.654 0 0 0 2.385 2.65l3.12.294c.055.014.11.009.163-.013.689 1.693 2.332 2.899 4.283 2.899 1.623 0 3.047-.82 3.861-2.094a.53.53 0 0 0 .172.062l1.06.089c.452.039.913.059 1.384.059Z" fill="#F0F"/></svg>