<svg width="60" height="35" fill="none" xmlns="http://www.w3.org/2000/svg"><path fill-rule="evenodd" clip-rule="evenodd" d="M58.275 29.993H54.41v-.361a4.342 4.342 0 0 0-4.367-4.367c-.723 0-1.418.167-2.058.528-1.419.751-2.28 2.226-2.28 3.839v.361h-27.37v-.361a4.21 4.21 0 0 0-.835-2.56 4.337 4.337 0 0 0-3.532-1.807 4.337 4.337 0 0 0-2.949 1.168A4.337 4.337 0 0 0 9.6 29.632v.361H1.784A1.52 1.52 0 0 1 .282 28.77l-.25-1.197c-.084-.333 0-.695.222-.973.25-.306.584-.445.946-.445.037 0 .074-.019.111-.056 0-.027.028-.055.028-.11v-5.453c0-.185.028-.361.083-.528.223-.723.89-1.252 1.641-1.28l7.677-.361c.807-.056 1.586-.278 2.253-.695l3.867-2.393A8.368 8.368 0 0 1 21.31 14h8.984c6.37 0 11.181 2.754 14.046 4.367.835.473 1.474.862 1.975 1.057 1.252.5 2.587.834 3.922.973l5.646.585a5.42 5.42 0 0 1 1.085.278 4.814 4.814 0 0 1 1.836 1.335c.315.37.566.779.75 1.224l.112.278c.149.352.241.704.278 1.057.037.24.056.473.056.695v2.42c0 .946-.751 1.724-1.725 1.724Zm-3.115-.75h3.115c.557 0 1.002-.418 1.002-.974v-2.42c0-.185-.019-.38-.056-.584a3.208 3.208 0 0 0-.25-.89l-.111-.278a3.875 3.875 0 0 0-.612-1.03c-.418-.5-.974-.89-1.558-1.112a5.333 5.333 0 0 0-.89-.25l-5.646-.584a14.858 14.858 0 0 1-4.117-1.002c-.529-.222-1.224-.612-2.058-1.085-2.81-1.613-7.51-4.283-13.685-4.283H21.31a7.72 7.72 0 0 0-4.061 1.14l-3.866 2.42a5.305 5.305 0 0 1-2.587.78l-7.677.389a.986.986 0 0 0-.973.75.817.817 0 0 0-.056.306v5.452c0 .25-.083.473-.25.64a.928.928 0 0 1-.64.25.552.552 0 0 0-.362.167.483.483 0 0 0-.083.39l.25 1.168c.084.39.39.64.78.64h7.092c.111-1.28.695-2.504 1.64-3.366a5.002 5.002 0 0 1 3.45-1.363c1.64 0 3.17.806 4.144 2.114a4.99 4.99 0 0 1 .946 2.614h25.895a5.137 5.137 0 0 1 2.698-4.116 5.096 5.096 0 0 1 2.976-.584c2.476.278 4.34 2.28 4.534 4.7Z" fill="#00082B"/><path d="M59.583 25.21H58.36a1.11 1.11 0 0 1-1.112-.946l-.417-2.67a4.336 4.336 0 0 1 2.392 2.364l.11.278c.13.315.214.64.251.973Z" fill="#FFCF0D"/><path fill-rule="evenodd" clip-rule="evenodd" d="M59.889 25.46h-1.53a1.4 1.4 0 0 1-1.363-1.169l-.5-3.087.417.167a4.564 4.564 0 0 1 2.531 2.503l.111.278c.13.334.223.677.278 1.03l.056.278Zm-2.726-3.45.334 2.198a.896.896 0 0 0 .89.751h.918a7.745 7.745 0 0 0-.195-.612l-.11-.306a4.21 4.21 0 0 0-1.836-2.03Z" fill="#00082B"/><path d="m3.48 20.675-1.75 3.534v-3.672c0-.148.018-.287.055-.417H3.12c.278 0 .473.278.362.556Z" fill="#FF4D4D"/><path fill-rule="evenodd" clip-rule="evenodd" d="M1.478 25.265v-4.729c0-.167.019-.333.056-.5l.055-.167h1.53c.223 0 .417.111.529.306.139.167.139.39.027.612l-2.197 4.478Zm.529-4.895a.524.524 0 0 0-.028.166v2.587l1.28-2.559c.027-.083.027-.111 0-.139 0-.028-.056-.055-.112-.055h-1.14Z" fill="#00082B"/><path d="M54.799 29.632c0 2.614-2.142 4.728-4.729 4.728-2.614 0-4.756-2.114-4.756-4.728a4.772 4.772 0 0 1 4.756-4.757c2.587 0 4.729 2.142 4.729 4.757Z" fill="#353D4A"/><path fill-rule="evenodd" clip-rule="evenodd" d="M50.07 34.722c-2.837 0-5.117-2.28-5.117-5.09s2.28-5.118 5.117-5.118c2.81 0 5.09 2.309 5.09 5.118 0 2.81-2.28 5.09-5.09 5.09Zm0-9.457a4.357 4.357 0 0 0-4.366 4.367 4.374 4.374 0 0 0 4.367 4.367c2.392 0 4.339-1.975 4.339-4.367 0-2.42-1.947-4.367-4.34-4.367Z" fill="#00082B"/><path fill-rule="evenodd" clip-rule="evenodd" d="M50.07 32.525a2.89 2.89 0 0 1-2.892-2.893 2.89 2.89 0 0 1 2.892-2.893c1.586 0 2.865 1.307 2.865 2.893 0 1.585-1.28 2.893-2.865 2.893Zm0-5.285a2.374 2.374 0 0 0-2.392 2.392 2.392 2.392 0 0 0 2.392 2.392c1.308 0 2.365-1.085 2.365-2.392a2.368 2.368 0 0 0-2.365-2.392Z" fill="#00082B"/><path d="M52.685 29.632c0 1.446-1.168 2.642-2.614 2.642a2.641 2.641 0 0 1-2.643-2.642 2.624 2.624 0 0 1 2.643-2.643 2.618 2.618 0 0 1 2.614 2.643Z" fill="#CBD7E3"/><path fill-rule="evenodd" clip-rule="evenodd" d="M50.07 32.525a2.89 2.89 0 0 1-2.892-2.893 2.89 2.89 0 0 1 2.892-2.893c1.586 0 2.865 1.307 2.865 2.893 0 1.585-1.28 2.893-2.865 2.893Zm0-5.285a2.374 2.374 0 0 0-2.392 2.392 2.392 2.392 0 0 0 2.392 2.392c1.308 0 2.365-1.085 2.365-2.392a2.368 2.368 0 0 0-2.365-2.392Z" fill="#00082B"/><path d="M18.695 29.632a4.725 4.725 0 0 1-4.728 4.728 4.725 4.725 0 0 1-4.729-4.728c0-2.615 2.114-4.757 4.729-4.757 2.614 0 4.728 2.142 4.728 4.757Z" fill="#353D4A"/><path fill-rule="evenodd" clip-rule="evenodd" d="M13.967 34.722c-2.81 0-5.09-2.28-5.09-5.09s2.28-5.118 5.09-5.118a5.122 5.122 0 0 1 5.118 5.118c0 2.81-2.28 5.09-5.118 5.09Zm0-9.457A4.374 4.374 0 0 0 9.6 29.632c0 2.392 1.975 4.367 4.367 4.367a4.374 4.374 0 0 0 4.367-4.367 4.357 4.357 0 0 0-4.367-4.367Z" fill="#00082B"/><path fill-rule="evenodd" clip-rule="evenodd" d="M13.967 32.525c-1.585 0-2.865-1.308-2.865-2.893 0-1.586 1.28-2.893 2.865-2.893a2.89 2.89 0 0 1 2.893 2.893 2.89 2.89 0 0 1-2.893 2.893Zm0-5.285a2.392 2.392 0 0 0-2.392 2.392 2.41 2.41 0 0 0 2.392 2.392 2.392 2.392 0 0 0 2.392-2.392 2.374 2.374 0 0 0-2.392-2.392Z" fill="#00082B"/><path d="M16.609 29.632a2.641 2.641 0 0 1-2.642 2.642 2.66 2.66 0 0 1-2.643-2.642 2.641 2.641 0 0 1 2.643-2.643 2.624 2.624 0 0 1 2.642 2.643Z" fill="#CBD7E3"/><path fill-rule="evenodd" clip-rule="evenodd" d="M13.967 32.525c-1.585 0-2.865-1.308-2.865-2.893 0-1.586 1.28-2.893 2.865-2.893a2.89 2.89 0 0 1 2.893 2.893 2.89 2.89 0 0 1-2.893 2.893Zm0-5.285a2.392 2.392 0 0 0-2.392 2.392 2.41 2.41 0 0 0 2.392 2.392 2.392 2.392 0 0 0 2.392-2.392 2.374 2.374 0 0 0-2.392-2.392Z" fill="#00082B"/><path d="M28.403 16.336v3.477a.777.777 0 0 1-.78.779h-5.562a.783.783 0 0 1-.668-.361c-.11-.167-.11-.39-.055-.585l.139-.584.5-1.919.112-.445c.222-.668.361-1.168.75-1.168l4.785.028c.417 0 .779.333.779.778Z" fill="#CBD7E3"/><path fill-rule="evenodd" clip-rule="evenodd" d="M27.624 20.842H22.06c-.362 0-.695-.194-.89-.5a1.138 1.138 0 0 1-.084-.751l.64-2.504c.037-.148.084-.296.14-.445l.027-.083c.195-.695.39-1.28.946-1.28l4.784.028c.556 0 1.001.473 1.001 1.03v3.476c0 .584-.445 1.03-1.001 1.03ZM22.84 15.78c-.195 0-.334.417-.473.918l-.028.084c-.056.13-.102.278-.139.445l-.64 2.503c-.028.139-.027.25.056.361.083.167.25.25.445.25h5.563a.528.528 0 0 0 .528-.528v-3.477a.528.528 0 0 0-.528-.528l-4.784-.028Z" fill="#00082B"/><path d="M42.644 20.592H30.795a.736.736 0 0 1-.723-.723v-3.56c0-.14.055-.25.167-.362.25-.278.64-.39 1.001-.306 1.558.278 4.144.445 8.539 2.476a35.54 35.54 0 0 1 3.227 1.64c.306.307.083.835-.362.835Z" fill="#CBD7E3"/><path fill-rule="evenodd" clip-rule="evenodd" d="M42.644 20.842h-11.85a.985.985 0 0 1-.973-.973v-3.56c0-.186.074-.362.223-.529a1.385 1.385 0 0 1 1.251-.39c.204.038.436.075.696.112 1.613.25 4.089.64 7.9 2.392a44.642 44.642 0 0 1 3.253 1.641l.056.056c.195.194.25.528.14.806-.112.279-.39.445-.696.445Zm-11.599-4.978a.881.881 0 0 0-.64.25c-.055.083-.083.139-.083.195v3.56c0 .25.223.473.473.473h11.849c.167 0 .222-.111.25-.14 0-.055.028-.166-.028-.25a42.768 42.768 0 0 0-3.17-1.613c-3.783-1.724-6.175-2.114-7.789-2.336-.26-.037-.491-.075-.695-.112a.526.526 0 0 0-.167-.027Z" fill="#00082B"/><path d="M58.359 25.46h-2.336c-.668 0-1.28-.25-1.753-.696l-.723-.667a2.07 2.07 0 0 0-1.418-.557h-5.313a2.02 2.02 0 0 0-1.446.612 2.66 2.66 0 0 1-1.836.751h-23.56c-.89 0-1.724-.333-2.363-.918l-.223-.222a3.035 3.035 0 0 0-2.03-.779h-4.812c-.807 0-1.558.334-2.142.89-.64.668-1.53 1.03-2.476 1.03h-4.2v-.501h4.2c.807 0 1.558-.306 2.142-.89a3.54 3.54 0 0 1 2.476-1.002h4.812c.862 0 1.696.306 2.364.89l.222.223c.557.5 1.28.779 2.03.779h23.56c.556 0 1.085-.223 1.474-.612a2.594 2.594 0 0 1 1.808-.751h5.313c.64 0 1.279.25 1.752.695l.723.668c.39.361.89.556 1.419.556h2.336v.5Z" fill="#00082B"/><path d="M18.612 17.254v2.42c0 .25-.195.473-.445.473H15.33a.439.439 0 0 1-.362-.695c.167-.278.362-.529.584-.751a7.83 7.83 0 0 1 2.392-1.864c.306-.139.668.084.668.417Z" fill="#CBD7E3"/><path fill-rule="evenodd" clip-rule="evenodd" d="M18.167 20.397H15.33a.706.706 0 0 1-.584-1.084c.185-.278.39-.538.612-.78a7.918 7.918 0 0 1 2.475-1.918.692.692 0 0 1 .696.055c.222.111.334.334.334.584v2.42c0 .39-.306.723-.696.723Zm0-3.337h-.111a7.766 7.766 0 0 0-2.337 1.808 5.292 5.292 0 0 0-.556.723.247.247 0 0 0-.028.111c0 .083.056.195.195.195h2.837a.24.24 0 0 0 .223-.223v-2.42c0-.11-.084-.167-.111-.167-.028-.027-.056-.027-.112-.027Z" fill="#00082B"/><path d="M18.612 17.254v1.67a79.045 79.045 0 0 1-3.06-.223 7.832 7.832 0 0 1 2.393-1.864c.306-.139.667.084.667.417Zm9.79-.918v2.754c-1.038.019-2.086.028-3.143.028-1.28 0-2.54-.019-3.782-.056l.5-1.919.111-.445c.223-.668.362-1.168.751-1.168l4.785.028c.417 0 .778.333.778.778Zm11.377 1.781c-2.948.445-6.23.75-9.707.918v-2.726a.49.49 0 0 1 .167-.362c.25-.278.64-.39 1.001-.306 1.558.278 4.144.445 8.539 2.476Z" fill="#fff" style="mix-blend-mode:overlay" opacity=".3"/><path d="M58.526 22.817c-2.392.807-5.062 1.502-7.927 2.114-.909.186-1.836.362-2.782.529-6.23 1.084-13.295 1.696-20.805 1.696-3.143 0-6.23-.11-9.207-.306a114.404 114.404 0 0 1-7.037-.695 94.516 94.516 0 0 1-9.04-1.613v-4.006a1.429 1.429 0 0 1 1.363-1.446l7.677-.361a4.948 4.948 0 0 0 2.42-.752l3.866-2.392a8.194 8.194 0 0 1 4.256-1.196h8.984c8.094 0 13.63 4.479 15.882 5.369 1.28.528 2.642.862 4.033 1.001l5.619.584c.352.056.686.14 1.001.25.64.279 1.252.696 1.697 1.224Z" fill="#fff" style="mix-blend-mode:overlay" opacity=".3"/></svg>