<svg width="60" height="36" fill="none" xmlns="http://www.w3.org/2000/svg"><path fill-rule="evenodd" clip-rule="evenodd" d="M57.098 31.862h-2.134a.393.393 0 0 1-.313-.17c-.056-.114-.085-.257-.028-.37a5.24 5.24 0 0 0 .484-2.191 5.31 5.31 0 0 0-4.922-5.292 2.807 2.807 0 0 0-.398-.028c-.768 0-1.537.17-2.22.483-1.877.882-3.1 2.76-3.1 4.837 0 .768.17 1.508.483 2.19a.35.35 0 0 1-.028.37c-.057.114-.17.171-.313.171H18.577l-.71-.057c-.114 0-.228-.085-.285-.199-.057-.085-.057-.228-.029-.341a5.05 5.05 0 0 0 .456-2.134c0-1.593-.712-3.073-1.935-4.097a5.21 5.21 0 0 0-3.386-1.223 5.47 5.47 0 0 0-2.219.483 5.33 5.33 0 0 0-3.1 4.837c0 .303.028.607.085.91.028.114-.029.256-.114.342-.085.085-.2.114-.313.085L2.475 29.7a2.592 2.592 0 0 1-1.65-1.11l-.427-.683A2.455 2.455 0 0 1 0 26.57v-.313c0-.71.313-1.394.853-1.877a.758.758 0 0 1 .2-.142 12.021 12.021 0 0 1 0-2.362v-.142c.094-.967.294-1.897.597-2.788a10.889 10.889 0 0 1 4.04-5.32A3.585 3.585 0 0 1 7.68 13h20.484c2.134 0 4.296.2 6.43.569a8.32 8.32 0 0 1 1.65.512 7.15 7.15 0 0 1 1.479.854l3.243 2.446a7.773 7.773 0 0 0 3.386 1.423l11.095 1.707c.417.076.816.208 1.195.398a4.5 4.5 0 0 1 .654.484c.342.284.598.625.825.995.133.266.237.54.313.825l.484 1.906A2.902 2.902 0 0 1 60 27.367v.768c0 .436-.085.844-.256 1.223l-.54 1.167a2.348 2.348 0 0 1-2.106 1.337Zm-1.565-.768h1.565c.598 0 1.167-.341 1.394-.882l.54-1.166c.134-.285.21-.588.228-.91v-.769c0-.654-.341-1.309-.853-1.707l-.057-.028a.27.27 0 0 1-.114-.228l-.54-1.991a2.758 2.758 0 0 0-.256-.655 3.232 3.232 0 0 0-.626-.796 2.49 2.49 0 0 0-.54-.37 2.954 2.954 0 0 0-.94-.342L44.24 19.543a8.054 8.054 0 0 1-3.727-1.564L37.27 15.56a6.386 6.386 0 0 0-1.337-.797 6.678 6.678 0 0 0-1.48-.455 35.85 35.85 0 0 0-6.287-.54H7.681c-.569 0-1.11.17-1.564.483a10.162 10.162 0 0 0-3.756 4.95 11.326 11.326 0 0 0-.54 2.589c0 .057 0 .085-.029.142a13.72 13.72 0 0 0-.028 1.11c0 .483.028.91.057 1.337a.326.326 0 0 1-.2.37c-.094.056-.18.123-.255.199a1.674 1.674 0 0 0-.598 1.308v.313c0 .342.085.655.256.94l.455.682c.256.398.655.654 1.138.74l4.012.711v-.512a6.12 6.12 0 0 1 3.527-5.52 5.984 5.984 0 0 1 2.532-.568c1.423 0 2.788.512 3.87 1.422 1.422 1.138 2.219 2.845 2.219 4.666a5.7 5.7 0 0 1-.342 1.963H44.04a6.164 6.164 0 0 1-.313-1.963 6.072 6.072 0 0 1 3.528-5.52 5.985 5.985 0 0 1 2.532-.568c.17 0 .322.01.455.028a6.084 6.084 0 0 1 5.633 6.06 5.7 5.7 0 0 1-.342 1.963Z" fill="#00082B"/><path d="M3.243 19.657a11.465 11.465 0 0 0-.37 5.007H1.11c.095-.076.2-.142.313-.199a9.894 9.894 0 0 1-.085-1.28c0-.398.019-.797.057-1.195a9.94 9.94 0 0 1 .54-2.418h1.338l-.029.085Z" fill="#FF4D4D"/><path fill-rule="evenodd" clip-rule="evenodd" d="M2.873 24.92H1.11a.299.299 0 0 1-.256-.142c-.028-.114 0-.227.086-.284.057-.057.123-.114.199-.171a23.956 23.956 0 0 1 0-2.333 10.62 10.62 0 0 1 .54-2.503c.029-.114.143-.171.257-.171h1.337c.085 0 .17.028.199.085.057.085.085.17.057.228l-.029.085c-.483 1.622-.626 3.272-.398 4.922.028.085 0 .142-.057.199-.028.057-.114.085-.17.085Zm-1.223-.512h.91a11.842 11.842 0 0 1 .37-4.58h-.825c-.227.702-.38 1.432-.455 2.19-.038.38-.057.769-.057 1.167 0 .427.029.825.057 1.223Z" fill="#00082B"/><path d="M40.512 19.686c0 .54-.427.967-.939.967H20.228c-.683 0-1.338-.341-1.793-.882a2.322 2.322 0 0 1-.483-1.422c0-.342.057-.683.227-.996l.057-.114.455-.825a3.613 3.613 0 0 1 3.158-1.85h7.682c1.233 0 2.456.096 3.67.285l.256.029a8.574 8.574 0 0 1 3.869 1.65c.133.095.256.199.37.313l2.503 2.105c.2.2.313.455.313.74Z" fill="#2196FF"/><path fill-rule="evenodd" clip-rule="evenodd" d="M39.573 20.88H20.228a2.566 2.566 0 0 1-1.992-.938 2.69 2.69 0 0 1-.54-1.593c0-.399.085-.769.256-1.11l.057-.114.455-.825a3.866 3.866 0 0 1 3.386-1.991h7.68c1.253 0 2.504.085 3.7.284l.284.029a9.044 9.044 0 0 1 3.983 1.706c.133.095.256.2.37.314l2.475 2.133c.284.228.426.57.426.91 0 .655-.54 1.196-1.195 1.196ZM21.85 14.793a3.4 3.4 0 0 0-2.958 1.764l-.455.797a.252.252 0 0 0-.029.113c-.133.266-.2.56-.2.883 0 .455.143.91.428 1.28.398.483.967.768 1.593.768h19.345c.37 0 .683-.313.683-.711 0-.2-.085-.399-.227-.541l-2.475-2.134a6.223 6.223 0 0 1-.37-.284c-1.11-.825-2.39-1.394-3.756-1.593l-.256-.057a25.827 25.827 0 0 0-3.641-.285H21.85Z" fill="#00082B"/><path d="M58.634 25.375h-1.621l-.94-4.295c.57.313 1.395.938 1.708 1.507.114.228.208.465.284.712l.54 2.02c0 .018.01.038.03.056Z" fill="#FFCF0D"/><path fill-rule="evenodd" clip-rule="evenodd" d="M58.635 25.603h-1.622c-.114 0-.228-.057-.256-.199l-.91-4.267c-.029-.114 0-.2.085-.256.085-.057.2-.086.284-.029.512.285 1.451.967 1.793 1.593.133.266.237.531.313.797l.512 1.934c.057.086.085.171.028.256-.028.114-.114.171-.227.171Zm-1.423-.484h1.053l-.455-1.763a3.575 3.575 0 0 0-.256-.655c-.2-.341-.626-.768-1.082-1.08l.74 3.498Z" fill="#00082B"/><path d="M27.425 20.909c-.018 0-.028-.01-.028-.028-.142 0-.228-.114-.228-.256l.57-6.089c.028-.142.142-.256.284-.227.142 0 .227.114.227.256l-.569 6.088c-.028.142-.142.256-.256.256Z" fill="#00082B"/><path d="M18.378 29.13c0 .826-.17 1.594-.483 2.305a5.685 5.685 0 0 1-5.207 3.386 5.688 5.688 0 0 1-5.604-4.723 5.688 5.688 0 0 1 5.604-6.657 5.67 5.67 0 0 1 5.69 5.69Z" fill="#353D4A"/><path fill-rule="evenodd" clip-rule="evenodd" d="M12.689 35.19a6.048 6.048 0 0 1-5.975-5.006 6.746 6.746 0 0 1-.085-1.053c0-3.357 2.703-6.088 6.06-6.088a6.095 6.095 0 0 1 5.576 8.535 6.124 6.124 0 0 1-5.576 3.613Zm0-11.38a5.33 5.33 0 0 0-5.32 5.32c0 .304.028.608.085.911a5.311 5.311 0 0 0 5.235 4.41 5.325 5.325 0 0 0 4.864-3.186 5.051 5.051 0 0 0 .456-2.134 5.33 5.33 0 0 0-5.32-5.32Z" fill="#00082B"/><path fill-rule="evenodd" clip-rule="evenodd" d="M12.688 33a3.898 3.898 0 0 1-3.584-2.447v-.028a3.94 3.94 0 0 1-.256-1.394c0-2.134 1.707-3.87 3.84-3.87a3.873 3.873 0 0 1 3.87 3.87c0 .768-.228 1.536-.683 2.162A3.864 3.864 0 0 1 12.688 33Zm-3.357-2.589v.028c.54 1.366 1.878 2.305 3.357 2.305a3.622 3.622 0 0 0 2.987-1.593c.399-.598.627-1.28.627-2.02a3.618 3.618 0 0 0-3.614-3.613 3.618 3.618 0 0 0-3.613 3.613c0 .436.086.863.256 1.28Z" fill="#00082B"/><path d="M16.416 29.13a3.62 3.62 0 0 1-.655 2.106 3.72 3.72 0 0 1-3.072 1.622c-1.565 0-2.93-.996-3.471-2.39a3.497 3.497 0 0 1-.256-1.337 3.74 3.74 0 0 1 3.727-3.727 3.721 3.721 0 0 1 3.727 3.727Z" fill="#CBD7E3"/><path fill-rule="evenodd" clip-rule="evenodd" d="M12.688 33.114A3.99 3.99 0 0 1 8.99 30.61c0-.019-.01-.038-.028-.057a3.995 3.995 0 0 1 3.727-5.405 3.995 3.995 0 0 1 3.982 3.983c0 .796-.227 1.593-.682 2.247a4.022 4.022 0 0 1-3.3 1.736Zm-3.243-2.76v.029a3.485 3.485 0 0 0 6.117.71 3.466 3.466 0 0 0 .597-1.962 3.449 3.449 0 0 0-3.47-3.471 3.466 3.466 0 0 0-3.471 3.47c0 .418.076.826.227 1.224Z" fill="#00082B"/><path d="M55.477 29.13c0 .826-.171 1.65-.513 2.362a5.67 5.67 0 0 1-5.177 3.329c-2.305 0-4.268-1.366-5.178-3.329-.342-.711-.512-1.536-.512-2.361 0-3.158 2.56-5.69 5.69-5.69a5.67 5.67 0 0 1 5.69 5.69Z" fill="#353D4A"/><path fill-rule="evenodd" clip-rule="evenodd" d="M49.787 35.19a6.099 6.099 0 0 1-5.52-3.556c-.37-.768-.54-1.621-.54-2.503 0-3.357 2.703-6.088 6.06-6.088a6.095 6.095 0 0 1 6.088 6.088c0 .882-.2 1.735-.54 2.503a6.109 6.109 0 0 1-5.548 3.557Zm0-11.38a5.33 5.33 0 0 0-5.32 5.32c0 .769.17 1.509.483 2.192a5.309 5.309 0 0 0 4.837 3.129 5.309 5.309 0 0 0 4.836-3.13 5.238 5.238 0 0 0 .484-2.19 5.33 5.33 0 0 0-5.32-5.32Z" fill="#00082B"/><path fill-rule="evenodd" clip-rule="evenodd" d="M49.787 33c-1.166 0-2.248-.54-2.987-1.422-.57-.683-.854-1.565-.854-2.447 0-2.134 1.707-3.87 3.841-3.87a3.873 3.873 0 0 1 3.87 3.87c0 .882-.314 1.735-.883 2.447-.74.881-1.82 1.422-2.987 1.422Zm0-7.482a3.618 3.618 0 0 0-3.613 3.613c0 .825.313 1.621.825 2.276a3.56 3.56 0 0 0 2.788 1.337 3.56 3.56 0 0 0 2.788-1.337 3.56 3.56 0 0 0 .825-2.276 3.618 3.618 0 0 0-3.613-3.613Z" fill="#00082B"/><path d="M53.513 29.13c0 .883-.313 1.708-.825 2.362a3.777 3.777 0 0 1-2.902 1.366c-1.166 0-2.19-.54-2.873-1.366a3.697 3.697 0 0 1-.853-2.361 3.74 3.74 0 0 1 3.726-3.727 3.721 3.721 0 0 1 3.727 3.727Z" fill="#CBD7E3"/><path fill-rule="evenodd" clip-rule="evenodd" d="M49.787 33.114c-1.195 0-2.305-.54-3.073-1.48-.597-.682-.91-1.593-.91-2.503a3.995 3.995 0 0 1 3.983-3.983 3.995 3.995 0 0 1 3.983 3.983c0 .91-.313 1.82-.882 2.503a4.01 4.01 0 0 1-3.101 1.48Zm0-7.454a3.466 3.466 0 0 0-3.471 3.47 3.6 3.6 0 0 0 .768 2.192 3.468 3.468 0 0 0 2.703 1.28c1.052 0 2.048-.455 2.702-1.28a3.43 3.43 0 0 0 .769-2.191 3.449 3.449 0 0 0-3.471-3.471Z" fill="#00082B"/><path d="M42.674 31.492h-23.3c0-.939.74-1.707 1.679-1.707h19.914c.94 0 1.707.768 1.707 1.707Z" fill="#353D4A"/><path fill-rule="evenodd" clip-rule="evenodd" d="M42.674 31.748h-23.3a.255.255 0 0 1-.256-.256c0-1.08.854-1.963 1.935-1.963h19.914c1.081 0 1.963.882 1.963 1.963a.255.255 0 0 1-.256.256Zm-23.044-.512h22.76a1.438 1.438 0 0 0-1.423-1.195H21.053c-.712 0-1.28.512-1.423 1.195Z" fill="#00082B"/><path d="M27.283 30.041a.255.255 0 0 1-.256-.256l.143-9.16c0-.114.113-.228.256-.228.142 0 .256.114.256.256l-.143 9.132a.255.255 0 0 1-.256.256Z" fill="#00082B"/><path d="m17.212 14.565-1.621 2.532-.342.569a4.128 4.128 0 0 1-3.47 1.906H4.324l1.991-3.13a5.14 5.14 0 0 1 .825-.938 4.171 4.171 0 0 1 2.646-.94h7.425Z" fill="#2196FF"/><path fill-rule="evenodd" clip-rule="evenodd" d="M11.778 19.828H4.324c-.085 0-.17-.057-.227-.142a.277.277 0 0 1 .028-.256l1.963-3.102c.247-.379.54-.71.882-.995a4.296 4.296 0 0 1 2.817-1.024h7.425c.114 0 .2.028.228.113.057.086.057.2 0 .256l-1.992 3.13a4.333 4.333 0 0 1-3.67 2.02Zm-6.998-.512h6.998a3.869 3.869 0 0 0 3.243-1.793l1.736-2.73h-6.97a3.9 3.9 0 0 0-2.475.91c-.304.265-.57.56-.797.882l-1.735 2.73Z" fill="#00082B"/><path d="M41.85 30.041c-.038 0-.067-.01-.086-.028-.142-.057-.199-.2-.142-.313a14.454 14.454 0 0 0 0-11.21c-.057-.141 0-.284.142-.34.114-.058.256 0 .313.142 1.565 3.67 1.565 7.909 0 11.607-.028.085-.114.142-.228.142Z" fill="#00082B"/><path d="M57.07 21.677c-2.02.654-4.325 1.252-6.857 1.764-.91.19-1.849.36-2.816.512-5.434.91-11.75 1.422-18.52 1.422-4.41 0-8.621-.227-12.547-.625-2.105-.228-4.125-.484-6.003-.797-3.357-.54-6.344-1.252-8.905-2.048 0-.057.01-.114.029-.171.085-.91.256-1.792.569-2.646.711-2.077 2.077-3.869 3.897-5.15a3.032 3.032 0 0 1 1.764-.568h20.484c2.134 0 4.267.199 6.344.569.55.114 1.072.275 1.565.483.512.228.986.503 1.422.825l3.244 2.419a7.646 7.646 0 0 0 3.556 1.508L55.39 20.88c.37.056.74.199 1.081.37.209.113.408.255.598.426Z" fill="#fff" style="mix-blend-mode:overlay" opacity=".3"/><path d="M9.787 14.565h7.425l-1.621 2.532c-3.13-.342-5.975-.882-8.45-1.593a4.171 4.171 0 0 1 2.646-.94Zm27.539 1.963c-3.813.683-8.165 1.08-12.831 1.08-2.19 0-4.296-.085-6.316-.255l.057-.114.455-.825a3.613 3.613 0 0 1 3.158-1.85h7.682c1.232 0 2.456.096 3.67.285l.256.029a8.574 8.574 0 0 1 3.869 1.65Z" fill="#fff" style="mix-blend-mode:overlay" opacity=".3"/></svg>