<svg width="60" height="36" fill="none" xmlns="http://www.w3.org/2000/svg"><path fill-rule="evenodd" clip-rule="evenodd" d="M55.224 31.862h1.874c.882 0 1.707-.512 2.105-1.337l.541-1.166c.17-.38.256-.788.256-1.224v-.768c0-.854-.398-1.707-1.081-2.248l-.484-1.906a4.351 4.351 0 0 0-.313-.825c-.227-.37-.483-.71-.825-.995a4.5 4.5 0 0 0-.654-.484 4.427 4.427 0 0 0-1.195-.398l-11.095-1.707a7.773 7.773 0 0 1-3.386-1.423l-3.243-2.446a7.15 7.15 0 0 0-1.48-.854 8.32 8.32 0 0 0-1.65-.512A37.76 37.76 0 0 0 28.166 13H7.681c-.71 0-1.394.228-1.991.626a10.889 10.889 0 0 0-4.04 5.32 12.33 12.33 0 0 0-.597 2.788v.142a12.021 12.021 0 0 0 0 2.361.758.758 0 0 0-.2.143A2.529 2.529 0 0 0 0 26.258v.312c0 .484.142.94.398 1.337l.427.683c.37.57.967.968 1.65 1.11l4.286.723a6.047 6.047 0 0 0 5.928 4.768 6.119 6.119 0 0 0 5.455-3.364l.434.035h25.799a6.096 6.096 0 0 0 5.409 3.329 6.108 6.108 0 0 0 5.437-3.329Z" fill="#F0F" style="mix-blend-mode:overlay"/></svg>