<svg width="60" height="35" fill="none" xmlns="http://www.w3.org/2000/svg"><path fill-rule="evenodd" clip-rule="evenodd" d="M56.817 31.673h.028A3.154 3.154 0 0 0 60 28.52v-1.8a3.34 3.34 0 0 0-1.467-2.767 2.525 2.525 0 0 0-.276-.194l-4.013-2.214a12.95 12.95 0 0 1-2.657-1.91l-7.888-7.306c0-.018-.009-.027-.027-.027A6.445 6.445 0 0 0 39.825 11H3.127c-.775 0-1.439.553-1.577 1.3L.47 17.754A30.174 30.174 0 0 0 0 21.932V29.1c0 .72.498 1.356 1.218 1.55l1.3.304c.074.018.139.037.194.055h.056c1.91.443 3.874.664 5.811.664h1.052c.221 0 .387-.166.387-.36 0-.774.194-1.521.582-2.158.332-.526.774-.996 1.273-1.3a3.526 3.526 0 0 1 1.937-.582c.72 0 1.439.221 2.048.637.47.332.886.747 1.19 1.245.36.664.581 1.411.581 2.159 0 .193.166.36.36.36h30.47c.194 0 .36-.167.36-.36 0-.692.166-1.356.47-1.938a4.224 4.224 0 0 1 1.08-1.328 3.75 3.75 0 0 1 2.27-.775c.913 0 1.798.36 2.49.996.83.748 1.3 1.882 1.3 3.045 0 .193.167.36.388.36Zm-43.007 3.1a3.46 3.46 0 0 1 0-6.919c1.91 0 3.487 1.55 3.487 3.46s-1.577 3.46-3.487 3.46Zm35.341-3.46c0 1.91 1.578 3.46 3.487 3.46a3.44 3.44 0 0 0 3.46-3.46c0-.885-.332-1.715-.913-2.352-.637-.72-1.578-1.107-2.547-1.107-1.91 0-3.487 1.55-3.487 3.46Z" fill="#F0F" style="mix-blend-mode:overlay"/></svg>