<svg width="60" height="36" fill="none" xmlns="http://www.w3.org/2000/svg"><path fill-rule="evenodd" clip-rule="evenodd" d="M1.597 25.86h4.125v.61c0 .522.203 1.016.58 1.364.349.378.843.581 1.336.581h.03l5.767-.054a4.431 4.431 0 0 0-.57 2.174c0 2.498 2.005 4.501 4.473 4.501a4.487 4.487 0 0 0 4.502-4.501c0-.524-.098-1.048-.284-1.543L35.228 30.1c.406.04.794.136 1.161.29.668.32 1.365.553 2.062.698.755.145 1.54.232 2.295.232h4.501a.9.9 0 0 0 .639-.261.841.841 0 0 0 .29-.668s0-.03.03-.058a.22.22 0 0 1 .116-.058h.327a4.505 4.505 0 0 0 4.493 4.763c2.12 0 3.979-1.51 4.385-3.602a4.579 4.579 0 0 0 .08-1.161h2.099a2.22 2.22 0 0 0 1.597-.668A2.312 2.312 0 0 0 60 27.979a3.32 3.32 0 0 0-.639-1.945 3.04 3.04 0 0 0-.377-.465L48.587 15.085a11.128 11.128 0 0 0-2.701-1.975c-.02 0-.039-.01-.058-.029a10.771 10.771 0 0 0-3.108-.987 10.877 10.877 0 0 0-1.597-.116h-2.178V2.626c0-.9-.727-1.626-1.627-1.626H1.598C.725 1 0 1.726 0 2.626v21.607c0 .9.726 1.626 1.597 1.626Z" fill="#F0F" style="mix-blend-mode:overlay"/></svg>