<svg width="60" height="36" fill="none" xmlns="http://www.w3.org/2000/svg"><path fill-rule="evenodd" clip-rule="evenodd" d="M45.247 31.32h-4.501c-.755 0-1.54-.088-2.295-.233a9.087 9.087 0 0 1-2.062-.697 3.936 3.936 0 0 0-1.161-.29L20.88 28.937c-.116-.03-.232-.087-.29-.203a3.817 3.817 0 0 0-1.917-1.656 3.879 3.879 0 0 0-1.336-.232h-.32a3.712 3.712 0 0 0-2.555 1.394.481.481 0 0 1-.348.145l-.29-.03-6.158.059h-.029c-.493 0-.987-.203-1.335-.58a1.843 1.843 0 0 1-.581-1.366v-.987c0-.232.174-.407.377-.407h31.336a.77.77 0 0 0 .726-.784V12.355c0-.203.174-.377.377-.377h2.585a10.8 10.8 0 0 1 1.597.116c1.075.174 2.12.494 3.108.987.02.02.039.03.058.03a11.128 11.128 0 0 1 2.7 1.974l10.398 10.484c.135.136.261.29.377.465a3.32 3.32 0 0 1 .64 1.945c0 .61-.261 1.191-.697 1.627a2.218 2.218 0 0 1-1.597.668h-2.527a.378.378 0 0 1-.377-.32 3.674 3.674 0 0 0-.726-1.655 3.631 3.631 0 0 0-2.934-1.452 3.687 3.687 0 0 0-3.659 3.107c-.029.174-.203.32-.406.32h-.755a.22.22 0 0 0-.117.058c-.029.029-.029.058-.029.058a.841.841 0 0 1-.29.668.9.9 0 0 1-.639.261Zm-24.104-3.137 14.143 1.132a5.34 5.34 0 0 1 1.423.378c.61.261 1.278.494 1.917.639a10.53 10.53 0 0 0 2.12.232h4.501c.058 0 .087-.029.116-.058 0 0 .03-.058.03-.087a.9.9 0 0 1 .26-.639.92.92 0 0 1 .669-.261h.435c.494-2.033 2.265-3.456 4.385-3.456 1.394 0 2.701.639 3.572 1.771.378.494.64 1.075.785 1.685h2.207a1.52 1.52 0 0 0 1.074-.465 1.62 1.62 0 0 0 .436-1.075 2.54 2.54 0 0 0-.494-1.51 1.266 1.266 0 0 0-.29-.348L48.035 15.637c-.755-.755-1.568-1.365-2.497-1.83a.222.222 0 0 0-.088-.029c-.87-.465-1.858-.755-2.875-.93a11.722 11.722 0 0 0-1.452-.086h-2.178v11.53c0 .841-.639 1.51-1.481 1.567H6.506v.61a1.14 1.14 0 0 0 1.132 1.162h.03l6.185-.058h.03l.116.029c.755-.871 1.8-1.423 2.933-1.51.116-.02.251-.03.406-.03.562 0 1.104.098 1.627.291.9.349 1.684.987 2.178 1.83Z" fill="#00082B"/><path fill-rule="evenodd" clip-rule="evenodd" d="M37.318 25.86H1.598C.725 25.86 0 25.132 0 24.232V2.626C0 1.726.726 1 1.597 1h35.721c.9 0 1.627.726 1.627 1.626v21.607c0 .842-.64 1.54-1.453 1.626h-.174ZM1.598 1.783a.843.843 0 0 0-.843.842v21.607c0 .465.378.842.842.842h35.837a.847.847 0 0 0 .726-.842V2.626a.843.843 0 0 0-.842-.842H1.598Z" fill="#00082B"/><path fill-rule="evenodd" clip-rule="evenodd" d="M36.099 23.275H2.846a.26.26 0 0 1-.261-.262V3.846a.26.26 0 0 1 .261-.261H36.1a.26.26 0 0 1 .261.261v19.167a.26.26 0 0 1-.261.262Zm-32.991-.523h32.73V4.107H3.107v18.645Z" fill="#00082B"/><path d="M55.237 30.535c0 .29-.029.561-.087.813a4.08 4.08 0 0 1-4.008 3.282 4.09 4.09 0 0 1-4.095-4.095c0-.213.01-.426.03-.639.319-1.946 2.032-3.456 4.065-3.456 1.336 0 2.498.64 3.253 1.627.406.522.668 1.161.784 1.83.039.212.058.425.058.638Z" fill="#353D4A"/><path fill-rule="evenodd" clip-rule="evenodd" d="M51.142 35.036a4.505 4.505 0 0 1-4.501-4.501c0-.232.019-.465.058-.697a4.472 4.472 0 0 1 4.443-3.775c1.394 0 2.7.639 3.572 1.771a4.555 4.555 0 0 1 .813 3.601c-.406 2.091-2.265 3.601-4.385 3.601Zm0-8.19a3.687 3.687 0 0 0-3.66 3.108 2.956 2.956 0 0 0-.057.581 3.706 3.706 0 0 0 3.717 3.717 3.724 3.724 0 0 0 3.63-2.99c.039-.233.058-.475.058-.727 0-.194-.01-.387-.029-.58a3.86 3.86 0 0 0-.726-1.656 3.631 3.631 0 0 0-2.933-1.452Z" fill="#00082B"/><path d="M51.142 32.974a2.454 2.454 0 0 1-2.44-2.439 3.7 3.7 0 0 1 .117-.639c.29-1.016 1.22-1.771 2.323-1.771 1.104 0 2.033.755 2.323 1.771.058.213.088.426.088.639 0 1.336-1.075 2.44-2.41 2.44Z" fill="#CBD7E3"/><path fill-rule="evenodd" clip-rule="evenodd" d="M51.142 33.236c-1.481 0-2.672-1.22-2.672-2.701 0-.232.03-.474.087-.726a2.71 2.71 0 0 1 2.585-1.946c1.19 0 2.236.813 2.556 1.946.077.252.116.494.116.726 0 1.481-1.22 2.7-2.672 2.7Zm0-4.85a2.178 2.178 0 0 0-2.178 2.149c0 1.19.987 2.178 2.178 2.178 1.19 0 2.15-.987 2.15-2.178 0-.194-.03-.387-.088-.58a2.143 2.143 0 0 0-2.062-1.569Z" fill="#00082B"/><path d="M21.462 30.535c0 2.265-1.858 4.095-4.124 4.095-2.236 0-4.066-1.83-4.066-4.095 0-.958.32-1.83.872-2.556a4.138 4.138 0 0 1 3.194-1.539c1.54 0 2.875.871 3.572 2.091a3.99 3.99 0 0 1 .552 2.004Z" fill="#353D4A"/><path fill-rule="evenodd" clip-rule="evenodd" d="M17.338 35.036c-2.468 0-4.472-2.003-4.472-4.501 0-1.016.348-2.004.987-2.788a4.403 4.403 0 0 1 3.485-1.684 4.47 4.47 0 0 1 3.92 2.294c.378.668.582 1.423.582 2.178a4.487 4.487 0 0 1-4.502 4.501Zm0-8.19a3.631 3.631 0 0 0-2.875 1.395 3.688 3.688 0 0 0-.813 2.294c0 2.062 1.655 3.717 3.688 3.717a3.706 3.706 0 0 0 3.717-3.717 3.62 3.62 0 0 0-.464-1.8 3.734 3.734 0 0 0-3.253-1.888Z" fill="#00082B"/><path d="M17.338 32.974c-1.307 0-2.41-1.103-2.41-2.439 0-1.104.784-2.062 1.83-2.323a2.01 2.01 0 0 1 .58-.087c.349 0 .668.087.988.203.842.377 1.452 1.22 1.452 2.207a2.454 2.454 0 0 1-2.44 2.44Z" fill="#CBD7E3"/><path fill-rule="evenodd" clip-rule="evenodd" d="M17.338 33.236c-1.452 0-2.672-1.22-2.672-2.701a2.67 2.67 0 0 1 2.033-2.585 2.488 2.488 0 0 1 1.713.146c.988.435 1.627 1.394 1.627 2.439 0 1.481-1.22 2.7-2.701 2.7Zm0-4.85c-.174 0-.339.02-.494.058-.987.262-1.655 1.104-1.655 2.091 0 1.19.987 2.178 2.149 2.178 1.19 0 2.178-.987 2.178-2.178 0-.842-.523-1.626-1.307-1.975a2.19 2.19 0 0 0-.871-.174Zm27.967-2.294h-4.792c-.464 0-.87-.378-.87-.842V14.533c0-.464.406-.871.87-.871h1.656c2.817 0 6.766 3.195 7.84 6.331.194.58.291 1.133.291 1.655v1.365c0 .349-.29.61-.639.61-1.394 0-2.817.842-3.862 2.236a.665.665 0 0 1-.494.233Zm-4.792-11.907a.375.375 0 0 0-.348.348V25.25c0 .174.174.348.348.348h4.792a.334.334 0 0 1 .087-.058c1.133-1.51 2.73-2.41 4.27-2.41a.125.125 0 0 0 .116-.117v-1.365c0-.464-.088-.958-.262-1.48-1.074-3.166-4.995-5.983-7.347-5.983h-1.656Z" fill="#00082B"/><path d="M49.748 20.08H44.23c-1.51 0-2.7-1.19-2.7-2.7v-3.457h.638c.174 0 .358.02.552.059 2.323.348 5.402 2.671 6.709 5.314.135.252.242.513.319.784Z" fill="#2196FF"/><path fill-rule="evenodd" clip-rule="evenodd" d="M49.749 20.342H44.23a2.975 2.975 0 0 1-2.962-2.963v-3.456a.26.26 0 0 1 .26-.261h.64c.174 0 .368.02.58.058 2.47.349 5.635 2.875 6.912 5.46.136.271.252.542.349.813a.309.309 0 0 1-.029.232.264.264 0 0 1-.232.117Zm-7.958-6.157v3.194a2.417 2.417 0 0 0 2.44 2.44h5.14l-.174-.407c-1.22-2.468-4.182-4.85-6.505-5.17a2.694 2.694 0 0 0-.523-.057h-.378Z" fill="#00082B"/><path d="M59.594 27.98c0 .522-.204 1.016-.552 1.364-.349.32-.813.552-1.336.552h-2.527a4.136 4.136 0 0 0-.784-1.83c-.755-.987-1.917-1.626-3.253-1.626-2.032 0-3.746 1.51-4.065 3.456h-.755c-.29 0-.552.203-.552.494.029.174-.058.29-.145.406a.552.552 0 0 1-.378.146h-4.501c-.736 0-1.472-.078-2.207-.233v-1.568c0-.406.348-.755.755-.755h6.302a5.961 5.961 0 0 1 5.547-3.775c1.568 0 3.02.61 4.094 1.626h3.805c.348.523.552 1.133.552 1.742Z" fill="#5C6C7C"/><path fill-rule="evenodd" clip-rule="evenodd" d="M45.247 31.203h-4.502c-.755 0-1.51-.087-2.265-.261-.116 0-.203-.116-.203-.233v-1.568c0-.552.465-.987 1.016-.987h6.128a6.213 6.213 0 0 1 5.721-3.805c1.54 0 3.05.581 4.182 1.627h3.718c.087 0 .174.058.203.116.406.552.61 1.22.61 1.887 0 .581-.233 1.133-.64 1.54a2.16 2.16 0 0 1-1.51.639H55.18c-.116 0-.232-.088-.261-.233a3.646 3.646 0 0 0-.727-1.684 3.77 3.77 0 0 0-3.049-1.54c-1.917 0-3.485 1.366-3.804 3.224-.03.145-.116.233-.262.233h-.755a.264.264 0 0 0-.203.087c-.029.029-.087.087-.087.145 0 .232-.058.436-.233.58a.793.793 0 0 1-.551.233Zm-6.447-.697c.639.116 1.287.174 1.945.174h4.502a.279.279 0 0 0 .203-.087.262.262 0 0 0 .087-.203c-.029-.174.058-.378.203-.523a.863.863 0 0 1 .581-.232h.552a4.331 4.331 0 0 1 4.27-3.427c1.364 0 2.642.61 3.455 1.713.378.494.668 1.104.784 1.714h2.324c.435 0 .842-.174 1.161-.494.29-.29.465-.726.465-1.162a2.67 2.67 0 0 0-.436-1.48h-3.659a.358.358 0 0 1-.203-.059 5.565 5.565 0 0 0-3.892-1.568c-2.323 0-4.472 1.452-5.314 3.63-.03.087-.117.145-.233.145h-6.302a.509.509 0 0 0-.493.494v1.365Z" fill="#00082B"/><path d="M46.844 20.341a.26.26 0 0 1-.261-.26v-3.95c0-.117.116-.233.26-.233.146 0 .262.116.262.233v3.95a.26.26 0 0 1-.261.26Z" fill="#00082B"/><path d="M49.429 19.296h-.465c-3.456 0-6.244-2.323-6.244-5.198v-.117c2.324.349 5.402 2.672 6.709 5.315ZM38.538 2.626V14.07c-3.978 4.53-11.616 7.58-20.358 7.58-7.144 0-13.504-2.034-17.802-5.228V2.626c0-.697.552-1.248 1.22-1.248h35.72c.669 0 1.22.551 1.22 1.248Z" fill="#fff" style="mix-blend-mode:overlay" opacity=".3"/></svg>