<svg width="60" height="36" fill="none" xmlns="http://www.w3.org/2000/svg"><path fill-rule="evenodd" clip-rule="evenodd" d="M55.995 29.992c0 2.697-2.225 4.922-4.922 4.922a4.932 4.932 0 0 1-4.923-4.922 4.914 4.914 0 0 1 4.922-4.923 4.932 4.932 0 0 1 4.923 4.923Zm-2.475 0a2.451 2.451 0 0 0-2.448-2.448 2.433 2.433 0 0 0-2.447 2.448 2.451 2.451 0 0 0 2.447 2.447 2.47 2.47 0 0 0 2.448-2.447Z" fill="#353D4A"/><path fill-rule="evenodd" clip-rule="evenodd" d="M51.072 35.276a5.282 5.282 0 0 1-5.284-5.284 5.282 5.282 0 0 1 5.284-5.285 5.282 5.282 0 0 1 5.284 5.285 5.282 5.282 0 0 1-5.284 5.284Zm0-9.845c-2.503 0-4.56 2.058-4.56 4.56 0 2.504 2.057 4.534 4.56 4.534a4.534 4.534 0 0 0 4.534-4.533c0-2.503-2.03-4.561-4.534-4.561Zm0 7.37a2.801 2.801 0 0 1-2.809-2.81 2.801 2.801 0 0 1 2.81-2.808 2.801 2.801 0 0 1 2.808 2.809 2.801 2.801 0 0 1-2.809 2.809Zm0-4.895c-1.14 0-2.086.945-2.086 2.086 0 1.14.946 2.058 2.086 2.058s2.058-.918 2.058-2.058c0-1.14-.917-2.086-2.058-2.086Z" fill="#00082B"/><path d="M53.52 29.992a2.47 2.47 0 0 1-2.447 2.447 2.451 2.451 0 0 1-2.447-2.447 2.433 2.433 0 0 1 2.447-2.448 2.451 2.451 0 0 1 2.447 2.448Z" fill="#CBD7E3"/><path fill-rule="evenodd" clip-rule="evenodd" d="M51.073 32.69a2.7 2.7 0 0 1-2.698-2.698 2.683 2.683 0 0 1 2.698-2.698 2.7 2.7 0 0 1 2.697 2.698 2.718 2.718 0 0 1-2.697 2.697Zm0-4.895a2.184 2.184 0 0 0-2.197 2.197c0 1.196.973 2.197 2.197 2.197a2.22 2.22 0 0 0 2.197-2.197 2.202 2.202 0 0 0-2.197-2.197Z" fill="#00082B"/><path fill-rule="evenodd" clip-rule="evenodd" d="M17.56 29.992a4.932 4.932 0 0 1-4.923 4.922 4.932 4.932 0 0 1-4.867-5.673 4.915 4.915 0 0 1 4.867-4.172 4.92 4.92 0 0 1 4.923 4.867v.056Zm-2.476 0a.911.911 0 0 0-.027-.223 2.425 2.425 0 0 0-2.42-2.225c-1.168 0-2.114.807-2.392 1.864-.037.185-.055.38-.055.584a2.451 2.451 0 0 0 2.447 2.447 2.47 2.47 0 0 0 2.447-2.447Z" fill="#353D4A"/><path fill-rule="evenodd" clip-rule="evenodd" d="M12.637 35.276a5.282 5.282 0 0 1-5.284-5.284c0-.278.019-.547.056-.807.389-2.558 2.642-4.477 5.228-4.477 2.893 0 5.257 2.336 5.284 5.2v.084a5.282 5.282 0 0 1-5.284 5.284Zm0-9.845c-2.225 0-4.172 1.668-4.505 3.865a4.225 4.225 0 0 0-.056.696c0 2.503 2.058 4.533 4.561 4.533a4.534 4.534 0 0 0 4.534-4.533v-.056c0-2.475-2.058-4.505-4.534-4.505Zm0 7.37a2.801 2.801 0 0 1-2.809-2.81c0-.222.019-.444.056-.667.306-1.28 1.446-2.141 2.753-2.141a2.812 2.812 0 0 1 2.81 2.558v.25a2.801 2.801 0 0 1-2.81 2.81Zm0-4.895c-.973 0-1.808.667-2.03 1.585a2.3 2.3 0 0 0-.056.5c0 1.141.946 2.059 2.086 2.059s2.058-.918 2.058-2.058v-.195a2.04 2.04 0 0 0-2.058-1.891Zm4.534 2.086v.027-.027Z" fill="#00082B"/><path d="M15.084 29.992a2.47 2.47 0 0 1-2.447 2.447 2.45 2.45 0 0 1-2.447-2.447c0-.204.018-.399.055-.584.278-1.057 1.224-1.864 2.392-1.864 1.28 0 2.308.974 2.42 2.225a.916.916 0 0 1 .027.223Z" fill="#CBD7E3"/><path fill-rule="evenodd" clip-rule="evenodd" d="M12.637 32.69a2.7 2.7 0 0 1-2.698-2.698c0-.223.028-.436.083-.64.278-1.224 1.363-2.058 2.615-2.058a2.668 2.668 0 0 1 2.67 2.447c.018.075.027.158.027.25a2.718 2.718 0 0 1-2.697 2.698Zm0-4.895a2.205 2.205 0 0 0-2.142 1.668 2.429 2.429 0 0 0-.055.529c0 1.196.973 2.197 2.197 2.197a2.22 2.22 0 0 0 2.197-2.197v-.195a2.206 2.206 0 0 0-2.197-2.002Zm45.055 2.447h-1.696a.25.25 0 0 1-.25-.25c0-1.085-.39-2.142-1.058-2.976-.055-.056-.083-.167-.027-.25.027-.084.11-.14.222-.14h4.756a.25.25 0 0 1 .25.25v1.169a2.22 2.22 0 0 1-2.197 2.197Zm-1.474-.5h1.474c.946 0 1.697-.78 1.697-1.697v-.918h-4.033c.528.779.834 1.669.862 2.614Z" fill="#00082B"/><path fill-rule="evenodd" clip-rule="evenodd" d="M57.692 30.353h-1.697c-.222 0-.39-.167-.39-.361a4.541 4.541 0 0 0-1.028-2.893 4.297 4.297 0 0 0-2.17-1.446 4.033 4.033 0 0 0-1.334-.222c-.974 0-1.92.305-2.698.89a4.571 4.571 0 0 0-1.864 3.67c0 .084-.027.195-.11.251-.057.083-.168.111-.251.111H18.116l-.584-.055a.368.368 0 0 1-.362-.362c0-1.196-.473-2.308-1.335-3.17a4.505 4.505 0 0 0-3.198-1.335c-.779 0-1.558.194-2.225.584-1.224.667-2.058 1.89-2.28 3.281-.028.167-.195.306-.39.306l-1.78-.139a10.077 10.077 0 0 1-2.392-.445 2.87 2.87 0 0 1-1.39-1.029H.928a.384.384 0 0 1-.361-.278L.01 25.876c-.027-.14 0-.25.084-.334a.306.306 0 0 1 .278-.167h1.307l.028-5.256c0-.724.584-1.28 1.307-1.28l20.748.028c.11 0 .222-.111.25-.223l.194-2.67A2.15 2.15 0 0 1 26.348 14h7.982c2.586 0 5.117.723 7.314 2.114l3.032 1.919a10.19 10.19 0 0 0 4.644 1.502l3.282.222c1.28.083 2.587.25 3.838.473l1.558.306a2.08 2.08 0 0 1 1.335.89c.25.361.389.75.389 1.196a.54.54 0 0 1-.028.166l-.195 2.476c0 .074.01.139.028.194a.413.413 0 0 0 .111.195c.25.223.362.556.362.862v1.53a2.303 2.303 0 0 1-2.308 2.308Zm-1.335-.75h1.335c.862 0 1.585-.696 1.585-1.558v-1.53a.434.434 0 0 0-.167-.334 1.383 1.383 0 0 1-.278-.472 1.16 1.16 0 0 1-.056-.5l.195-2.476v-.111c0-.279-.083-.557-.25-.78a.551.551 0 0 0-.167-.194 1.453 1.453 0 0 0-.696-.39l-1.557-.277c-1.224-.25-2.503-.39-3.755-.473l-3.281-.223a11.114 11.114 0 0 1-5.006-1.64l-3.004-1.892a13.028 13.028 0 0 0-6.925-2.002h-7.982c-.723 0-1.363.556-1.418 1.28l-.195 2.67a.995.995 0 0 1-.973.917l-20.748-.056a.558.558 0 0 0-.556.556v.167l-.028 5.48a.368.368 0 0 1-.362.36H.873l.333 1.113h1.168c.112 0 .195.056.279.112a.322.322 0 0 1 .055.083c.25.417.64.723 1.085.862.723.223 1.474.39 2.225.445l1.446.084a5.457 5.457 0 0 1 2.586-3.477 5.48 5.48 0 0 1 2.587-.64c1.39 0 2.725.529 3.727 1.53a5.18 5.18 0 0 1 1.53 3.365h27.894a5.274 5.274 0 0 1 2.142-3.866c.917-.695 2.002-1.029 3.142-1.029a5.47 5.47 0 0 1 1.558.223 5.257 5.257 0 0 1 2.53 1.697 5.39 5.39 0 0 1 1.197 2.975Z" fill="#00082B"/><path d="M59.332 22.622v.139l-.083.973a80.24 80.24 0 0 1-6.73 1.558c-1.41.278-2.865.519-4.367.723-5.534.834-11.542 1.279-17.855 1.279-4.95 0-9.706-.278-14.184-.779a127.79 127.79 0 0 1-5.868-.834 89.536 89.536 0 0 1-8.177-1.752l.028-3.643v-.167c0-.501.417-.918.918-.918l20.747.028c.306 0 .584-.25.612-.557l.195-2.67a1.788 1.788 0 0 1 1.78-1.64h7.982a13.5 13.5 0 0 1 7.12 2.058l3.003 1.919a10.462 10.462 0 0 0 4.84 1.557l3.281.223c1.28.092 2.55.26 3.81.5l1.53.278c.334.056.667.223.918.473.074.074.139.158.194.25.223.306.306.64.306 1.002Z" fill="#fff" style="mix-blend-mode:overlay" opacity=".3"/><path d="M2.374 27.99H.928a.368.368 0 0 1-.362-.362c0-.223.167-.39.362-.39h1.446c.111 0 .223.056.278.112.056.083.112.166.112.278 0 .194-.167.361-.39.361Z" fill="#00082B"/><path d="M31.938 16.058v2.865c0 .306-.222.556-.528.556h-4.366c-.306 0-.529-.25-.529-.556v-2.865c0-.306.223-.556.529-.556h4.366c.306 0 .528.25.528.556Z" fill="#CBD7E3"/><path fill-rule="evenodd" clip-rule="evenodd" d="M31.41 19.701h-4.367a.76.76 0 0 1-.778-.778v-2.865c0-.445.333-.806.778-.806h4.367c.445 0 .778.361.778.806v2.865a.76.76 0 0 1-.778.778Zm-4.367-3.949a.309.309 0 0 0-.306.306v2.865c0 .167.14.306.306.306h4.367c.167 0 .278-.14.278-.306v-2.865c0-.167-.111-.306-.278-.306h-4.367Z" fill="#00082B"/><path d="M44.008 19.479h-9.734c-.278 0-.528-.25-.528-.556v-2.865c0-.306.25-.556.528-.556h1.085c1.39 0 2.753.334 3.977.946.074.037.157.083.25.139l.612.333c.278.149.547.306.806.473l3.004 2.086Z" fill="#CBD7E3"/><path fill-rule="evenodd" clip-rule="evenodd" d="M44.009 19.701h-9.734a.777.777 0 0 1-.779-.778v-2.865c0-.445.362-.806.779-.806h1.084a9.03 9.03 0 0 1 4.089.973h.028c.074.056.148.102.222.139l.612.334c.297.148.575.315.834.5l3.004 2.058c.083.056.139.167.083.279-.028.11-.11.166-.222.166Zm-9.734-3.949c-.14 0-.278.14-.278.306v2.865c0 .167.139.306.278.306h8.927l-2.336-1.613c-.25-.167-.5-.334-.779-.501l-.611-.334-.223-.111h-.028a8.506 8.506 0 0 0-3.866-.918h-1.084Z" fill="#00082B"/><path d="M24.373 30.242a.25.25 0 0 1-.25-.25v-11.32c0-.139.111-.25.25-.25a.25.25 0 0 1 .25.25v11.32a.25.25 0 0 1-.25.25Zm18.467-1.919H26.626a.25.25 0 0 1-.25-.25c0-.14.11-.25.25-.25H42.84a.25.25 0 0 1 .25.25.25.25 0 0 1-.25.25Zm2.281.139h-.056a.247.247 0 0 1-.166-.278l.055-.306c.5-2.447.473-4.95-.055-7.398-.056-.139.055-.278.166-.306a.256.256 0 0 1 .306.195c.557 2.53.584 5.09.056 7.62l-.056.278a.267.267 0 0 1-.25.195Z" fill="#00082B"/><path d="M43.48 25.32H19.535a.25.25 0 0 1-.25-.25c0-.14.11-.251.25-.251H43.48c.112 0 .223.111.223.25 0 .14-.111.25-.223.25Zm-26.866-2.754H8.076a.25.25 0 0 1-.25-.25c0-.14.11-.25.25-.25h8.538c.111 0 .223.11.223.25 0 .139-.112.25-.223.25Z" fill="#00082B"/><path d="M31.938 16.058v1.001c-2.03-.083-3.893-.39-5.423-.862v-.139c0-.306.223-.556.529-.556h4.366c.306 0 .528.25.528.556Zm7.398.39c-1.641.389-3.532.64-5.59.64v-1.03c0-.306.25-.556.528-.556h1.085c1.39 0 2.753.334 3.977.946Z" fill="#fff" style="mix-blend-mode:overlay" opacity=".3"/><path d="M3.681 20.285v3.727H2.068l.028-3.727h1.585Z" fill="#FF4D4D"/><path fill-rule="evenodd" clip-rule="evenodd" d="M3.681 24.262H2.068c-.074 0-.13-.018-.167-.055a.267.267 0 0 1-.083-.195l.028-3.727a.25.25 0 0 1 .25-.25h1.585c.14 0 .25.111.25.25v3.727a.25.25 0 0 1-.25.25Zm-1.363-.472h1.113v-3.254H2.346l-.028 3.254Z" fill="#00082B"/><path d="m59.333 22.76-.195 2.476a.646.646 0 0 0 .028.334h-1.113a.63.63 0 0 1-.64-.64v-2.642c0-.362.279-.668.64-.668h.974c.222.306.306.64.306 1.002v.139Z" fill="#FFCF0D"/><path fill-rule="evenodd" clip-rule="evenodd" d="M59.166 25.82h-1.112a.879.879 0 0 1-.89-.89v-2.642c0-.5.389-.89.89-.89h.973c.083 0 .167.028.222.083.223.334.334.723.334 1.14v.168l-.194 2.475a.405.405 0 0 0 .027.25c.028.056 0 .14-.027.223a.316.316 0 0 1-.223.083Zm-1.112-3.95c-.223 0-.39.195-.39.418v2.642c0 .222.167.417.39.417h.834v-.139l.195-2.475a.118.118 0 0 0 0-.111c0-.279-.056-.529-.167-.751h-.862Z" fill="#00082B"/></svg>