<svg width="60" height="35" fill="none" xmlns="http://www.w3.org/2000/svg"><path fill-rule="evenodd" clip-rule="evenodd" d="M57.37 30.901h-.028l-2.52-.027c-.11 0-.221-.028-.277-.111a.312.312 0 0 1-.083-.305 6.84 6.84 0 0 0 .028-.637 4.266 4.266 0 0 0-4.264-4.264 4.266 4.266 0 0 0-4.264 4.264c0 .185.01.37.028.554.027.083 0 .194-.083.277a.34.34 0 0 1-.277.139l-28.436-.305-.47-.028c-.194 0-.36-.194-.36-.387.018-.074.027-.157.027-.25a4.266 4.266 0 0 0-4.264-4.264c-2.27 0-4.153 1.745-4.291 3.988 0 .11-.028.193-.111.276a.468.468 0 0 1-.277.083l-5.676-.332A1.927 1.927 0 0 1 0 27.662v-.139c0-.553.277-1.08.748-1.384a.233.233 0 0 0 .11-.194v-.028c-.11-.72-.166-1.467-.166-2.215v-.138c0-.858.056-1.744.194-2.603l.664-4.264a21.84 21.84 0 0 1 1.08-4.208l.72-2.05C3.682 9.582 4.513 9 5.4 9h23.838l6.618.277c.775 0 1.578.055 2.353.221h.084a13.55 13.55 0 0 1 6.146 2.963c.905.794 1.79 1.55 2.658 2.27l1.053.914a15.175 15.175 0 0 0 4.208 2.52l3.904 1.467c0 .019.01.028.028.028.747.36 1.412.858 1.993 1.495.259.295.49.61.693.941.249.416.47.887.609 1.385.092.258.157.498.194.72a8.86 8.86 0 0 1 .193 1.716L60 28.243a2.75 2.75 0 0 1-.775 1.91 2.594 2.594 0 0 1-1.855.748Zm-2.132-.747 2.104.027a1.93 1.93 0 0 0 1.357-.553c.36-.36.553-.859.553-1.357l-.027-2.326c0-.535-.056-1.061-.166-1.578l-.166-.665a6.122 6.122 0 0 0-.554-1.218 5.21 5.21 0 0 0-.61-.858 5.755 5.755 0 0 0-1.744-1.302l-3.876-1.467a15.72 15.72 0 0 1-4.43-2.658l-1.08-.886a596.74 596.74 0 0 0-2.658-2.298 12.698 12.698 0 0 0-5.787-2.797h-.083a11.766 11.766 0 0 0-2.215-.194l-6.645-.276H5.399c-.581 0-1.135.387-1.329.941l-.747 2.049a20.947 20.947 0 0 0-1.053 4.07l-.636 4.264c-.139.83-.194 1.661-.194 2.492v.138c0 .72.055 1.44.138 2.132a.454.454 0 0 1 .028.111 1 1 0 0 1-.47.83.883.883 0 0 0-.388.748v.139c0 .609.47 1.135 1.08 1.163l5.316.332a5.021 5.021 0 0 1 4.983-4.347c2.714 0 4.957 2.215 4.984 4.928l.111.028 27.993.277v-.222a5.01 5.01 0 0 1 5.011-5.011 5.01 5.01 0 0 1 5.012 5.011v.333Z" fill="#00082B"/><path d="M16.75 29.821v.277a4.617 4.617 0 0 1-4.623 4.347c-2.575 0-4.652-2.076-4.652-4.624v-.277a4.648 4.648 0 0 1 4.652-4.374c2.547 0 4.624 2.076 4.624 4.651Z" fill="#353D4A"/><path fill-rule="evenodd" clip-rule="evenodd" d="M12.127 34.833a5.01 5.01 0 0 1-5.011-5.012v-.304a5.028 5.028 0 0 1 5.011-4.707c2.741 0 4.984 2.242 4.984 5.011v.305c-.166 2.63-2.353 4.707-4.984 4.707Zm0-9.276c-2.27 0-4.153 1.745-4.291 3.988v.276c0 2.354 1.91 4.264 4.291 4.264 2.243 0 4.126-1.772 4.264-4.015v-.249a4.266 4.266 0 0 0-4.264-4.264Z" fill="#00082B"/><path fill-rule="evenodd" clip-rule="evenodd" d="M12.127 32.812a2.996 2.996 0 0 1-2.99-2.99v-.194c.083-1.579 1.412-2.797 2.99-2.797a2.972 2.972 0 0 1 2.963 2.99v.167c-.083 1.578-1.412 2.824-2.963 2.824Zm0-5.482c-1.329 0-2.437 1.024-2.492 2.325a.522.522 0 0 0-.028.166c0 1.357 1.136 2.492 2.52 2.492a2.466 2.466 0 0 0 2.464-2.353.458.458 0 0 0 .028-.139 2.5 2.5 0 0 0-2.492-2.492Z" fill="#00082B"/><path d="M14.868 29.821a.522.522 0 0 0-.027.167 2.729 2.729 0 0 1-2.714 2.575c-1.523 0-2.769-1.246-2.769-2.742a.522.522 0 0 0 .028-.166 2.735 2.735 0 0 1 2.741-2.575 2.747 2.747 0 0 1 2.741 2.741Z" fill="#CBD7E3"/><path fill-rule="evenodd" clip-rule="evenodd" d="M12.127 32.812a2.996 2.996 0 0 1-2.99-2.99v-.194c.083-1.579 1.412-2.797 2.99-2.797a2.972 2.972 0 0 1 2.963 2.99v.167c-.083 1.578-1.412 2.824-2.963 2.824Zm0-5.482c-1.329 0-2.437 1.024-2.492 2.325a.522.522 0 0 0-.028.166c0 1.357 1.136 2.492 2.52 2.492a2.466 2.466 0 0 0 2.464-2.353.458.458 0 0 0 .028-.139 2.5 2.5 0 0 0-2.492-2.492Z" fill="#00082B"/><path d="M54.877 29.821c0 .24-.018.471-.055.693-.332 2.242-2.27 3.931-4.596 3.931a4.633 4.633 0 0 1-4.596-4.015 2.25 2.25 0 0 1-.028-.609c0-2.575 2.077-4.651 4.624-4.651a4.644 4.644 0 0 1 4.651 4.651Z" fill="#353D4A"/><path fill-rule="evenodd" clip-rule="evenodd" d="M50.226 34.833a4.994 4.994 0 0 1-4.956-4.375 3.274 3.274 0 0 1-.056-.637 5.01 5.01 0 0 1 5.012-5.011 5.01 5.01 0 0 1 4.956 5.759v.055c-.388 2.381-2.52 4.209-4.956 4.209Zm0-9.276a4.266 4.266 0 0 0-4.264 4.264c0 .203.01.388.028.554.276 2.104 2.104 3.71 4.236 3.71 2.104 0 3.904-1.55 4.236-3.627v-.027c.019-.204.028-.407.028-.61a4.266 4.266 0 0 0-4.264-4.264Z" fill="#00082B"/><path fill-rule="evenodd" clip-rule="evenodd" d="M50.226 32.812a2.99 2.99 0 0 1-2.907-2.326 2.73 2.73 0 0 1-.083-.665 2.996 2.996 0 0 1 2.99-2.99 2.978 2.978 0 0 1 2.99 2.99c0 .24-.027.48-.083.72a3.018 3.018 0 0 1-2.907 2.27Zm0-5.482a2.482 2.482 0 0 0-2.492 2.491c0 .185.019.37.056.554a2.514 2.514 0 0 0 2.436 1.938c1.135 0 2.132-.775 2.437-1.882.037-.204.055-.407.055-.61a2.482 2.482 0 0 0-2.492-2.492Z" fill="#00082B"/><path d="M52.968 29.821a2.759 2.759 0 0 1-2.741 2.741 2.73 2.73 0 0 1-2.659-2.131 2.31 2.31 0 0 1-.083-.61 2.73 2.73 0 0 1 2.741-2.74 2.73 2.73 0 0 1 2.742 2.74Z" fill="#CBD7E3"/><path fill-rule="evenodd" clip-rule="evenodd" d="M50.226 32.812a2.99 2.99 0 0 1-2.907-2.326 2.73 2.73 0 0 1-.083-.665 2.996 2.996 0 0 1 2.99-2.99 2.978 2.978 0 0 1 2.99 2.99c0 .24-.027.48-.083.72a3.018 3.018 0 0 1-2.907 2.27Zm0-5.482a2.482 2.482 0 0 0-2.492 2.491c0 .185.019.37.056.554a2.514 2.514 0 0 0 2.436 1.938c1.135 0 2.132-.775 2.437-1.882.037-.204.055-.407.055-.61a2.482 2.482 0 0 0-2.492-2.492Z" fill="#00082B"/><path d="M59.418 24.284h-1.273a2.85 2.85 0 0 1-2.437-1.412l-.83-1.495h3.128a5.98 5.98 0 0 1 1.218 2.215c.074.221.139.452.194.692Z" fill="#FFCF0D"/><path fill-rule="evenodd" clip-rule="evenodd" d="M59.419 24.533h-1.274a2.994 2.994 0 0 1-2.63-1.55l-.859-1.468a.208.208 0 0 1 0-.25c.056-.082.139-.138.222-.138h3.129c.055 0 .138.056.166.083.609.693 1.052 1.44 1.301 2.299.074.258.139.498.194.72a.521.521 0 0 1-.056.22.251.251 0 0 1-.193.084Zm-4.126-2.907.637 1.135c.47.775 1.301 1.274 2.215 1.274h.97l-.112-.388c-.221-.748-.609-1.412-1.107-2.021h-2.603Z" fill="#00082B"/><path d="M2.963 19.743v3.489c0 .277-.194.47-.443.47H1.052v-.138c0-.85.074-1.698.222-2.547l.249-1.717h.997c.249 0 .443.194.443.443Z" fill="#FF4D4D"/><path fill-rule="evenodd" clip-rule="evenodd" d="M2.519 23.951H1.05a.248.248 0 0 1-.249-.249v-.138c0-.858.083-1.744.222-2.603l.249-1.716a.266.266 0 0 1 .25-.194h.996c.388 0 .692.304.692.692v3.489c0 .415-.304.72-.692.72ZM1.3 23.453h1.218c.11 0 .221-.083.221-.221v-3.49c0-.11-.11-.193-.221-.193h-.775l-.25 1.495c-.11.803-.166 1.606-.193 2.41Z" fill="#00082B"/><path d="M54.877 21.626h-.027L2.492 19.549a.298.298 0 0 1-.222-.277c0-.138.11-.221.25-.221l52.357 2.076c.139.028.25.139.25.277-.028.111-.139.222-.25.222Zm-11.13 6.728h-.028l-24.975-.692c-.526 0-.996-.305-1.218-.776a5.997 5.997 0 0 0-5.399-3.433c-2.326 0-4.153.97-5.122 2.741a1.068 1.068 0 0 1-.97.526l-4.817-.36c-.138 0-.25-.11-.222-.249 0-.138.111-.249.25-.221l4.817.332c.194 0 .416-.11.499-.277 1.08-1.91 3.045-2.99 5.565-2.99 2.492 0 4.79 1.467 5.87 3.71a.852.852 0 0 0 .775.498l24.947.692c.25.028.47-.138.526-.36.748-2.38 3.378-4.208 5.98-4.208 2.576 0 5.15 1.827 5.898 4.18.084.222.277.36.527.36l2.962-.165c.139-.028.25.083.25.221.027.139-.084.25-.222.277l-2.963.166c-.47 0-.886-.277-1.024-.692-.692-2.16-3.074-3.876-5.427-3.876-2.381 0-4.846 1.744-5.51 3.876a1.04 1.04 0 0 1-.97.72Z" fill="#00082B"/><path d="M32.894 12.212v4.817c0 .693-.582 1.247-1.274 1.247l-24.06-.637c-.665 0-1.191-.554-1.191-1.219v-4.596a1.24 1.24 0 0 1 1.246-1.246l24.06.388c.665.027 1.219.581 1.219 1.246Z" fill="#2196FF"/><path fill-rule="evenodd" clip-rule="evenodd" d="M31.647 18.497h-.055l-24.034-.61c-.802 0-1.44-.691-1.44-1.467v-4.596c0-.415.167-.775.444-1.052a1.528 1.528 0 0 1 1.08-.443l24.033.388c.803.027 1.467.692 1.467 1.495v4.817c0 .388-.166.776-.47 1.053a1.422 1.422 0 0 1-1.025.415Zm-24.033-7.67c-.277 0-.526.111-.72.277a1.107 1.107 0 0 0-.277.72v4.596c0 .526.415.97.97.97l24.032.636c.277 0 .526-.11.72-.304a.944.944 0 0 0 .305-.693v-4.817c0-.526-.443-.97-.997-.997l-24.033-.388Z" fill="#00082B"/><path d="M48.094 18.718a.524.524 0 0 1-.415.25l-12.875-.665c-.36 0-.665-.554-.637-1.218v-4.597c0-.692.304-1.245.692-1.245l2.049.083a9.847 9.847 0 0 1 5.704 2.021l.609.47 4.624 3.517c.415.332.553.941.249 1.384Z" fill="#2196FF"/><path fill-rule="evenodd" clip-rule="evenodd" d="M47.679 19.217h-.028l-12.875-.665c-.498-.027-.858-.664-.858-1.467v-4.596c0-.526.166-1.025.443-1.274a.745.745 0 0 1 .498-.222l2.077.084c2.104.083 4.126.803 5.814 2.076l5.233 3.987c.554.416.693 1.19.305 1.717-.166.221-.36.36-.61.36Zm-12.847-7.725c-.037 0-.083.028-.139.083-.11.11-.277.443-.277.914l-.027 4.596c0 .581.249.969.415.997l12.875.636c.083 0 .166-.11.221-.138.222-.332.111-.803-.221-1.052l-5.205-3.987c-1.634-1.219-3.544-1.91-5.566-1.966l-2.076-.083Z" fill="#00082B"/><path d="M18.274 18.165a.248.248 0 0 1-.25-.25v-7.17c0-.111.111-.222.25-.222.138 0 .249.11.249.221v7.172c0 .138-.11.249-.25.249Z" fill="#00082B"/><path d="M32.893 12.212v3.267c-1.8.11-3.655.194-5.565.194-8.666 0-16.308-1.44-20.96-3.655v-.194a1.24 1.24 0 0 1 1.246-1.246l24.061.388c.665.027 1.218.581 1.218 1.246Zm10.327 1.606c-2.658.692-5.703 1.246-9.053 1.55v-2.88c0-.691.304-1.245.692-1.245l2.049.083a9.847 9.847 0 0 1 5.703 2.021l.61.47Z" fill="#fff" style="mix-blend-mode:overlay" opacity=".3"/><path d="M58.67 22.29c-6.506 2.935-16.28 4.79-27.19 4.79-12.763 0-23.95-2.547-30.18-6.34l.222-1.44.388-2.547a23.112 23.112 0 0 1 1.052-4.126l.748-2.049a1.79 1.79 0 0 1 1.689-1.19h23.839l6.617.249c.776 0 1.542.074 2.299.221h.055a12.833 12.833 0 0 1 5.98 2.88c1.302 1.107 2.52 2.16 3.71 3.184a15.039 15.039 0 0 0 4.348 2.575l3.876 1.495c.72.332 1.357.803 1.883 1.384.24.296.461.6.664.914Z" fill="#fff" style="mix-blend-mode:overlay" opacity=".3"/><path d="M59.612 27.91v.36a2.229 2.229 0 0 1-2.27 2.271l-2.52-.027a4.21 4.21 0 0 0 .056-.693 4.644 4.644 0 0 0-4.652-4.651 4.662 4.662 0 0 0-4.652 4.651c0 .203.019.406.056.61l-28.436-.305-.443-.028v-.277c0-2.575-2.076-4.651-4.624-4.651a4.648 4.648 0 0 0-4.651 4.374l-5.676-.36a1.54 1.54 0 0 1-1.44-1.522v-.139c0-.443.221-.83.581-1.08a.449.449 0 0 0 .25-.304l.055-.028 4.79.36a.768.768 0 0 0 .747-.415c1.053-1.883 2.963-2.852 5.344-2.852 2.492 0 4.624 1.467 5.649 3.572.166.387.553.637.996.637l24.947.692a.833.833 0 0 0 .776-.554c.692-2.243 3.24-4.042 5.731-4.042 2.492 0 4.956 1.8 5.676 4.042.083.332.415.526.748.526l2.962-.166Z" fill="#5C6C7C"/><path fill-rule="evenodd" clip-rule="evenodd" d="M57.37 30.79h-.028l-2.52-.027a.251.251 0 0 1-.194-.083c-.055-.056-.055-.139-.055-.194.037-.222.055-.443.055-.665a4.396 4.396 0 0 0-4.402-4.402c-2.41 0-4.403 1.966-4.403 4.402 0 .203.019.388.056.554a.397.397 0 0 1-.056.194c-.055.055-.138.11-.194.083l-28.435-.277-.47-.027a.27.27 0 0 1-.222-.277v-.25c0-2.436-1.966-4.402-4.375-4.402-2.326 0-4.264 1.827-4.402 4.125 0 .074-.028.13-.084.167-.055.055-.11.083-.166.083l-5.676-.36A1.788 1.788 0 0 1 .11 27.662v-.139a1.5 1.5 0 0 1 .72-1.273.74.74 0 0 0 .139-.194c.027-.11.11-.166.221-.166h.056l4.817.332c.194 0 .416-.11.499-.277 1.08-1.91 3.045-2.99 5.565-2.99 2.492 0 4.79 1.467 5.87 3.71a.852.852 0 0 0 .775.498l24.947.692c.25.028.47-.138.526-.36.748-2.38 3.378-4.208 5.98-4.208 2.576 0 5.15 1.827 5.898 4.18a.54.54 0 0 0 .526.36l2.935-.165h.028c.139 0 .25.11.25.249v.332a2.4 2.4 0 0 1-.72 1.8 2.407 2.407 0 0 1-1.773.748Zm-2.271-.526 2.243.028h.027c.526 0 1.025-.194 1.412-.581a2.06 2.06 0 0 0 .61-1.44l-.028-.11-2.686.165c-.47 0-.886-.277-1.024-.692-.693-2.16-3.074-3.876-5.427-3.876-2.381 0-4.846 1.744-5.51 3.876a1.04 1.04 0 0 1-.997.72l-24.975-.692c-.526 0-.996-.305-1.218-.776a5.997 5.997 0 0 0-5.399-3.433c-2.326 0-4.153.97-5.122 2.741a1.068 1.068 0 0 1-.97.526l-4.679-.332a.988.988 0 0 1-.277.277c-.276.194-.47.498-.47.858v.139a1.26 1.26 0 0 0 1.218 1.273l5.427.333a4.914 4.914 0 0 1 4.873-4.347c2.686 0 4.873 2.215 4.873 4.9v.056h.222l28.13.304v-.36c0-2.685 2.188-4.9 4.874-4.9 2.685 0 4.9 2.215 4.9 4.9 0 .148-.009.296-.027.443Z" fill="#00082B"/></svg>