<svg width="60" height="36" fill="none" xmlns="http://www.w3.org/2000/svg"><path fill-rule="evenodd" clip-rule="evenodd" d="M43.706 31.962H21.339a4.6 4.6 0 0 1-2.027-.485l-.2-.143a4.618 4.618 0 0 0-1.23-.45c-.08 2.473-2.133 4.476-4.652 4.476-2.57 0-4.654-2.085-4.654-4.626 0-.2.013-.395.038-.588l-4.379-.982a3.063 3.063 0 0 1-.628-.229l-1.113-.514a3.22 3.22 0 0 1-1.028-.742l-.6-.685a2.145 2.145 0 0 1-.2-.229.332.332 0 0 1-.057-.085c-.457-.6-.657-1.371-.6-2.142v-.029l.03-.314a3.22 3.22 0 0 1 1.655-2.57 3.327 3.327 0 0 1 1.342-.4l7.281-.599a2.71 2.71 0 0 0 1.028-.257l4.94-2.37c1.285-.628 2.741-.942 4.169-.97L30.247 17h.029c1.513 0 2.97.428 4.226 1.228l3.74 2.427c.943.6 2.028.97 3.113 1.028l11.707.828c1.199.057 2.37.314 3.483.685l2.798.97c.4.144.657.486.657.886v.229c0 .885-.114 1.741-.314 2.598a2.804 2.804 0 0 1-1.085 1.713 10.562 10.562 0 0 1-2.941 1.485l-1.6.485c-.463.128-.92.23-1.371.303-.505 2.054-2.377 3.495-4.51 3.495-2.1 0-3.939-1.406-4.473-3.398Z" fill="#F0F" style="mix-blend-mode:overlay"/></svg>