<svg width="60" height="35" fill="none" xmlns="http://www.w3.org/2000/svg"><path fill-rule="evenodd" clip-rule="evenodd" d="M1.14 30.152c-.368 0-.708-.198-.934-.509-.226-.283-.255-.679-.141-1.047.509-1.443 1.726-4.413 4.074-7.809a41.577 41.577 0 0 1 4.329-5.178c5.093-5.092 17.91-5.687 25.097-5.602a8.579 8.579 0 0 1 6.14 2.716c.678.736 1.584 1.698 1.924 2.122.226.227.509.368.848.368 2.32-.085 10.3.029 14.657 4.358.245.245.471.5.679.763 1.075 1.302 1.754 2.887 2.065 4.64l.057.453c.018.02.028.038.028.057v.198c.019.094.028.189.028.283.085.792-.453 1.5-1.216 1.641l-.057.028-1.585.255c-.17.028-.34-.085-.424-.255-.65-1.867-2.461-3.14-4.47-3.14a4.73 4.73 0 0 0-4.754 4.583c0 .198-.141.34-.311.368l-2.15.34h-.057l-2.377.028-25.662.226c-.113 0-.227-.028-.283-.113a.405.405 0 0 1-.113-.283c.019-.132.028-.264.028-.396a4.746 4.746 0 0 0-4.753-4.753 4.746 4.746 0 0 0-4.754 4.753v.481c.029.085 0 .198-.085.283-.056.085-.17.113-.283.113l-.17.029H1.14Zm31.293-19.41c-6.196 0-18.674.623-23.456 5.405a40.504 40.504 0 0 0-4.244 5.093c-2.292 3.31-3.48 6.196-3.99 7.611a.433.433 0 0 0 .057.368c.085.113.198.17.34.17h5.12v-.142c0-3.027 2.49-5.517 5.517-5.517a5.524 5.524 0 0 1 5.518 5.517v.028h2.461l25.153-.254 1.811-.283a5.487 5.487 0 0 1 5.49-5.008 5.534 5.534 0 0 1 5.092 3.367l1.302-.227a.8.8 0 0 0 .622-.848c0-.095-.01-.18-.028-.255a.626.626 0 0 0-.028-.198v-.028a25.44 25.44 0 0 0-.057-.425c-.283-1.64-.934-3.084-1.896-4.3a11.599 11.599 0 0 0-.65-.708c-4.131-4.13-11.827-4.216-14.09-4.16a1.67 1.67 0 0 1-1.415-.622c-.283-.31-.962-1.046-1.924-2.093a7.806 7.806 0 0 0-5.603-2.49h-1.103Z" fill="#00082B"/><path d="M16.927 29.247v.425c-.226 2.63-2.433 4.725-5.12 4.725a5.157 5.157 0 0 1-5.15-5.15 5.15 5.15 0 0 1 5.15-5.15c2.829 0 5.12 2.32 5.12 5.15Z" fill="#353D4A"/><path fill-rule="evenodd" clip-rule="evenodd" d="M11.807 34.764a5.503 5.503 0 0 1-5.49-4.98 4.874 4.874 0 0 1-.027-.537 5.524 5.524 0 0 1 5.517-5.517c3.027 0 5.517 2.49 5.517 5.517 0 .151-.01.302-.028.453-.226 2.83-2.631 5.064-5.49 5.064Zm0-10.27a4.746 4.746 0 0 0-4.754 4.753v.481a4.76 4.76 0 0 0 4.754 4.273c2.461 0 4.527-1.924 4.725-4.358.019-.132.028-.264.028-.396a4.746 4.746 0 0 0-4.753-4.753Z" fill="#00082B"/><path d="M11.806 32.53c-1.641 0-3-1.218-3.225-2.802a1.977 1.977 0 0 1-.057-.481 3.284 3.284 0 0 1 3.282-3.282c1.783 0 3.254 1.471 3.254 3.282 0 .15-.01.292-.029.424a3.266 3.266 0 0 1-3.225 2.858Z" fill="#CBD7E3"/><path fill-rule="evenodd" clip-rule="evenodd" d="M11.807 32.755c-1.726 0-3.226-1.273-3.48-2.97a2.744 2.744 0 0 1-.057-.538c0-1.952 1.584-3.508 3.537-3.508a3.508 3.508 0 0 1 3.508 3.508c0 .142 0 .283-.028.453a3.51 3.51 0 0 1-3.48 3.055Zm0-6.535a3.03 3.03 0 0 0-3.028 3.027c0 .151.01.302.029.453a3.064 3.064 0 0 0 2.999 2.575c1.5 0 2.773-1.132 2.97-2.632.02-.15.029-.283.029-.396 0-1.67-1.33-3.027-3-3.027Z" fill="#00082B"/><path d="M57.388 29.247c0 2.83-2.32 5.15-5.15 5.15-2.829 0-5.12-2.32-5.12-5.15v-.17a5.128 5.128 0 0 1 5.12-4.98c2.236 0 4.131 1.444 4.839 3.424a4.92 4.92 0 0 1 .31 1.726Z" fill="#353D4A"/><path fill-rule="evenodd" clip-rule="evenodd" d="M52.239 34.764a5.524 5.524 0 0 1-5.517-5.517v-.198a5.504 5.504 0 0 1 5.517-5.32 5.563 5.563 0 0 1 5.206 3.65c.198.595.311 1.217.311 1.868a5.506 5.506 0 0 1-5.517 5.517Zm0-10.27a4.73 4.73 0 0 0-4.753 4.583v.17a4.746 4.746 0 0 0 4.753 4.754 4.746 4.746 0 0 0 4.47-6.367c-.65-1.895-2.461-3.14-4.47-3.14Z" fill="#00082B"/><path d="M52.238 32.53c-1.81 0-3.254-1.472-3.254-3.283 0-.15.01-.311.029-.481a3.263 3.263 0 0 1 3.225-2.801c1.302 0 2.405.764 2.943 1.839.198.424.34.934.34 1.443a3.284 3.284 0 0 1-3.283 3.282Z" fill="#CBD7E3"/><path fill-rule="evenodd" clip-rule="evenodd" d="M52.239 32.755a3.49 3.49 0 0 1-3.508-3.508c0-.17.009-.34.028-.51a3.527 3.527 0 0 1 3.48-2.998c1.358 0 2.575.735 3.169 1.952.245.49.368 1.009.368 1.556 0 1.952-1.585 3.508-3.537 3.508Zm0-6.535a3.016 3.016 0 0 0-2.97 2.603 1.54 1.54 0 0 0-.057.424 3.03 3.03 0 0 0 3.027 3.028 3.03 3.03 0 0 0 3.027-3.028 2.94 2.94 0 0 0-.31-1.33 3.006 3.006 0 0 0-2.717-1.697Z" fill="#00082B"/><path d="M10.25 20.306c-.113 0-.197-.056-.226-.17-.028-.141.029-.282.17-.31.141-.03 3.565-.793 17.4-.793 6.282 0 10.583-.255 14.063-.453 4.216-.254 7.045-.424 10.469.057.113 0 .226.141.198.283-.029.141-.142.226-.283.198-3.367-.453-6.168-.283-10.356-.057-3.48.227-7.78.453-14.09.453-13.751 0-17.231.792-17.288.792h-.056Zm14.968 7.923a.254.254 0 0 1-.254-.255l-.227-7.64c0-.141.085-.254.227-.254.141 0 .254.113.283.255l.226 7.639a.254.254 0 0 1-.255.255Zm14.373-.425c-.141 0-.255-.113-.255-.226v-6.932c0-.142.114-.255.255-.255.142 0 .255.113.255.255v6.932c0 .113-.113.226-.255.226Z" fill="#00082B"/><path d="M25.388 13.204v3.594c0 .566-.453 1.018-1.019 1.018h-9.648a.417.417 0 0 1-.425-.424v-.113c.227-1.132 1.217-2.179 2.518-3 1.953-1.273 4.613-2.093 6.395-2.093h1.16c.566 0 1.019.453 1.019 1.018Z" fill="#CBD7E3"/><path fill-rule="evenodd" clip-rule="evenodd" d="M24.37 18.071h-9.65a.688.688 0 0 1-.679-.68v-.169c.255-1.103 1.16-2.207 2.631-3.169 1.924-1.245 4.612-2.122 6.536-2.122h1.16c.68 0 1.273.566 1.273 1.273v3.594c0 .707-.594 1.273-1.273 1.273Zm-1.16-5.63c-1.812 0-4.443.848-6.254 2.037-.962.622-2.15 1.612-2.405 2.857v.057c0 .085.057.17.17.17h9.648a.76.76 0 0 0 .764-.764v-3.594a.76.76 0 0 0-.764-.764h-1.16Z" fill="#00082B"/><path d="M39.082 17.816H27.595a.894.894 0 0 1-.905-.905v-3.82c0-.509.396-.905.905-.905h6.366c.075 0 .189.01.34.028a7.348 7.348 0 0 1 4.102 2.462c.17.207.33.415.481.622l.849 1.217c.34.537 0 1.301-.65 1.301Z" fill="#CBD7E3"/><path fill-rule="evenodd" clip-rule="evenodd" d="M39.081 18.071H27.594c-.65 0-1.16-.51-1.16-1.16v-3.82c0-.65.51-1.16 1.16-1.16h6.366c.095 0 .227.02.396.057a7.62 7.62 0 0 1 4.244 2.546c.19.208.35.415.481.623l.85 1.216c.226.34.254.764.056 1.132-.17.34-.51.538-.877.566h-.029Zm-11.487-5.63c-.368 0-.679.282-.679.65v3.82c0 .368.311.65.68.65h11.487a.504.504 0 0 0 .452-.282c.113-.198.113-.453-.028-.623l-.849-1.216a39.883 39.883 0 0 0-.424-.595c-1.047-1.216-2.462-2.065-3.99-2.376-.198-.028-.254-.028-.283-.028h-6.366Z" fill="#00082B"/><path d="M19.814 28.907c0 .246-.01.491-.029.736h-1.5c.02-.132.029-.264.029-.396a6.508 6.508 0 0 0-13.015 0c0 .17.01.34.028.51H2.158a12.761 12.761 0 0 1-.028-.85c0-4.866 3.961-8.855 8.828-8.855 4.894 0 8.856 3.989 8.856 8.855Z" fill="#CBD7E3"/><path fill-rule="evenodd" clip-rule="evenodd" d="M5.327 30.011H2.158c-.113 0-.226-.085-.254-.226a14.072 14.072 0 0 1-.029-.878c0-5.008 4.075-9.082 9.083-9.082 5.036 0 9.11 4.075 9.11 9.082 0 .227-.009.482-.028.765 0 .113-.113.226-.255.226h-1.499c-.057.028-.142-.029-.17-.057a.271.271 0 0 1-.085-.198c.02-.132.029-.264.029-.396a6.255 6.255 0 0 0-6.253-6.253 6.255 6.255 0 0 0-6.253 6.253v.51c.019.056 0 .112-.057.17-.057.056-.113.084-.17.084Zm-2.942-.51h2.66v-.254a6.762 6.762 0 0 1 6.762-6.762c3.706 0 6.762 3.027 6.762 6.762v.142h.99v-.482c0-4.724-3.848-8.6-8.601-8.6-4.725 0-8.573 3.876-8.573 8.6v.595Z" fill="#00082B"/><path d="M59.623 25.993a1.15 1.15 0 0 1-.934 1.245c-.019.02-.037.029-.056.029l-.142.028a8.155 8.155 0 0 0-.396-.934 6.521 6.521 0 0 0-5.857-3.65c-3.282 0-5.998 2.434-6.479 5.602a7.528 7.528 0 0 0-.057.934v.057l-.735.113-.481.028a9.197 9.197 0 0 1-.057-1.018c0-5.263 2.377-9.564 7.64-9.564.018 0 .037.01.056.029 3.791 0 6.989 2.886 7.441 6.62.02.151.038.311.057.481Z" fill="#CBD7E3"/><path fill-rule="evenodd" clip-rule="evenodd" d="M44.486 29.672a.272.272 0 0 1-.255-.199 9.48 9.48 0 0 1-.056-1.046c0-6.14 2.97-9.79 7.894-9.79h.056c3.905 0 7.215 2.97 7.696 6.847.02.15.038.311.057.481.056.736-.425 1.386-1.132 1.528a.216.216 0 0 0-.085.028l-.141.028c-.113 0-.255-.056-.283-.198a6.72 6.72 0 0 0-.368-.877c-1.047-2.178-3.225-3.508-5.63-3.508-3.113 0-5.772 2.32-6.225 5.376a7.298 7.298 0 0 0-.057.905v.057c0 .113-.085.226-.226.254l-.736.114h-.509Zm7.583-10.554c-4.612 0-7.385 3.48-7.385 9.309 0 .264.01.509.028.735h.227l.509-.085c.019-.283.047-.556.085-.82.48-3.31 3.367-5.8 6.706-5.8 2.603 0 4.951 1.442 6.083 3.79.132.246.245.5.34.765.452-.113.763-.538.707-.99 0-.17-.02-.33-.057-.481-.453-3.622-3.537-6.395-7.187-6.423h-.056Z" fill="#00082B"/><path d="M25.388 13.204v2.292c-3.112-.17-6.027-.594-8.573-1.216 1.952-1.274 4.612-2.094 6.394-2.094h1.16c.566 0 1.019.453 1.019 1.018Zm13.015 1.472c-2.943.594-6.282.905-9.818.905-.642 0-1.274-.01-1.896-.028V13.09c0-.51.396-.905.905-.905h6.367c.075 0 .188.01.339.028a7.348 7.348 0 0 1 4.103 2.462Z" fill="#fff" style="mix-blend-mode:overlay" opacity=".3"/><path d="M56.85 19.854a8.373 8.373 0 0 1-.566.31c-3.254 1.84-7.102 3.311-11.346 4.386a57.059 57.059 0 0 1-5.347 1.075 67.537 67.537 0 0 1-10.016.736 68.33 68.33 0 0 1-4.414-.141 67.063 67.063 0 0 1-5.998-.651 73.35 73.35 0 0 1-2.32-.424 53.828 53.828 0 0 1-7.3-1.981 46.663 46.663 0 0 1-3.679-1.471l-1.414-.68a35.308 35.308 0 0 1 4.3-5.12c5.093-5.094 18.392-5.603 24.814-5.518a8.057 8.057 0 0 1 5.857 2.603c.82.877 1.613 1.726 1.924 2.122a1.54 1.54 0 0 0 1.132.481c2.32-.085 10.129.028 14.373 4.273Z" fill="#fff" style="mix-blend-mode:overlay" opacity=".3"/></svg>