<svg width="60" height="35" fill="none" xmlns="http://www.w3.org/2000/svg"><path fill-rule="evenodd" clip-rule="evenodd" d="M58.03 30.552h-2.123a4.825 4.825 0 0 1-4.801 4.433c-2.5 0-4.578-1.957-4.774-4.433h-30.46a4.825 4.825 0 0 1-4.802 4.433c-2.51 0-4.594-1.972-4.776-4.462l-3.954-.765c-.903-.191-1.642-.875-1.861-1.778L.04 26.31a2.395 2.395 0 0 0-.012-.066c-.032-.16-.073-.372.094-.563.164-.247.465-.274.684-.274h.055v-.027l-.11-1.916a2.705 2.705 0 0 1-.027-.383v-.356c-.027-.657.028-1.34.11-2.025l.273-2.134a20.54 20.54 0 0 1 .684-3.065 19.046 19.046 0 0 1 1.998-4.434c.22-.328.493-.602.849-.766A2.194 2.194 0 0 1 5.733 10h34.481c1.314 0 2.573.41 3.667 1.177l5.966 4.597a5.483 5.483 0 0 0 1.916.958l.684.192c.821.218 1.56.574 2.19 1.094l3.803 3.065c.091.073.173.155.246.247.41.437.63 1.012.63 1.614l-.028 2.573c0 .036.019.063.055.082.41.219.657.656.657 1.122v.848c0 .301-.11.575-.274.821l-.574.684a.82.82 0 0 0-.165.493.95.95 0 0 1-.273.684.89.89 0 0 1-.684.3Z" fill="#F0F" style="mix-blend-mode:overlay"/></svg>