<svg width="60" height="36" fill="none" xmlns="http://www.w3.org/2000/svg"><path fill-rule="evenodd" clip-rule="evenodd" d="M44.751 31.92H18.606a.434.434 0 0 1-.313-.17c-.085-.086-.085-.229-.057-.342.152-.456.228-.92.228-1.394 0-.588-.114-1.148-.342-1.679a4.413 4.413 0 0 0-4.125-2.788c-1.28 0-2.503.54-3.328 1.48a4.474 4.474 0 0 0-1.167 2.987c0 .474.076.929.228 1.365a.543.543 0 0 1-.057.37.457.457 0 0 1-.313.142c-.455-.019-.92-.066-1.394-.142l-4.637-.711a4.14 4.14 0 0 1-2.134-1.081 3.772 3.772 0 0 1-.882-1.28A4.113 4.113 0 0 1 0 27.111v-.484c0-.683.17-1.337.512-1.878l.2-.398c.075-.19.123-.38.141-.569.02-.095.029-.18.029-.256l.2-2.475a3.22 3.22 0 0 0-.03-.74L.94 19.8c-.057-.284 0-.569.199-.768a.97.97 0 0 1 .711-.313l1.423.114a9.976 9.976 0 0 0 4.38-.654l5.72-2.19c.208-.077.464-.162.767-.257 6.97-2.333 14.623-2.304 21.537.057.493.152.872.294 1.138.427l6.515 2.93c1.11.512 2.276.853 3.499 1.053l9.36 1.564c.626.114 1.223.37 1.735.768.38.304.692.664.939 1.082l.626 1.024c.341.597.512 1.28.512 1.963v1.024a3.815 3.815 0 0 1-3.101 3.755l-.939.2a14.25 14.25 0 0 1-1.934.255.286.286 0 0 1-.313-.142.374.374 0 0 1-.086-.341c.133-.436.2-.882.2-1.337a4.494 4.494 0 0 0-2.902-4.182 4.32 4.32 0 0 0-1.565-.285 4.532 4.532 0 0 0-3.47 1.622c-.655.796-.997 1.82-.997 2.845 0 .474.067.939.2 1.394a.36.36 0 0 1-.029.341c-.085.085-.2.17-.313.17Zm-25.661-.768h25.149a5.786 5.786 0 0 1-.114-1.138c0-1.195.427-2.39 1.195-3.329a5.274 5.274 0 0 1 4.04-1.906c.626 0 1.233.114 1.82.341 2.049.74 3.415 2.732 3.415 4.894 0 .341-.029.682-.086 1.024.417-.057.854-.123 1.309-.2l.939-.198a3.077 3.077 0 0 0 2.503-3.016V26.6c0-.57-.17-1.11-.426-1.565l-.626-1.024a3.008 3.008 0 0 0-.74-.882 3.203 3.203 0 0 0-1.394-.598l-9.36-1.564a15.067 15.067 0 0 1-3.698-1.138l-6.515-2.93a10.34 10.34 0 0 0-1.081-.399c-6.743-2.304-14.225-2.333-21.053-.057-.285.095-.522.18-.711.256l-5.719 2.19a10.691 10.691 0 0 1-4.722.712l-1.423-.114c-.057 0-.085.029-.085.057-.028 0-.029.029-.029.086l.114.512c.057.322.076.654.057.995l-.199 2.447a1.915 1.915 0 0 0-.028.313 3.047 3.047 0 0 1-.2.711c-.075.171-.16.342-.256.512a3.06 3.06 0 0 0-.398 1.508v.484c0 .436.085.853.256 1.252.17.398.408.749.711 1.052.484.455 1.081.768 1.736.854l4.609.74c.265.037.521.066.768.085a6.92 6.92 0 0 1-.086-1.081c0-1.309.456-2.532 1.338-3.5a5.194 5.194 0 0 1 3.897-1.735c2.134 0 4.012 1.28 4.837 3.272.256.597.37 1.28.37 1.963 0 .379-.039.758-.114 1.138Z" fill="#00082B"/><path d="M18.834 30.014a4.92 4.92 0 0 1-.228 1.508c-.654 1.934-2.475 3.357-4.609 3.357a4.889 4.889 0 0 1-4.637-3.357 4.918 4.918 0 0 1-.228-1.508 4.863 4.863 0 0 1 4.865-4.865c2.675 0 4.837 2.19 4.837 4.865Z" fill="#353D4A"/><path fill-rule="evenodd" clip-rule="evenodd" d="M13.997 35.248a5.236 5.236 0 0 1-5.007-3.613 5.875 5.875 0 0 1-.227-1.621 5.239 5.239 0 0 1 5.234-5.235c2.874 0 5.235 2.361 5.235 5.235 0 .569-.095 1.11-.284 1.621a5.191 5.191 0 0 1-4.95 3.613Zm0-9.7c-2.475 0-4.495 1.99-4.495 4.466 0 .474.076.929.228 1.365.597 1.878 2.304 3.101 4.267 3.101a4.432 4.432 0 0 0 4.24-3.072 4.38 4.38 0 0 0 .227-1.394 4.474 4.474 0 0 0-4.467-4.467Z" fill="#00082B"/><path fill-rule="evenodd" clip-rule="evenodd" d="M13.997 33.598c-1.365 0-2.589-.74-3.186-1.963a3.475 3.475 0 0 1-.398-1.621 3.588 3.588 0 0 1 3.584-3.585c1.963 0 3.556 1.622 3.556 3.585a3.68 3.68 0 0 1-.37 1.621 3.566 3.566 0 0 1-3.186 1.963Zm0-6.657a3.078 3.078 0 0 0-3.072 3.073c0 .493.104.957.313 1.394a3.07 3.07 0 0 0 2.76 1.678c1.137 0 2.19-.626 2.73-1.678a3.49 3.49 0 0 0 .342-1.394c0-1.679-1.394-3.073-3.073-3.073Z" fill="#00082B"/><path d="M17.297 30.014c0 .54-.114 1.052-.341 1.508-.57 1.08-1.679 1.82-2.959 1.82-1.309 0-2.418-.74-2.987-1.82a3.352 3.352 0 0 1-.341-1.508 3.333 3.333 0 0 1 3.328-3.329c1.82 0 3.3 1.508 3.3 3.329Z" fill="#CBD7E3"/><path fill-rule="evenodd" clip-rule="evenodd" d="M13.997 33.598c-1.365 0-2.589-.74-3.186-1.963a3.475 3.475 0 0 1-.398-1.621 3.588 3.588 0 0 1 3.584-3.585c1.963 0 3.556 1.622 3.556 3.585a3.68 3.68 0 0 1-.37 1.621 3.566 3.566 0 0 1-3.186 1.963Zm0-6.657a3.078 3.078 0 0 0-3.072 3.073c0 .493.104.957.313 1.394a3.07 3.07 0 0 0 2.76 1.678c1.137 0 2.19-.626 2.73-1.678a3.49 3.49 0 0 0 .342-1.394c0-1.679-1.394-3.073-3.073-3.073Z" fill="#00082B"/><path d="M54.225 30.014c0 .512-.076.995-.228 1.45-.626 1.964-2.446 3.415-4.637 3.415a4.853 4.853 0 0 1-4.609-3.357 4.418 4.418 0 0 1-.256-1.508 4.88 4.88 0 0 1 4.865-4.865c2.674 0 4.865 2.19 4.865 4.865Z" fill="#353D4A"/><path fill-rule="evenodd" clip-rule="evenodd" d="M49.36 35.248a5.227 5.227 0 0 1-5.235-5.234c0-2.874 2.361-5.235 5.235-5.235 2.873 0 5.234 2.361 5.234 5.235a5.47 5.47 0 0 1-.227 1.564 5.224 5.224 0 0 1-5.007 3.67Zm0-9.7a4.456 4.456 0 0 0-4.467 4.466c0 .474.067.939.2 1.394a4.494 4.494 0 0 0 4.267 3.072c1.963 0 3.698-1.252 4.267-3.13.133-.436.2-.881.2-1.336a4.456 4.456 0 0 0-4.467-4.467Z" fill="#00082B"/><path fill-rule="evenodd" clip-rule="evenodd" d="M49.36 33.598c-1.337 0-2.56-.74-3.186-1.963a3.475 3.475 0 0 1-.399-1.621c0-1.963 1.622-3.585 3.585-3.585 1.963 0 3.585 1.622 3.585 3.585 0 .569-.133 1.11-.399 1.621a3.566 3.566 0 0 1-3.186 1.963Zm0-6.657a3.078 3.078 0 0 0-3.072 3.073c0 .493.113.957.34 1.394.513 1.052 1.566 1.678 2.732 1.678a3.047 3.047 0 0 0 2.731-1.678 2.97 2.97 0 0 0 .342-1.394 3.078 3.078 0 0 0-3.073-3.073Z" fill="#00082B"/><path d="M52.688 30.014c0 .54-.142 1.052-.37 1.508a3.32 3.32 0 0 1-2.958 1.82 3.32 3.32 0 0 1-2.959-1.82 3.373 3.373 0 0 1-.37-1.508c0-1.821 1.508-3.329 3.329-3.329 1.82 0 3.328 1.508 3.328 3.329Z" fill="#CBD7E3"/><path fill-rule="evenodd" clip-rule="evenodd" d="M49.36 33.598c-1.337 0-2.56-.74-3.186-1.963a3.475 3.475 0 0 1-.399-1.621c0-1.963 1.622-3.585 3.585-3.585 1.963 0 3.585 1.622 3.585 3.585 0 .569-.133 1.11-.399 1.621a3.566 3.566 0 0 1-3.186 1.963Zm0-6.657a3.078 3.078 0 0 0-3.072 3.073c0 .493.113.957.34 1.394.513 1.052 1.566 1.678 2.732 1.678a3.047 3.047 0 0 0 2.731-1.678 2.97 2.97 0 0 0 .342-1.394 3.078 3.078 0 0 0-3.073-3.073Z" fill="#00082B"/><path d="m5.036 22.105-1.138 2.361H1.053a3.56 3.56 0 0 0 .227-.91l.171-2.276 3.585.825Z" fill="#FF4D4D"/><path fill-rule="evenodd" clip-rule="evenodd" d="M3.897 24.722H1.052c-.085 0-.17-.028-.199-.114-.057-.057-.057-.142-.028-.227.114-.266.18-.54.199-.825l.17-2.276c0-.086.058-.143.114-.2.057-.028.114-.056.2-.028l3.584.825c.057 0 .114.057.171.114a.315.315 0 0 1 0 .227L4.125 24.58c-.057.085-.142.142-.228.142Zm-2.475-.512h2.305l.939-1.935-2.988-.682-.17 1.991c0 .209-.029.417-.086.626Z" fill="#00082B"/><path d="M54.224 24.238h-.028l-49.19-1.877c-.141 0-.227-.114-.227-.256 0-.143.114-.256.256-.256l49.19 1.877c.142 0 .256.114.256.256-.029.143-.143.256-.257.256Z" fill="#00082B"/><path d="m58.577 25.746-2.332-.057a1.792 1.792 0 0 1-1.537-.882l-.483-.825 2.133-.113a1.775 1.775 0 0 1 1.707.938l.512.94Z" fill="#CBD7E3"/><path fill-rule="evenodd" clip-rule="evenodd" d="m58.578 26.002-2.333-.057a2.08 2.08 0 0 1-1.764-1.024l-.484-.796a.213.213 0 0 1 0-.256.214.214 0 0 1 .2-.143l2.133-.113a2.098 2.098 0 0 1 1.963 1.08l.512.911c.029.085.029.2 0 .256-.057.085-.142.142-.227.142ZM54.65 24.21l.285.455c.256.484.768.768 1.337.797l1.878.028-.313-.569a1.617 1.617 0 0 0-1.48-.825l-1.706.114Z" fill="#00082B"/><path d="m42.589 21.763-25.207-.825c-.91-.028-1.764-.426-2.333-1.11l-.91-1.08.57-.342a21.307 21.307 0 0 1 2.275-1.166 19.48 19.48 0 0 1 3.983-1.195 20.23 20.23 0 0 1 3.386-.285h3.328c1.65 0 3.3.2 4.865.626l1.081.285c1.451.398 2.873.967 4.21 1.678a18.845 18.845 0 0 1 2.447 1.622l2.305 1.792Z" fill="#2196FF"/><path fill-rule="evenodd" clip-rule="evenodd" d="m42.589 22.02-25.235-.826A3.504 3.504 0 0 1 14.851 20l-.91-1.08c-.058-.058-.086-.114-.058-.2a.19.19 0 0 1 .114-.17l.598-.37a21.85 21.85 0 0 1 2.304-1.167c1.28-.54 2.646-.939 4.04-1.195 1.11-.227 2.276-.313 3.414-.313h3.328c1.679 0 3.329.2 4.95.626l1.053.285c1.48.398 2.93.995 4.268 1.735a20.93 20.93 0 0 1 2.503 1.622l2.305 1.792c.085.057.113.2.085.285-.029.113-.142.17-.256.17Zm-28.08-3.187.74.825c.512.626 1.308.996 2.133 1.024l24.439.797-1.679-1.309a24.105 24.105 0 0 0-2.447-1.593 18.072 18.072 0 0 0-4.153-1.65l-1.053-.285a18.312 18.312 0 0 0-4.808-.654h-3.328a18.45 18.45 0 0 0-7.255 1.508c-.768.313-1.508.683-2.248 1.138l-.34.199Z" fill="#00082B"/><path d="M28.364 21.564a.273.273 0 0 1-.256-.199L26.8 15.817a.262.262 0 0 1 .2-.313c.142-.028.256.057.313.171l1.308 5.576c.029.142-.057.256-.199.285-.019.019-.038.028-.057.028Zm-17.439 4.95a.193.193 0 0 1-.143-.056l-.853-.57a5.722 5.722 0 0 0-3.016-1.024l-3.044-.142c-.142 0-.227-.114-.227-.256 0-.142.113-.256.256-.256l3.044.17a6.403 6.403 0 0 1 3.271 1.082l.854.569a.27.27 0 0 1 .057.37.24.24 0 0 1-.2.113Zm32.062 3.983L22.19 30.27a2.37 2.37 0 0 1-.625-.086 2.803 2.803 0 0 1-.882-.37c-.114-.085-.142-.227-.057-.34.057-.115.227-.172.341-.086a2.147 2.147 0 0 0 1.224.37l20.796.227c.142 0 .256.114.256.256a.255.255 0 0 1-.256.256Z" fill="#00082B"/><path d="M37.838 18.35c-2.674.767-5.69 1.194-8.876 1.194-4.524 0-8.677-.853-11.978-2.304a19.46 19.46 0 0 1 3.983-1.195 20.22 20.22 0 0 1 3.386-.285h3.328c1.65 0 3.3.2 4.865.626l1.081.285c1.451.398 2.874.967 4.21 1.678Z" fill="#fff" style="mix-blend-mode:overlay" opacity=".3"/><path d="M57.695 22.816c-2.02.996-4.239 1.878-6.628 2.646a57.391 57.391 0 0 1-5.463 1.48c-5.234 1.166-11.095 1.82-17.24 1.82-3.414 0-6.714-.2-9.872-.57a74.984 74.984 0 0 1-8.108-1.422c-3.329-.768-6.401-1.764-9.16-2.93l.056-.284.17-2.276v-.2a2.583 2.583 0 0 0-.028-.853l-.114-.512c-.056-.341.2-.626.513-.598l1.422.114a11.3 11.3 0 0 0 4.552-.683l5.718-2.19c.19-.076.437-.161.74-.256 6.913-2.305 14.395-2.305 21.28.028.484.171.854.313 1.138.427l6.487 2.93c1.166.512 2.361.882 3.613 1.11l9.36 1.536a3.87 3.87 0 0 1 1.564.683Z" fill="#fff" style="mix-blend-mode:overlay" opacity=".3"/></svg>