<svg width="140" height="48" viewBox="0 0 140 48" fill="none" xmlns="http://www.w3.org/2000/svg">
<path fill-rule="evenodd" clip-rule="evenodd" d="M26.1626 21.9309V38.9878C26.1626 39.0863 26.1465 39.2995 25.9925 39.3845C23.5175 41.1278 20.2404 42 16.1613 42C8.77054 42 0 39.7245 0 24.4503C0 9.17607 7.66052 6 15.1288 6C21.6116 6 24.1778 7.43527 24.5979 7.73587C24.7519 7.84675 24.7975 8.00938 24.7975 8.14366L23.5495 13.4277C23.5495 13.716 23.2489 14.04 22.9237 13.9414C22.8189 13.909 22.708 13.8731 22.5896 13.8347C21.5364 13.4933 19.878 12.9558 16.4816 12.9558C12.1166 12.9558 7.46833 14.2482 7.46833 24.0671C7.46833 33.8849 11.9331 35.0528 15.1288 35.0528C16.9349 35.0528 18.1645 34.9419 18.8174 34.7189V27.9233H14.4537C14.1654 27.9233 13.9313 27.688 13.9313 27.3997V21.9309C13.9313 21.6426 14.1654 21.4073 14.4537 21.4073H25.6402C25.9285 21.4073 26.1626 21.6414 26.1626 21.9309ZM83.2912 40.7878C83.2912 41.0785 83.0596 41.315 82.7713 41.315H76.4574C76.1691 41.315 75.9362 41.0785 75.9362 40.7878L75.9362 40.7693C75.9367 40.4411 75.9428 35.7484 75.9535 26.6901H66.1357V40.7878C66.1357 41.0785 65.9041 41.315 65.6158 41.315H59.3179C59.0308 41.315 58.798 41.0785 58.798 40.7878V7.8283C58.798 7.53756 59.0321 7.30225 59.3179 7.30225H65.6158C65.9041 7.30225 66.1357 7.53756 66.1357 7.8283V20.0004H75.9535C75.9522 11.8865 75.9522 7.8283 75.9522 7.8283C75.9522 7.53756 76.1863 7.30225 76.4734 7.30225H82.7725C83.0608 7.30225 83.2912 7.53756 83.2912 7.8283V40.7878ZM29.4039 12.1525C29.4039 14.4182 31.2236 16.2563 33.4646 16.2563C35.708 16.2563 37.5265 14.4182 37.5265 12.1525C37.5265 9.88444 35.708 8.05124 33.4646 8.05124C31.2236 8.05124 29.4039 9.88444 29.4039 12.1525ZM37.0768 40.4686C37.0768 41.0045 36.9252 41.31 36.3043 41.31H30.647C30.1308 41.31 29.7316 41.1191 29.7316 40.4784V18.6808C29.7316 18.3925 29.9891 18.0944 30.2774 18.0944H36.5569C36.8452 18.0944 37.078 18.3309 37.078 18.6192V33.8331V40.4673L37.0768 40.4686ZM107.754 40.7976L107.751 18.6723V18.671C107.751 18.3803 107.518 18.1437 107.23 18.1437H100.979C100.692 18.1437 100.459 18.3803 100.459 18.671V34.8323C99.4007 35.6072 98.1207 35.994 96.6177 35.994C94.3644 35.994 93.7656 34.9715 93.7656 32.765V18.671C93.7656 18.3803 93.5328 18.1437 93.2457 18.1437H86.9022C86.6151 18.1437 86.3811 18.3803 86.3811 18.671V33.8319C86.3811 40.3861 90.0339 41.9901 95.0592 41.9901C97.8078 41.9901 100.29 41.2312 102.507 39.7122C102.613 40.513 102.689 40.9602 102.737 41.0551C102.808 41.198 102.994 41.3409 103.197 41.3409L107.233 41.3236C107.52 41.3236 107.754 41.0871 107.754 40.7976ZM133.123 28.8917C133.123 39.0506 129.831 41.9631 124.091 41.9631C120.831 41.9631 118.34 41.1475 116.619 39.5151C116.514 40.4108 116.426 40.9171 116.353 41.0354C116.242 41.214 116.093 41.315 115.896 41.315H111.514C111.225 41.315 110.993 41.0785 110.993 40.7878V7.8283C110.993 7.53756 111.225 7.30225 111.514 7.30225H117.83C118.117 7.30225 118.35 7.53756 118.35 7.8283V18.9889C119.96 17.9331 121.947 17.4046 124.314 17.4046C127.867 17.4046 133.124 18.7327 133.124 28.8917H133.123ZM125.859 29.2866C125.859 23.9181 123.691 23.2381 121.44 23.4389C120.253 23.5448 119.177 23.8947 118.21 24.4873V34.9247C119.19 35.5801 120.402 35.93 121.848 35.9744C124.881 36.0655 125.859 34.9482 125.859 29.2866ZM55.7008 23.695V18.6192C55.7008 18.3285 55.4679 18.0944 55.1796 18.0944H50.4549L50.4475 11.8519C50.4475 11.6154 50.3256 11.4971 50.0521 11.4971H43.6137C43.3636 11.4971 43.2293 11.608 43.2293 11.8482V18.2989C41.0782 18.8176 39.93 19.0985 39.7847 19.1404C39.5678 19.2032 39.4077 19.404 39.4077 19.643V23.6963C39.4077 23.987 39.6405 24.2223 39.9288 24.2223H43.2305V33.9735C43.2305 41.2164 48.31 41.9273 51.7387 41.9273C53.3058 41.9273 55.1796 41.4246 55.4888 41.3101C55.6761 41.2411 55.7845 41.0476 55.7845 40.837L55.7895 36.3784C55.7895 36.0876 55.5443 35.8523 55.2671 35.8523C55.1618 35.8523 54.9944 35.8686 54.7872 35.8888C54.4512 35.9215 54.0109 35.9644 53.562 35.9644C51.2409 35.9644 50.4549 34.8852 50.4549 33.4881V24.2211H55.1796C55.4679 24.2211 55.7008 23.987 55.7008 23.695Z" fill="#4C4C4C"/>
</svg>
