<svg width="140" height="48" viewBox="0 0 140 48" fill="none" xmlns="http://www.w3.org/2000/svg">
<path fill-rule="evenodd" clip-rule="evenodd" d="M75.1813 14.825L81.5566 14.4145C81.702 15.4528 81.9686 16.2254 82.4049 16.7807C83.1079 17.6499 84.0775 18.0845 85.3622 18.0845C86.3076 18.0845 87.059 17.8672 87.5681 17.4085C88.0529 17.0463 88.3437 16.4668 88.3437 15.8632C88.3437 15.2838 88.0771 14.7283 87.6166 14.3662C87.1318 13.9316 85.9925 13.497 84.1987 13.1107C81.2657 12.4588 79.1567 11.5895 77.9205 10.4789C76.6843 9.44066 75.9812 7.91953 76.0297 6.30181C76.0297 5.19115 76.3691 4.08049 76.9994 3.16298C77.7266 2.12476 78.7204 1.30383 79.9081 0.845071C81.193 0.289739 82.9867 0 85.241 0C88.0044 0 90.1132 0.507043 91.5677 1.54527C93.0221 2.55937 93.8947 4.20121 94.1614 6.44669L87.859 6.80886C87.6893 5.84306 87.3499 5.14286 86.7924 4.68411C86.2349 4.22536 85.5076 4.00806 84.5623 4.00806C83.7866 4.00806 83.2048 4.17707 82.817 4.49096C82.4534 4.78069 82.211 5.2153 82.2353 5.6982C82.2353 6.06037 82.4292 6.39839 82.7201 6.6157C83.0352 6.90543 83.7866 7.17103 84.9743 7.41249C87.9074 8.04025 89.992 8.66801 91.2768 9.31993C92.5615 9.97184 93.4826 10.7686 94.0402 11.7103C94.0894 11.792 94.1365 11.8747 94.1816 11.9585C95.3218 9.14207 97.3314 6.48482 100.082 4.42005C106.957 -0.740593 116.129 -0.447695 120.514 5.34894C124.899 11.1456 122.655 20.0076 115.779 25.1683C115.474 25.3975 115.164 25.6158 114.85 25.8235C117.247 26.1861 119.178 27.0913 120.632 28.5393C121.609 29.513 122.347 30.6833 122.837 32.0498V26.0282H129.552V42.3018H140V47.6137H122.837V41.5649C122.678 42.0233 122.492 42.4538 122.28 42.8573C121.456 44.4508 120.171 45.7546 118.595 46.6238C116.971 47.5171 114.959 47.976 112.56 47.976C110.111 47.976 108.099 47.5895 106.5 46.8169C104.851 45.996 103.494 44.7164 102.597 43.147C101.603 41.4568 101.094 39.3562 101.094 36.821C101.094 33.3998 102.03 30.7063 103.88 28.7626C100.474 28.4469 97.3912 26.9408 95.3475 24.2394C94.2409 22.7767 93.5565 21.1188 93.2621 19.3744C92.5166 20.2629 91.574 20.9614 90.5012 21.4165C89.1194 22.0201 87.3742 22.334 85.2894 22.334C81.605 22.334 79.0598 21.6338 77.6296 20.2093C76.1995 18.7847 75.351 16.998 75.1813 14.825ZM7.52713 21.9477V0.386319H18.7019C20.7622 0.386319 22.362 0.555333 23.4529 0.917505C24.5195 1.25554 25.4648 1.95573 26.0951 2.89739C26.798 3.93561 27.1374 5.14286 27.1131 6.3984C27.1858 8.52315 26.0951 10.5513 24.2286 11.6137C23.5014 12.0242 22.7014 12.3139 21.8773 12.4588C22.4832 12.6278 23.0894 12.9175 23.6226 13.2555C24.0347 13.5935 24.374 13.9799 24.6892 14.3903C25.0528 14.8008 25.3679 15.2596 25.6345 15.7425L28.8827 21.996H21.2713L17.6837 15.3562C17.2232 14.511 16.8353 13.9557 16.4717 13.6901C15.9869 13.3521 15.4052 13.1831 14.8234 13.1831H14.2416V21.9477H7.52713ZM14.2416 9.12677H17.0777C17.6837 9.07848 18.2656 8.9819 18.8473 8.83704C19.2836 8.76459 19.6715 8.52315 19.9381 8.16097C20.5926 7.29175 20.4956 6.06037 19.6957 5.31187C19.2594 4.9497 18.411 4.75654 17.1989 4.75654H14.2416V9.12677ZM6 40.4669L12.3752 40.0564C12.5206 41.0946 12.7872 41.8672 13.2236 42.4225C13.9023 43.2917 14.8961 43.7506 16.1809 43.7506C17.1262 43.7506 17.8777 43.5332 18.3868 43.0744C18.8716 42.6881 19.1624 42.1328 19.1624 41.5292C19.1624 40.9497 18.8958 40.3944 18.4352 40.0323C17.9504 39.5977 16.8111 39.1631 14.9931 38.7766C12.06 38.1247 9.95114 37.2556 8.7149 36.1449C7.47865 35.1067 6.77568 33.5855 6.82416 31.9678C6.82416 30.8572 7.16353 29.7466 7.79377 28.829C8.52097 27.7907 9.51482 26.9698 10.7026 26.5111C11.9873 25.9558 13.7811 25.6661 16.0354 25.6661C18.7988 25.6661 20.9077 26.1731 22.362 27.2113C23.3826 27.9398 24.1048 28.9536 24.537 30.2693C24.9132 29.6314 25.3597 29.0545 25.8769 28.5392C27.7919 26.6318 30.4825 25.6661 33.9731 25.6661C36.7122 25.6661 38.8454 26.2214 40.421 27.3079C41.9723 28.4185 43.1359 30.1087 43.9116 32.3783L37.997 33.6822C37.8516 33.175 37.6334 32.668 37.3426 32.2334C36.9788 31.7264 36.5183 31.3401 35.9608 31.0503C35.4033 30.7606 34.773 30.6399 34.1428 30.6399C32.6157 30.6399 31.4521 31.2435 30.6522 32.4749C30.0462 33.3682 29.7311 34.7928 29.7311 36.7244C29.7311 39.1148 30.0947 40.7566 30.8219 41.6499C31.5491 42.5433 32.5673 42.9779 33.9004 42.9779C35.1851 42.9779 36.1547 42.6157 36.8092 41.9155C37.4638 41.167 37.9485 40.1288 38.2394 38.7768L44.1055 40.5393C43.7904 42.0121 43.1359 43.4126 42.2391 44.6439C41.4148 45.7304 40.324 46.5755 39.0878 47.1308C37.8274 47.6861 36.2274 47.976 34.2883 47.976C31.9369 47.976 29.9977 47.6378 28.5191 46.9618C27.1368 46.3401 25.939 45.2688 24.907 43.7669C24.7901 43.9929 24.6608 44.2132 24.5195 44.4266C23.7196 45.6097 22.6044 46.5272 21.2955 47.0825C19.9139 47.6861 18.1686 48 16.0839 48C12.3994 48 9.85418 47.2998 8.42401 45.8753C6.99385 44.4266 6.19392 42.6398 6 40.4669ZM18.6292 32.4749L23.6768 32.1848C23.3365 33.2164 23.1283 34.3629 23.051 35.623C22.7454 35.4151 22.4108 35.2189 22.0469 35.0343C20.7622 34.3824 18.6776 33.7545 15.7445 33.1268C14.5568 32.8853 13.8053 32.6197 13.4902 32.33C13.1993 32.1127 13.0054 31.7747 13.0054 31.4125C12.9812 30.9296 13.1993 30.495 13.5872 30.2053C13.975 29.8673 14.5568 29.6983 15.3324 29.6983C16.2778 29.6741 17.0293 29.8914 17.5625 30.3502C18.1201 30.8089 18.4595 31.5091 18.6292 32.4749ZM58.6254 26.0282H51.9351V47.6137H58.6254V38.8733H65.9458V47.6137H72.6846V41.98C72.8553 42.3888 73.0492 42.7776 73.2664 43.147C74.1633 44.7164 75.5207 45.996 77.1691 46.8169C78.7689 47.5895 80.7808 47.976 83.2291 47.976C85.6288 47.976 87.6408 47.5171 89.2648 46.6238C90.8405 45.7546 92.1252 44.4508 92.9494 42.8573C93.7978 41.2395 94.2341 39.1872 94.2341 36.6519C94.2341 33.175 93.2645 30.4709 91.3011 28.5393C89.3376 26.6077 86.5743 25.6419 82.9624 25.6419C79.4476 25.6419 76.6843 26.6318 74.7208 28.5876C73.8512 29.4538 73.1717 30.4763 72.6846 31.653V26.0282H65.9458V33.5855H58.6254V26.0282ZM78.4538 36.8451C78.4538 39.0182 78.8658 40.5876 79.6657 41.5534C80.4657 42.495 81.5808 42.978 82.9867 42.978C84.4168 42.978 85.5318 42.5191 86.3319 41.5775C87.1318 40.6359 87.5196 38.9699 87.5196 36.5554C87.5196 34.5272 87.1075 33.0302 86.2834 32.1127C85.4591 31.1711 84.3441 30.7123 82.9382 30.7123C81.702 30.664 80.5141 31.1952 79.69 32.1368C78.8658 33.0785 78.4538 34.648 78.4538 36.8451ZM108.996 41.5534C108.196 40.5876 107.784 39.0182 107.784 36.8451C107.784 34.648 108.196 33.0785 109.021 32.1368C109.82 31.1952 111.033 30.664 112.269 30.7123C113.675 30.7123 114.79 31.1711 115.614 32.1127C116.438 33.0302 116.85 34.5272 116.85 36.5554C116.85 38.9699 116.462 40.6359 115.662 41.5775C114.863 42.5191 113.747 42.978 112.317 42.978C110.911 42.978 109.796 42.495 108.996 41.5534ZM100.666 5.19136C94.0695 10.1426 92.1603 18.4218 96.1219 23.6581C100.083 28.8944 108.6 29.3482 115.196 24.397C121.792 19.4457 123.701 11.1665 119.74 5.93018C115.778 0.693882 107.262 0.240126 100.666 5.19136ZM101.118 13.2074L103.542 11.5172L106.524 15.7425C107.033 16.4187 107.421 17.143 107.712 17.9398C107.881 18.5434 107.833 19.1953 107.59 19.7747C107.275 20.4991 106.766 21.1028 106.088 21.5374C105.288 22.0927 104.609 22.4066 104.027 22.5031C103.47 22.5997 102.888 22.5031 102.355 22.2617C101.773 21.972 101.264 21.5615 100.876 21.0303L102.961 19.0987C103.13 19.3643 103.348 19.6057 103.591 19.7989C103.761 19.9196 103.954 19.992 104.173 19.992C104.342 19.992 104.512 19.9196 104.633 19.823C104.876 19.6781 105.045 19.3884 105.021 19.0987C104.948 18.6882 104.779 18.2778 104.512 17.9639L101.118 13.2074ZM108.39 15.8875L110.596 14.149C110.839 14.4387 111.154 14.656 111.493 14.7767C111.978 14.9216 112.487 14.825 112.899 14.5111C113.19 14.318 113.432 14.0524 113.529 13.7144C113.675 13.2798 113.432 12.7969 112.996 12.652C112.923 12.6279 112.851 12.6038 112.778 12.6038C112.487 12.5796 111.978 12.7003 111.226 13.0142C109.99 13.5212 109.021 13.7144 108.293 13.642C107.59 13.5695 106.936 13.2074 106.548 12.6038C106.257 12.1933 106.112 11.7104 106.088 11.2275C106.088 10.6721 106.233 10.1168 106.548 9.65805C107.009 9.00614 107.566 8.4508 108.245 8.0162C109.263 7.31599 110.16 6.97796 110.936 6.97796C111.711 6.97796 112.438 7.34014 113.117 8.08864L110.936 9.80292C110.499 9.24759 109.675 9.12686 109.118 9.56147L109.045 9.63391C108.803 9.77877 108.633 9.99608 108.536 10.2617C108.463 10.4548 108.512 10.6721 108.633 10.8412C108.73 10.9619 108.875 11.0585 109.045 11.0585C109.239 11.0826 109.578 10.986 110.063 10.7687C111.275 10.2617 112.196 9.97194 112.826 9.87536C113.36 9.77877 113.917 9.82706 114.426 10.0444C114.887 10.2375 115.275 10.5756 115.541 10.986C115.881 11.4689 116.074 12.0484 116.099 12.652C116.123 13.2798 115.953 13.8834 115.614 14.4146C115.178 15.0665 114.62 15.6218 113.966 16.0565C112.632 16.974 111.542 17.3603 110.669 17.2154C109.724 17.0706 108.948 16.5877 108.39 15.8875Z" fill="#4C4C4C"/>
</svg>
