<svg width="60" height="35" fill="none" xmlns="http://www.w3.org/2000/svg"><path fill-rule="evenodd" clip-rule="evenodd" d="M1.14 30.152c-.368 0-.707-.198-.934-.509-.226-.283-.254-.679-.141-1.047.51-1.443 1.726-4.413 4.074-7.809a41.57 41.57 0 0 1 4.33-5.178c5.092-5.092 17.91-5.687 25.096-5.602a8.578 8.578 0 0 1 6.14 2.716l.42.454c.592.639 1.23 1.327 1.504 1.668.226.227.509.368.848.368 2.32-.085 10.3.029 14.657 4.357.245.246.471.5.679.764 1.075 1.302 1.754 2.887 2.065 4.64l.057.453c.019.02.028.038.028.057v.198c.019.094.028.189.028.283a1.5 1.5 0 0 1-1.216 1.641l-.057.028-1.144.184c.118.46.183.937.183 1.43a5.506 5.506 0 0 1-5.518 5.516 5.525 5.525 0 0 1-5.51-5.249l-1.705.27h-.057l-2.376.028-25.332.223c-.382 2.668-2.709 4.728-5.452 4.728a5.5 5.5 0 0 1-5.44-4.612H1.14Z" fill="#F0F" style="mix-blend-mode:overlay"/></svg>