<svg width="60" height="36" fill="none" xmlns="http://www.w3.org/2000/svg"><path fill-rule="evenodd" clip-rule="evenodd" d="M18.849 31.92h25.635a5.223 5.223 0 0 0 4.876 3.328 5.225 5.225 0 0 0 4.926-3.432 14.499 14.499 0 0 0 1.674-.238l.939-.199A3.815 3.815 0 0 0 60 27.624V26.6c0-.683-.17-1.366-.512-1.963l-.626-1.024a3.942 3.942 0 0 0-.939-1.082 3.978 3.978 0 0 0-1.735-.768l-9.36-1.564a13.49 13.49 0 0 1-3.5-1.053l-6.514-2.93a7.778 7.778 0 0 0-1.138-.427c-6.914-2.361-14.567-2.39-21.537-.057-.303.095-.56.18-.768.256l-5.718 2.19a9.976 9.976 0 0 1-4.381.655l-1.423-.114a.97.97 0 0 0-.711.313c-.2.2-.256.484-.2.768l.115.512c.038.247.047.493.028.74l-.2 2.475c0 .076-.009.161-.028.256-.018.19-.066.38-.142.57l-.199.397C.171 25.291 0 25.945 0 26.628v.484c0 .53.104 1.052.313 1.565.209.493.503.92.882 1.28a4.14 4.14 0 0 0 2.134 1.08l4.637.712c.376.06.746.103 1.11.127a5.235 5.235 0 0 0 4.921 3.372 5.195 5.195 0 0 0 4.852-3.328Z" fill="#F0F" style="mix-blend-mode:overlay"/></svg>