<svg width="60" height="36" fill="none" xmlns="http://www.w3.org/2000/svg"><path fill-rule="evenodd" clip-rule="evenodd" d="M48.675 31.472H16.02a4.935 4.935 0 0 1-4.761 3.621c-2.214 0-4.144-1.493-4.734-3.62H1.697A1.702 1.702 0 0 1 0 29.774v-1.273c0-.99.368-1.924 1.047-2.63l.056-.086c.151-.15.293-.32.425-.509.113-.15.207-.302.282-.452.151-.264.264-.547.34-.849l.65-2.065a4.621 4.621 0 0 1 1.047-1.81 4.843 4.843 0 0 1 1.98-1.302l.17-.056a4.149 4.149 0 0 0 1.67-1.075l1.272-1.415a10.216 10.216 0 0 1 3.678-2.49c.877-.339 1.81-.537 2.744-.622h.028L31.287 13a5.87 5.87 0 0 1 1.301.198c.623.189 1.207.48 1.754.877.547.377 1 .849 1.358 1.414l1.5 2.264c.537.82 1.442 1.3 2.432 1.329l16.747.34a1.87 1.87 0 0 1 1.782 1.499l.283 1.527c.057.34.151.66.283.962.076.189.17.387.283.594v.028c.056.095.113.18.17.255l.31.453c.34.509.51 1.075.51 1.669v2.121c0 .764-.283 1.5-.82 2.037a2.492 2.492 0 0 1-.962.65l-.011.008a4.895 4.895 0 0 1-4.798 3.868c-2.214 0-4.144-1.493-4.734-3.62Z" fill="#F0F" style="mix-blend-mode:overlay"/></svg>