<svg width="60" height="36" fill="none" xmlns="http://www.w3.org/2000/svg"><path fill-rule="evenodd" clip-rule="evenodd" d="M57.692 30.353h-1.348a5.282 5.282 0 0 1-5.272 4.923 5.282 5.282 0 0 1-5.272-4.923H18.116l-.205-.02a5.282 5.282 0 0 1-5.274 4.943 5.282 5.282 0 0 1-5.27-5.703l-1.405-.11a10.072 10.072 0 0 1-2.392-.445 2.869 2.869 0 0 1-1.39-1.029H.928a.384.384 0 0 1-.361-.278L.01 25.876c-.027-.14 0-.25.084-.334a.306.306 0 0 1 .278-.167h1.307l.028-5.256c0-.724.584-1.28 1.307-1.28l20.748.028c.11 0 .222-.111.25-.223l.194-2.67A2.15 2.15 0 0 1 26.348 14h7.982c2.586 0 5.117.723 7.314 2.114l3.032 1.919a10.19 10.19 0 0 0 4.644 1.502l3.282.222c1.28.083 2.587.25 3.838.473l1.558.306a2.081 2.081 0 0 1 1.335.89c.25.361.389.75.389 1.196a.54.54 0 0 1-.028.166l-.195 2.476c0 .074.01.139.028.194a.412.412 0 0 0 .111.195c.25.223.362.556.362.862v1.53a2.303 2.303 0 0 1-2.308 2.308Z" fill="#F0F"/></svg>