<svg width="60" height="36" fill="none" xmlns="http://www.w3.org/2000/svg"><path d="M55.093 30.453h2.98A1.928 1.928 0 0 0 60 28.525v-.46c0-1.295-.172-2.59-.518-3.856v-.03a5.557 5.557 0 0 0-.978-1.927 5.397 5.397 0 0 0-1.439-1.353 6.086 6.086 0 0 0-.978-.547l-1.87-.776a12.818 12.818 0 0 1-3.483-2.159l-3.914-3.482a13.532 13.532 0 0 0-2.59-1.726c-.92-.46-1.899-.777-2.906-.979-.777-.172-1.583-.23-2.36-.23h-1.496c-.921 0-1.67.748-1.67 1.64v6.475H1.18c-.662 0-1.18.518-1.18 1.18v5.093c0 .634.518 1.152 1.18 1.152h7.655v2.158c0 .794.563 1.487 1.32 1.693a4.206 4.206 0 0 0-.054.667 4.298 4.298 0 0 0 4.288 4.287 4.298 4.298 0 0 0 4.288-4.287c0-.202-.015-.403-.044-.605h27.972a4.298 4.298 0 0 0 4.244 4.892 4.298 4.298 0 0 0 4.288-4.287c0-.202-.015-.403-.044-.605Z" fill="#F0F" style="mix-blend-mode:overlay"/></svg>