<svg width="60" height="36" fill="none" xmlns="http://www.w3.org/2000/svg"><path fill-rule="evenodd" clip-rule="evenodd" d="M57.453 33.02h-.028l-4.841-.054c-.909 1.323-2.392 2.096-4.03 2.096a4.916 4.916 0 0 1-4.107-2.213l-29.419-.473-1.172-.046a4.883 4.883 0 0 1-4.397 2.733 4.928 4.928 0 0 1-4.616-3.174l-.365-.017a2.65 2.65 0 0 1-.644-.084l-1.371-.364a2.823 2.823 0 0 1-1.12-.531c-.42-.28-.755-.7-.98-1.148-.251-.448-.363-.98-.363-1.483V25.94c0-.56.196-1.147.532-1.595.224-.28.336-.616.392-.951l.027-.448c.094-.746.28-1.418.56-2.015a10.862 10.862 0 0 1 3.023-3.806 10.903 10.903 0 0 1 5.54-2.267c.057-.028 7.585-1.203 14.553-.755 5.653.363 11.166 2.322 12.117 2.826l5.094 2.575c1.539.811 3.218 1.315 4.953 1.539 4.366.56 7.724 1.483 9.963 2.714.224.112.447.243.671.392.28.168.541.364.784.588.448.42.84.895 1.12 1.455.13.224.242.457.335.7.224.588.336 1.231.336 1.903V30.5c0 .671-.28 1.315-.756 1.79a2.517 2.517 0 0 1-1.79.729Z" fill="#F0F" style="mix-blend-mode:overlay"/></svg>