<svg width="60" height="35" fill="none" xmlns="http://www.w3.org/2000/svg"><path fill-rule="evenodd" clip-rule="evenodd" d="M57.37 30.901h-.028l-2.208-.024c-.492 2.256-2.559 3.956-4.908 3.956a4.997 4.997 0 0 1-4.905-4.046l-28.127-.301-.118-.007c-.33 2.46-2.437 4.354-4.949 4.354a5.01 5.01 0 0 1-5.01-4.948l-5.345-.313A1.927 1.927 0 0 1 0 27.662v-.139c0-.553.277-1.08.748-1.384a.233.233 0 0 0 .11-.194v-.028c-.11-.72-.166-1.467-.166-2.215v-.138c0-.858.056-1.744.194-2.603l.664-4.264a21.84 21.84 0 0 1 1.08-4.208l.72-2.05C3.682 9.582 4.513 9 5.4 9h23.838l6.618.277c.775 0 1.578.055 2.353.221h.084a13.55 13.55 0 0 1 6.146 2.963c.905.794 1.79 1.55 2.658 2.27l1.053.914a15.175 15.175 0 0 0 4.208 2.52l3.904 1.467c0 .019.01.028.028.028.747.36 1.412.858 1.993 1.495.259.295.49.61.693.941.249.416.47.887.609 1.385.092.258.157.498.194.72a8.86 8.86 0 0 1 .193 1.716L60 28.243a2.75 2.75 0 0 1-.775 1.91 2.594 2.594 0 0 1-1.855.748Z" fill="#F0F"/></svg>