<svg width="60" height="36" fill="none" xmlns="http://www.w3.org/2000/svg"><path fill-rule="evenodd" clip-rule="evenodd" d="M44.01 31.962H21.34a4.6 4.6 0 0 1-2.027-.485l-.2-.143a4.463 4.463 0 0 0-1.656-.514.33.33 0 0 1-.343-.343 4.419 4.419 0 0 0-.314-1.313 3.922 3.922 0 0 0-3.57-2.313 3.908 3.908 0 0 0-3.14 1.57 3.74 3.74 0 0 0-.657 1.485c-.057.171-.228.314-.4.286l-.285-.029H8.69l-4.455-1a3.063 3.063 0 0 1-.628-.228l-1.113-.514a3.22 3.22 0 0 1-1.028-.742l-.6-.685a2.145 2.145 0 0 1-.2-.229.332.332 0 0 1-.057-.085c-.457-.6-.657-1.371-.6-2.142v-.029l.03-.314a3.22 3.22 0 0 1 1.655-2.57 3.327 3.327 0 0 1 1.342-.4l7.281-.599a2.71 2.71 0 0 0 1.028-.257l4.94-2.37c1.285-.628 2.741-.942 4.169-.97L30.247 17h.029c1.513 0 2.97.428 4.226 1.228l3.74 2.427c.943.6 2.028.97 3.113 1.028l11.707.828c1.199.057 2.37.314 3.483.685l2.798.97c.4.144.657.486.657.886v.229c0 .885-.114 1.741-.314 2.598a2.804 2.804 0 0 1-1.085 1.713 10.562 10.562 0 0 1-2.941 1.485l-1.6.485a13.06 13.06 0 0 1-1.627.343c-.142 0-.257-.029-.342-.114-.086-.115-.114-.229-.086-.343.038-.229.057-.466.057-.714a3.827 3.827 0 0 0-1.513-3.084c-.685-.542-1.514-.8-2.37-.8-1.285 0-2.513.63-3.227 1.714a3.814 3.814 0 0 0-.57 2.941.322.322 0 0 1-.086.314c-.057.114-.172.143-.286.143Zm-26.183-1.856a5.03 5.03 0 0 1 1.627.571l.229.114a3.408 3.408 0 0 0 1.656.428h22.214a4.39 4.39 0 0 1-.028-.485c0-.942.285-1.827.8-2.598a4.642 4.642 0 0 1 3.854-2.056c1.028 0 2.027.314 2.827.97a4.57 4.57 0 0 1 1.827 3.684c0 .114-.01.229-.029.343.343-.076.686-.162 1.029-.257l1.599-.486a8.92 8.92 0 0 0 2.712-1.342v-.028c.4-.286.685-.743.8-1.256.2-.8.285-1.6.285-2.427v-.229a.193.193 0 0 0-.114-.171l-2.798-.943c-1.085-.37-2.17-.6-3.313-.685l-11.678-.8a7.142 7.142 0 0 1-3.483-1.17l-3.74-2.399a6.988 6.988 0 0 0-3.827-1.142h-.029l-9.793.057a9.066 9.066 0 0 0-3.855.886l-4.911 2.37c-.4.19-.838.304-1.314.342l-7.28.571a2.802 2.802 0 0 0-1.029.314 2.572 2.572 0 0 0-1.285 1.97l-.028.315v.028c-.029.6.143 1.2.485 1.656.02.02.029.038.029.057v-.028l-.286.257.286-.229c.057.058.105.115.143.172l.628.685c.228.247.485.438.77.571l1.114.514c.153.057.314.114.486.171l4.368 1c.153-.533.39-1.019.714-1.456a4.652 4.652 0 0 1 3.74-1.885 4.633 4.633 0 0 1 4.255 2.77c.171.4.286.818.343 1.256Z" fill="#00082B"/><path d="M17.485 30.734a4.265 4.265 0 0 1-4.255 4.255c-2.37 0-4.283-1.913-4.283-4.255 0-.323.038-.628.114-.914a4.26 4.26 0 0 1 4.17-3.369c2.255 0 4.11 1.77 4.254 3.998v.285Z" fill="#353D4A"/><path fill-rule="evenodd" clip-rule="evenodd" d="M13.23 35.36c-2.57 0-4.654-2.085-4.654-4.626 0-.343.038-.676.114-1 .457-2.112 2.37-3.654 4.54-3.654 2.455 0 4.483 1.913 4.625 4.34.02.095.03.2.03.314 0 2.541-2.085 4.626-4.655 4.626Zm0-8.51c-1.828 0-3.427 1.286-3.798 3.056a3.942 3.942 0 0 0-.085.828 3.887 3.887 0 0 0 3.883 3.883 3.887 3.887 0 0 0 3.883-3.883v-.257a3.877 3.877 0 0 0-3.883-3.626Z" fill="#00082B"/><path fill-rule="evenodd" clip-rule="evenodd" d="M13.23 33.333c-1.456 0-2.627-1.171-2.627-2.599 0-.304.048-.59.143-.856a2.644 2.644 0 0 1 2.484-1.77 2.63 2.63 0 0 1 2.57 2.14c.038.172.057.334.057.486 0 1.428-1.17 2.599-2.627 2.599Zm0-4.712c-.913 0-1.713.571-1.998 1.428a1.99 1.99 0 0 0-.115.685c0 1.142.943 2.113 2.113 2.113a2.126 2.126 0 0 0 2.085-2.484c-.2-1.028-1.057-1.742-2.085-1.742Z" fill="#00082B"/><path d="M15.6 30.734c0 1.285-1.057 2.341-2.37 2.341-1.314 0-2.37-1.056-2.37-2.34 0-.267.038-.524.114-.772a2.406 2.406 0 0 1 2.256-1.599c1.17 0 2.141.828 2.313 1.942.038.133.057.276.057.428Z" fill="#CBD7E3"/><path fill-rule="evenodd" clip-rule="evenodd" d="M13.23 33.333c-1.456 0-2.627-1.171-2.627-2.599 0-.304.048-.59.143-.856a2.644 2.644 0 0 1 2.484-1.77 2.63 2.63 0 0 1 2.57 2.14c.038.172.057.334.057.486 0 1.428-1.17 2.599-2.627 2.599Zm0-4.712c-.913 0-1.713.571-1.998 1.428a1.99 1.99 0 0 0-.115.685c0 1.142.943 2.113 2.113 2.113a2.126 2.126 0 0 0 2.085-2.484c-.2-1.028-1.057-1.742-2.085-1.742Z" fill="#00082B"/><path d="M52.463 30.734c0 .267-.029.524-.086.771a4.261 4.261 0 0 1-4.197 3.484 4.257 4.257 0 0 1-4.255-4.255c0-2.37 1.913-4.283 4.255-4.283a4.277 4.277 0 0 1 4.283 4.283Z" fill="#353D4A"/><path fill-rule="evenodd" clip-rule="evenodd" d="M48.18 35.36c-2.2 0-4.112-1.542-4.54-3.684a3.867 3.867 0 0 1-.115-.942 4.655 4.655 0 0 1 9.308 0c0 .305-.028.59-.085.857-.4 2.198-2.342 3.769-4.569 3.769Zm0-8.51a3.887 3.887 0 0 0-3.884 3.884c0 .267.028.524.086.771.37 1.799 1.97 3.112 3.797 3.112a3.89 3.89 0 0 0 3.826-3.169c.038-.228.057-.466.057-.714a3.887 3.887 0 0 0-3.883-3.883Z" fill="#00082B"/><path fill-rule="evenodd" clip-rule="evenodd" d="M48.18 33.333a2.561 2.561 0 0 1-2.428-1.657 2.662 2.662 0 0 1-.17-.942c0-1.456 1.17-2.627 2.597-2.627a2.62 2.62 0 0 1 2.627 2.627c0 .324-.066.638-.2.942-.37 1.028-1.342 1.657-2.427 1.657Zm0-4.712a2.11 2.11 0 0 0-2.114 2.113c0 .267.048.524.143.771.343.8 1.114 1.342 1.97 1.342a2.11 2.11 0 0 0 2.113-2.112 2.109 2.109 0 0 0-2.113-2.114Z" fill="#00082B"/><path d="M50.549 30.734c0 .286-.057.6-.171.857a2.337 2.337 0 0 1-2.199 1.484c-1 0-1.856-.6-2.199-1.484a2.186 2.186 0 0 1-.17-.857 2.382 2.382 0 0 1 2.369-2.37 2.364 2.364 0 0 1 2.37 2.37Z" fill="#CBD7E3"/><path fill-rule="evenodd" clip-rule="evenodd" d="M48.18 33.333a2.561 2.561 0 0 1-2.428-1.657 2.662 2.662 0 0 1-.17-.942c0-1.456 1.17-2.627 2.597-2.627a2.62 2.62 0 0 1 2.627 2.627c0 .324-.066.638-.2.942-.37 1.028-1.342 1.657-2.427 1.657Zm0-4.712a2.11 2.11 0 0 0-2.114 2.113c0 .267.048.524.143.771.343.8 1.114 1.342 1.97 1.342a2.11 2.11 0 0 0 2.113-2.112 2.109 2.109 0 0 0-2.113-2.114Z" fill="#00082B"/><path d="m59.6 25.966-37.005-.857a7.218 7.218 0 0 1-1.57-.171l-2.342-.486a9.445 9.445 0 0 0-1.798-.17H.466a.256.256 0 0 1-.257-.258c0-.143.115-.257.257-.257h16.419c.647 0 1.284.067 1.913.2l2.341.485c.476.096.97.143 1.485.143l37.005.857c.143 0 .228.114.228.257a.256.256 0 0 1-.257.257Zm-33.778-3.341c-.77 0-1.542-.086-2.313-.228l-3.369-.686a17.896 17.896 0 0 0-1.456-.228 15.27 15.27 0 0 0-1.628-.086h-6.71a.256.256 0 0 1-.257-.257c0-.143.114-.257.257-.257h6.71a16.4 16.4 0 0 1 1.685.086 17.37 17.37 0 0 1 1.485.228l3.398.686c.713.142 1.456.228 2.198.228h10.822l3.883-.257c.143 0 .257.114.286.257a.256.256 0 0 1-.257.257l-3.912.257H25.822Z" fill="#00082B"/><path d="m36.872 22.34-.229.028H25.822c-.762 0-1.514-.076-2.256-.228l-3.398-.686a17.898 17.898 0 0 0-1.456-.228l.657-.485.828-.6c.38-.247.761-.476 1.142-.685l.143-.058a9.155 9.155 0 0 1 4.168-.999h3.141a9.17 9.17 0 0 1 5.882 2.113h.029l2.17 1.828Z" fill="#2196FF"/><path fill-rule="evenodd" clip-rule="evenodd" d="M36.644 22.625H25.822c-.8 0-1.57-.086-2.313-.228l-3.369-.714a12.187 12.187 0 0 0-1.456-.2c-.114-.029-.2-.086-.229-.2a.23.23 0 0 1 .086-.257l1.514-1.085c.38-.266.77-.504 1.17-.714l.143-.057a9.289 9.289 0 0 1 4.283-1.028h3.14c2.2 0 4.34.771 6.054 2.17l2.199 1.828a.275.275 0 0 1 .057.257c-.029.114-.114.171-.2.2l-.257.028Zm-17.275-1.57c.305.038.59.085.857.142l3.398.686a11.26 11.26 0 0 0 2.198.228h10.365l-1.656-1.399a9.006 9.006 0 0 0-5.74-2.056h-3.14a9.12 9.12 0 0 0-4.055.971l-.142.057c-.381.19-.743.419-1.085.685l-1 .686Z" fill="#00082B"/><path d="M23.166 22.311c-.038 0-.066-.01-.085-.029-.143-.028-.2-.17-.171-.314l1.113-3.54c.029-.143.171-.2.314-.172.114.058.2.2.172.314l-1.114 3.57c-.029.085-.143.171-.229.171Zm-.685 7.852c-.086 0-.2-.057-.228-.171a12.507 12.507 0 0 1 0-8.166c.057-.115.2-.2.314-.143.142.028.2.171.171.314a11.858 11.858 0 0 0 0 7.823c.029.143-.029.286-.171.343h-.086Z" fill="#00082B"/><path d="M39.214 30.163H22.48c-.114 0-.228-.114-.228-.257 0-.143.114-.257.228-.257h16.733c.142 0 .228.114.228.257 0 .143-.086.257-.228.257Z" fill="#00082B"/><path d="M34.702 20.512c-2.541.514-5.34.8-8.252.8-2.484 0-4.854-.2-7.08-.572l.827-.6c.38-.247.762-.475 1.142-.684l.143-.058a9.155 9.155 0 0 1 4.169-.999h3.14a9.17 9.17 0 0 1 5.883 2.113h.028Z" fill="#fff" style="mix-blend-mode:overlay" opacity=".3"/><path d="M59.6 25.052c-2.626.885-5.596 1.656-8.822 2.284-1.96.381-4.007.714-6.14 1-5.196.713-10.878 1.085-16.846 1.085-3.683 0-7.252-.143-10.65-.4-2.541-.2-4.997-.485-7.338-.828-3.17-.457-6.14-1.028-8.88-1.713-.4-.543-.6-1.228-.543-1.913v-.029l.029-.314a2.887 2.887 0 0 1 1.485-2.284c.37-.2.77-.314 1.17-.343l7.281-.57a3.4 3.4 0 0 0 1.171-.315l4.94-2.37a9.116 9.116 0 0 1 3.997-.914l9.794-.057c1.427 0 2.855.4 4.055 1.17l3.74 2.428a6.841 6.841 0 0 0 3.312 1.113l11.678.8a14.1 14.1 0 0 1 3.398.685l2.799.971c.228.057.37.286.37.514Z" fill="#fff" style="mix-blend-mode:overlay" opacity=".3"/><path d="M3.785 27.575h-1.75c-.625-.781-.906-1.781-.843-2.813a2.02 2.02 0 0 1 1.406.938l1.188 1.875Z" fill="#FF4D4D"/><path fill-rule="evenodd" clip-rule="evenodd" d="M3.786 27.856h-1.75c-.094 0-.188-.031-.22-.094a4.55 4.55 0 0 1-.905-3 .464.464 0 0 1 .125-.218c.041-.042.104-.063.187-.063.688.094 1.25.5 1.625 1.063l1.157 1.906c.062.062.062.187.03.281-.062.063-.155.125-.25.125Zm-1.625-.562h1.125l-.907-1.47a1.711 1.711 0 0 0-.906-.718c0 .813.25 1.563.688 2.188Z" fill="#00082B"/></svg>