<svg width="60" height="36" fill="none" xmlns="http://www.w3.org/2000/svg"><path fill-rule="evenodd" clip-rule="evenodd" d="M47.4 29.923H16.136a.384.384 0 0 1-.393-.393 4.767 4.767 0 0 0-7.662-3.788c-1.206.898-1.88 2.301-1.88 3.788 0 .225-.168.393-.365.393H1.74c-.954 0-1.74-.785-1.74-1.74v-1.768c0-.364 0-.673.028-1.01.028-.674.056-1.347.14-2.02L2.19 4.244A2.498 2.498 0 0 1 4.687 2H35.92a8.53 8.53 0 0 1 5.697 2.16L57.67 18.22a.325.325 0 0 1 .056.085A6.884 6.884 0 0 1 60 23.413v3.676a2.82 2.82 0 0 1-2.217 2.75.316.316 0 0 1-.309-.084.345.345 0 0 1-.14-.28 4.773 4.773 0 0 0-4.77-4.715 4.767 4.767 0 0 0-4.772 4.77.384.384 0 0 1-.393.393Zm-30.9-.757h30.534a5.549 5.549 0 0 1 5.528-5.164c2.835 0 5.192 2.189 5.5 4.967a2.095 2.095 0 0 0 1.18-1.88v-3.676c0-1.74-.73-3.396-2.021-4.575l-.028-.028c-.02 0-.029-.01-.029-.028l-.027-.028L41.113 4.722c-1.431-1.29-3.283-1.964-5.192-1.964H4.687a1.74 1.74 0 0 0-1.74 1.571L.898 23.47a46.177 46.177 0 0 0-.14 1.964v2.75c0 .534.42.983.982.983h3.732c.085-1.6.87-3.06 2.161-4.042a5.504 5.504 0 0 1 3.34-1.122 5.549 5.549 0 0 1 5.528 5.164Z" fill="#00082B"/><path d="M16.137 29.53a5.15 5.15 0 0 1-5.164 5.164 5.144 5.144 0 0 1-4.743-3.143 5.292 5.292 0 0 1-.393-2.02c0-1.656.786-3.172 2.021-4.098a5.074 5.074 0 0 1 3.115-1.038c2.862 0 5.164 2.301 5.164 5.136Z" fill="#353D4A"/><path fill-rule="evenodd" clip-rule="evenodd" d="M10.973 35.059a5.51 5.51 0 0 1-5.08-3.368 5.617 5.617 0 0 1-.449-2.16c0-1.74.814-3.34 2.19-4.407a5.565 5.565 0 0 1 3.339-1.122c3.059 0 5.528 2.498 5.528 5.528a5.521 5.521 0 0 1-5.528 5.529Zm0-10.3a4.734 4.734 0 0 0-2.89.983c-1.207.898-1.881 2.301-1.881 3.788 0 .646.112 1.291.365 1.88a4.783 4.783 0 0 0 4.406 2.891 4.767 4.767 0 0 0 4.77-4.77 4.767 4.767 0 0 0-4.77-4.771Z" fill="#00082B"/><path fill-rule="evenodd" clip-rule="evenodd" d="M10.973 32.449c-.898 0-1.712-.42-2.273-1.122a2.96 2.96 0 0 1-.617-1.797c0-.645.224-1.29.617-1.796a2.872 2.872 0 0 1 2.273-1.094c1.6 0 2.919 1.29 2.919 2.89s-1.32 2.919-2.919 2.919Zm0-5.332c-.73 0-1.431.337-1.88.926a2.412 2.412 0 0 0-.533 1.487c0 .534.196 1.067.533 1.488.449.59 1.15.926 1.88.926a2.432 2.432 0 0 0 2.413-2.414 2.432 2.432 0 0 0-2.413-2.413Z" fill="#00082B"/><path d="M13.639 29.53a2.683 2.683 0 0 1-2.666 2.666 2.62 2.62 0 0 1-2.077-1.01c-.365-.449-.561-1.038-.561-1.656 0-.617.196-1.178.561-1.627a2.62 2.62 0 0 1 2.077-1.01c1.46 0 2.666 1.178 2.666 2.637Z" fill="#CBD7E3"/><path fill-rule="evenodd" clip-rule="evenodd" d="M10.973 32.449c-.898 0-1.712-.42-2.273-1.122a2.96 2.96 0 0 1-.617-1.797c0-.645.224-1.29.617-1.796a2.872 2.872 0 0 1 2.273-1.094c1.6 0 2.919 1.29 2.919 2.89s-1.32 2.919-2.919 2.919Zm0-5.332c-.73 0-1.431.337-1.88.926a2.412 2.412 0 0 0-.533 1.487c0 .534.196 1.067.533 1.488.449.59 1.15.926 1.88.926a2.432 2.432 0 0 0 2.413-2.414 2.432 2.432 0 0 0-2.413-2.413Z" fill="#00082B"/><path d="M7.858 25.433c-1.235.926-2.02 2.442-2.02 4.098H1.74c-.758 0-1.375-.59-1.375-1.348v-1.767c0-.337.01-.665.028-.983h7.465Z" fill="#353D4A"/><path fill-rule="evenodd" clip-rule="evenodd" d="M5.837 29.923H1.74c-.954 0-1.74-.785-1.74-1.74v-1.768c0-.364 0-.673.028-1.01 0-.196.168-.337.365-.337h7.465c.168 0 .309.084.365.253.056.14 0 .309-.14.42-1.207.899-1.881 2.302-1.881 3.79 0 .224-.168.392-.365.392Zm-5.08-4.125v2.385c0 .534.45.983.983.983h3.732a5.539 5.539 0 0 1 1.432-3.368H.758Zm51.806 6.651a2.935 2.935 0 0 1-2.919-2.919c0-1.6 1.32-2.89 2.92-2.89 1.599 0 2.89 1.29 2.89 2.89 0 .375-.066.73-.197 1.067a2.926 2.926 0 0 1-2.694 1.852Zm0-5.332a2.432 2.432 0 0 0-2.413 2.413 2.432 2.432 0 0 0 2.413 2.414c.982 0 1.88-.617 2.217-1.544.112-.28.169-.57.169-.87 0-1.319-1.067-2.413-2.386-2.413Z" fill="#00082B"/><path d="M57.7 29.53c0 .337-.029.665-.085.983a5.149 5.149 0 0 1-5.051 4.181A5.15 5.15 0 0 1 47.4 29.53c0-2.834 2.301-5.135 5.164-5.135a5.126 5.126 0 0 1 5.135 5.08v.055Z" fill="#353D4A"/><path fill-rule="evenodd" clip-rule="evenodd" d="M52.563 35.059a5.521 5.521 0 0 1-5.529-5.529c0-3.03 2.47-5.528 5.529-5.528 3.002 0 5.472 2.441 5.528 5.444v.084c0 .356-.037.702-.112 1.039-.477 2.61-2.778 4.49-5.416 4.49Zm0-10.3a4.767 4.767 0 0 0-4.771 4.771 4.767 4.767 0 0 0 4.77 4.771 4.756 4.756 0 0 0 4.772-4.77v-.057a4.773 4.773 0 0 0-4.771-4.714Z" fill="#00082B"/><path d="M55.033 30.513a2.665 2.665 0 0 1-2.47 1.683 2.683 2.683 0 0 1-2.666-2.666c0-1.459 1.207-2.638 2.666-2.638a2.635 2.635 0 0 1 2.639 2.638c0 .337-.057.674-.169.983Z" fill="#CBD7E3"/><path fill-rule="evenodd" clip-rule="evenodd" d="M52.563 32.449a2.935 2.935 0 0 1-2.919-2.919c0-1.6 1.32-2.89 2.92-2.89 1.599 0 2.89 1.29 2.89 2.89 0 .375-.066.73-.197 1.067a2.926 2.926 0 0 1-2.694 1.852Zm0-5.332a2.432 2.432 0 0 0-2.413 2.413 2.432 2.432 0 0 0 2.413 2.414c.982 0 1.88-.617 2.217-1.544h.028c.094-.28.14-.57.14-.87 0-1.319-1.066-2.413-2.385-2.413Z" fill="#00082B"/><path d="M59.607 24.395v2.694a2.439 2.439 0 0 1-1.908 2.385c-.028-2.806-2.33-5.08-5.136-5.08h7.044Z" fill="#353D4A"/><path fill-rule="evenodd" clip-rule="evenodd" d="M57.699 29.84a.373.373 0 0 1-.224-.085.345.345 0 0 1-.14-.28 4.773 4.773 0 0 0-4.772-4.715c-.224 0-.393-.169-.393-.365 0-.225.169-.393.393-.393h7.044c.225 0 .393.168.393.393v2.694a2.82 2.82 0 0 1-2.217 2.75H57.7Zm-2.385-5.08c1.487.87 2.553 2.413 2.75 4.21a2.095 2.095 0 0 0 1.178-1.881v-2.33h-3.928Z" fill="#00082B"/><path d="M54.528 20.326h-6.174a11.29 11.29 0 0 1-3.48-.562l-2.554-.842c-.814-.252-1.347-1.01-1.347-1.88l-.056-.814-.225-4.686a.841.841 0 0 1 .842-.898h3.845c.393 0 .73.14 1.01.42l5.22 4.94 3.536 3.34a.684.684 0 0 1-.617.982Z" fill="#2196FF"/><path fill-rule="evenodd" clip-rule="evenodd" d="M54.528 20.578h-6.174a11.51 11.51 0 0 1-3.536-.561l-2.582-.842a2.244 2.244 0 0 1-1.515-2.133l-.281-5.5c0-.309.112-.59.309-.814a1.02 1.02 0 0 1 .785-.337h3.845c.45 0 .87.168 1.179.505l8.756 8.25a.327.327 0 0 1 .056.085c.14.28.112.617-.056.898a.896.896 0 0 1-.786.45Zm-12.994-9.682a.57.57 0 0 0-.42.169.688.688 0 0 0-.169.449l.253 5.528c.028.758.477 1.403 1.206 1.656l2.554.842c1.095.337 2.245.533 3.396.533h6.174c.168 0 .28-.084.365-.197a.399.399 0 0 0 .028-.392l-8.7-8.251a1.188 1.188 0 0 0-.842-.337h-3.845Z" fill="#00082B"/><path d="M39.879 6.94H4.126a.251.251 0 0 1-.253-.253c0-.14.112-.253.253-.253h35.753c.14 0 .252.112.252.253 0 .14-.112.252-.252.252Zm8.559 19.756h-33.34a.252.252 0 0 1-.252-.253c0-.14.112-.252.252-.252h33.34c.14 0 .252.112.252.253 0 .14-.112.252-.252.252Z" fill="#00082B"/><path d="M20.515 18.782H4.49v-1.29h16.025v1.29Z" fill="#353D4A"/><path fill-rule="evenodd" clip-rule="evenodd" d="M20.515 19.035H4.49a.251.251 0 0 1-.252-.253v-1.29c0-.141.112-.225.252-.225h16.025c.14 0 .252.084.252.224v1.291c0 .14-.112.253-.252.253Zm-15.772-.506h15.52v-.785H4.742v.785Z" fill="#00082B"/><path d="M23.013 26.696c-.14 0-.225-.112-.225-.253l.309-19.756a.252.252 0 1 1 .505 0l-.337 19.756c0 .14-.112.253-.252.253Z" fill="#00082B"/><path d="M23.18 29.727a.252.252 0 0 1-.252-.253l-.14-3.03c-.028-.113.084-.253.224-.253s.253.112.253.253l.168 3.03c0 .113-.112.253-.224.253h-.028Zm18.354-18.831H4.49a.252.252 0 0 1-.252-.252c0-.14.112-.253.252-.253h37.044a.252.252 0 1 1 0 .505ZM41 26.696c-.111 0-.224-.112-.224-.253v-8.952c0-.14.113-.224.225-.224.14 0 .252.084.252.224v8.952c0 .14-.112.253-.252.253Z" fill="#00082B"/><path d="M51.609 16.004c-1.6.561-3.564.87-5.697.87-1.824 0-3.536-.225-4.995-.646l-.225-4.686a.841.841 0 0 1 .842-.898h3.845c.393 0 .73.14 1.01.42l5.22 4.94Z" fill="#fff" style="mix-blend-mode:overlay" opacity=".3"/><path d="M57.474 18.558c-8.98 3.002-20.29 4.798-32.553 4.798-8.672 0-16.867-.898-24.107-2.497l1.74-16.586a2.155 2.155 0 0 1 2.133-1.908h31.235a8.19 8.19 0 0 1 5.444 2.077L57.39 18.473a.184.184 0 0 0 .084.085Z" fill="#fff" style="mix-blend-mode:overlay" opacity=".3"/></svg>