<svg width="60" height="35" fill="none" xmlns="http://www.w3.org/2000/svg"><path fill-rule="evenodd" clip-rule="evenodd" d="M56.845 31.673h-.028c-.221 0-.387-.166-.387-.36 0-1.162-.47-2.296-1.3-3.044a3.689 3.689 0 0 0-2.492-.996 3.75 3.75 0 0 0-2.269.775c-.443.36-.803.803-1.08 1.328a4.174 4.174 0 0 0-.47 1.938c0 .193-.166.36-.36.36H17.99a.366.366 0 0 1-.36-.36c0-.748-.221-1.495-.581-2.159a4.256 4.256 0 0 0-1.19-1.245 3.652 3.652 0 0 0-2.048-.637c-.664 0-1.356.194-1.937.581-.498.305-.941.775-1.273 1.301a4.138 4.138 0 0 0-.582 2.159c0 .193-.166.36-.387.36H8.579c-1.937 0-3.902-.222-5.811-.665h-.056a2.662 2.662 0 0 0-.194-.055l-1.3-.305C.498 30.456 0 29.82 0 29.1v-7.168a30.13 30.13 0 0 1 .47-4.178L1.55 12.3c.138-.747.802-1.3 1.577-1.3h36.698c1.383 0 2.74.47 3.847 1.3.018 0 .027.01.027.028l7.888 7.307a12.95 12.95 0 0 0 2.657 1.91l4.013 2.213c.092.056.184.12.276.194A3.34 3.34 0 0 1 60 26.72v1.799a3.154 3.154 0 0 1-3.155 3.154Zm-38.496-.72h29.75c.056-.691.222-1.355.554-1.936a4.902 4.902 0 0 1 1.273-1.55c.775-.61 1.716-.913 2.712-.913 1.08 0 2.16.415 2.99 1.162a4.828 4.828 0 0 1 1.522 3.21 2.443 2.443 0 0 0 2.103-2.407v-1.8c0-.857-.415-1.688-1.135-2.158a1.45 1.45 0 0 0-.221-.139l-4.013-2.213c-1.024-.582-1.965-1.246-2.795-2.02L43.2 12.881a5.517 5.517 0 0 0-3.376-1.135H3.127a.861.861 0 0 0-.858.692L1.218 17.89a22.356 22.356 0 0 0-.47 4.068V29.1c0 .387.248.72.636.83l1.328.304.166.056h.056c1.854.443 3.763.664 5.645.664h.692a5.074 5.074 0 0 1 .692-2.187 4.794 4.794 0 0 1 1.522-1.55 4.427 4.427 0 0 1 2.325-.663c.886 0 1.716.249 2.463.747a4.866 4.866 0 0 1 1.412 1.494c.387.637.608 1.384.664 2.159Z" fill="#00082B"/><path d="M59.64 26.72v.138h-.553c-.498 0-.997-.221-1.301-.637l-.886-1.19c-.221-.332 0-.774.388-.774h1.052a2.994 2.994 0 0 1 1.3 2.463Z" fill="#CBD7E3"/><path fill-rule="evenodd" clip-rule="evenodd" d="M59.64 27.107h-.553a1.888 1.888 0 0 1-1.495-.747l-.885-1.19a.716.716 0 0 1-.055-.775c.11-.25.36-.388.636-.388h1.052c.055 0 .101.01.138.028a3.246 3.246 0 0 1 1.412 2.685v.138a.249.249 0 0 1-.25.249Zm-2.352-2.601c-.083 0-.166.027-.194.11-.055.083-.055.194 0 .25l.886 1.19c.277.36.692.553 1.107.553h.304c-.027-.83-.442-1.633-1.134-2.104h-.969Z" fill="#00082B"/><path d="M16.91 31.314c0 1.716-1.384 3.1-3.1 3.1a3.095 3.095 0 0 1-3.1-3.1c0-1.716 1.385-3.1 3.1-3.1 1.716 0 3.1 1.384 3.1 3.1Z" fill="#353D4A"/><path fill-rule="evenodd" clip-rule="evenodd" d="M13.81 34.773a3.46 3.46 0 0 1 0-6.919c1.91 0 3.487 1.55 3.487 3.46s-1.577 3.46-3.487 3.46Zm0-6.2c-1.495 0-2.712 1.246-2.712 2.74 0 1.495 1.217 2.74 2.712 2.74a2.746 2.746 0 0 0 2.74-2.74 2.746 2.746 0 0 0-2.74-2.74Z" fill="#00082B"/><path fill-rule="evenodd" clip-rule="evenodd" d="M13.81 33.279a1.973 1.973 0 0 1-1.965-1.965c0-1.08.886-1.965 1.965-1.965 1.08 0 1.965.885 1.965 1.965a1.973 1.973 0 0 1-1.965 1.965Zm0-3.432c-.802 0-1.467.664-1.467 1.467 0 .802.665 1.467 1.467 1.467.803 0 1.467-.665 1.467-1.467 0-.803-.664-1.467-1.467-1.467Z" fill="#00082B"/><path d="M15.526 31.314c0 .94-.775 1.715-1.716 1.715a1.725 1.725 0 0 1-1.716-1.715c0-.941.775-1.716 1.716-1.716s1.716.775 1.716 1.716Z" fill="#CBD7E3"/><path fill-rule="evenodd" clip-rule="evenodd" d="M13.81 33.279a1.973 1.973 0 0 1-1.965-1.965c0-1.08.886-1.965 1.965-1.965 1.08 0 1.965.885 1.965 1.965a1.973 1.973 0 0 1-1.965 1.965Zm0-3.432c-.802 0-1.467.664-1.467 1.467 0 .802.665 1.467 1.467 1.467.803 0 1.467-.665 1.467-1.467 0-.803-.664-1.467-1.467-1.467Z" fill="#00082B"/><path d="M55.738 31.314c0 .24-.027.47-.083.692a3.087 3.087 0 0 1-3.016 2.407 3.095 3.095 0 0 1-3.1-3.1 3.095 3.095 0 0 1 5.369-2.103c.526.554.83 1.301.83 2.104Z" fill="#353D4A"/><path fill-rule="evenodd" clip-rule="evenodd" d="M52.639 34.773c-1.91 0-3.488-1.55-3.488-3.46 0-1.909 1.578-3.459 3.487-3.459.97 0 1.91.388 2.547 1.107.58.637.913 1.467.913 2.353a3.44 3.44 0 0 1-3.46 3.46Zm0-6.2a2.746 2.746 0 0 0-2.74 2.74 2.746 2.746 0 0 0 2.74 2.74c1.245 0 2.38-.913 2.656-2.13.037-.203.056-.406.056-.61 0-.691-.25-1.355-.72-1.854a2.725 2.725 0 0 0-1.992-.885Z" fill="#00082B"/><path fill-rule="evenodd" clip-rule="evenodd" d="M52.638 33.279a1.973 1.973 0 0 1-1.965-1.965c0-1.08.886-1.965 1.965-1.965 1.08 0 1.965.885 1.965 1.965a1.972 1.972 0 0 1-1.965 1.965Zm0-3.432c-.83 0-1.466.664-1.466 1.467 0 .802.636 1.467 1.466 1.467.803 0 1.467-.665 1.467-1.467 0-.803-.664-1.467-1.467-1.467Z" fill="#00082B"/><path d="M54.355 31.314c0 .94-.775 1.715-1.716 1.715a1.724 1.724 0 0 1-1.716-1.715c0-.941.775-1.716 1.716-1.716.94 0 1.716.775 1.716 1.716Z" fill="#CBD7E3"/><path fill-rule="evenodd" clip-rule="evenodd" d="M52.638 33.279a1.973 1.973 0 0 1-1.965-1.965c0-1.08.886-1.965 1.965-1.965 1.08 0 1.965.885 1.965 1.965a1.972 1.972 0 0 1-1.965 1.965Zm0-3.432c-.83 0-1.466.664-1.466 1.467 0 .802.636 1.467 1.466 1.467.803 0 1.467-.665 1.467-1.467 0-.803-.664-1.467-1.467-1.467Z" fill="#00082B"/><path d="M59.64 27.993v.526a2.788 2.788 0 0 1-2.795 2.795h-.028a4.566 4.566 0 0 0-1.44-3.321h4.263Z" fill="#5C6C7C"/><path fill-rule="evenodd" clip-rule="evenodd" d="M56.845 31.563h-.028a.248.248 0 0 1-.249-.25 4.307 4.307 0 0 0-1.356-3.154.225.225 0 0 1-.083-.25c.055-.11.138-.165.25-.165h4.261c.139 0 .25.11.25.249v.526a3.053 3.053 0 0 1-3.045 3.044Zm-.913-3.321a4.714 4.714 0 0 1 1.107 2.823 2.56 2.56 0 0 0 2.352-2.547v-.276h-3.46Z" fill="#00082B"/><path d="M1.854 22.07v3.958H.36v-3.93c0-.203.01-.406.028-.609h.802c.36 0 .664.277.664.581Z" fill="#FF4D4D"/><path fill-rule="evenodd" clip-rule="evenodd" d="M1.854 26.277H.36c-.111 0-.222-.11-.222-.25V21.49c0-.138.11-.25.25-.25h.802c.498 0 .913.388.913.831v3.958c0 .138-.11.249-.249.249Zm-1.245-.498h.996V22.07c0-.166-.194-.332-.415-.332H.609v4.04Z" fill="#00082B"/><path d="M11.68 27.384a4.499 4.499 0 0 0-1.385 1.577L.36 28.685v-1.633h9.797c.443 0 .886.083 1.328.249l.194.083Z" fill="#5C6C7C"/><path fill-rule="evenodd" clip-rule="evenodd" d="M10.295 29.21h-.028L.36 28.934c-.139 0-.222-.111-.222-.25v-1.632c0-.139.11-.25.222-.25h9.797c.48 0 .95.093 1.411.277l.221.083a.208.208 0 0 1 .139.194c.027.11-.028.194-.11.25a4.247 4.247 0 0 0-1.33 1.466.208.208 0 0 1-.193.138Zm-9.686-.774 9.52.276c.304-.47.664-.913 1.052-1.245a3.217 3.217 0 0 0-1.024-.166H.609v1.135Z" fill="#00082B"/><path d="M50.147 27.771c-.47.388-.885.858-1.19 1.412l-31.605-.194a4.44 4.44 0 0 0-1.3-1.384l.359-.083a6.525 6.525 0 0 1 1.688-.221l30.222.221c.442 0 .885.046 1.328.139l.498.11Z" fill="#5C6C7C"/><path fill-rule="evenodd" clip-rule="evenodd" d="m48.958 29.432-31.606-.194c-.083 0-.166-.055-.221-.138a3.917 3.917 0 0 0-1.218-1.301c-.083-.055-.11-.138-.083-.25 0-.082.083-.165.166-.193l.36-.083a6.74 6.74 0 0 1 1.744-.221l30.221.221c.461 0 .922.046 1.384.139l.498.11c.083.028.166.11.194.194.027.083-.028.194-.083.249-.47.36-.858.83-1.135 1.328-.028.083-.11.139-.221.139ZM17.49 28.74l31.328.194c.221-.36.498-.72.803-1.024h-.028a5.975 5.975 0 0 0-1.273-.139L18.1 27.55a6.87 6.87 0 0 0-1.495.166c.36.304.637.636.886 1.024Z" fill="#00082B"/><path d="m39.188 16.397-.166 2.297-.166 2.435c-.027.637-.58 1.135-1.217 1.135H4.069c-.72 0-1.301-.637-1.218-1.384l.332-2.38.332-2.352c.055-.61.581-1.052 1.218-1.052h33.21c.72 0 1.3.609 1.245 1.3Z" fill="#2196FF"/><path fill-rule="evenodd" clip-rule="evenodd" d="M37.638 22.513H4.068c-.415 0-.83-.166-1.107-.498a1.488 1.488 0 0 1-.332-1.163l.637-4.732c.083-.72.72-1.273 1.466-1.273h33.21c.416 0 .803.166 1.08.47.277.305.443.692.415 1.107l-.332 4.705a1.48 1.48 0 0 1-1.467 1.384ZM4.732 15.345c-.498 0-.913.36-.996.858L3.1 20.908c-.028.276.055.58.249.775.166.221.442.332.72.332h33.57a.97.97 0 0 0 .968-.913l.332-4.705c.028-.277-.083-.526-.277-.747-.166-.194-.443-.305-.72-.305H4.733Z" fill="#00082B"/><path d="M26.403 22.513a.248.248 0 0 1-.25-.25l-.055-7.167a.249.249 0 1 1 .498 0l.056 7.168a.249.249 0 0 1-.25.249Zm-12.926 0h-.027c-.139 0-.25-.139-.222-.25l.61-7.195c0-.138.11-.221.248-.221.139.027.25.138.222.277l-.61 7.167c0 .139-.11.222-.22.222Z" fill="#00082B"/><path d="m52.002 22.679-8.856-1.135a2.002 2.002 0 0 1-1.716-1.577l-.332-1.55-.526-2.519 2.934.167a5.481 5.481 0 0 1 3.266 1.356c.073.073.138.147.193.221l5.037 5.037Z" fill="#2196FF"/><path fill-rule="evenodd" clip-rule="evenodd" d="M52.002 22.928h-.028l-8.856-1.135c-.969-.138-1.744-.83-1.937-1.77l-.858-4.07c0-.082 0-.165.055-.22a.3.3 0 0 1 .194-.084l2.933.167a5.632 5.632 0 0 1 3.432 1.439c.074.073.148.138.221.193l5.01 5.065a.264.264 0 0 1 .055.277c-.055.083-.138.138-.221.138Zm-11.126-6.753.803 3.736a1.702 1.702 0 0 0 1.494 1.384l8.137 1.052-4.511-4.539-.194-.194c-.858-.775-1.965-1.217-3.127-1.3l-2.602-.139Z" fill="#00082B"/><path d="m39.188 16.397-.166 2.297c-5.258.664-11.098 1.024-17.214 1.024-6.67 0-13.007-.443-18.625-1.218l.332-2.352c.055-.61.58-1.052 1.217-1.052h33.21c.72 0 1.301.609 1.246 1.3Zm7.584 1.023c-1.8.388-3.681.693-5.674.997l-.526-2.519 2.934.167a5.481 5.481 0 0 1 3.266 1.356Z" fill="#fff" style="mix-blend-mode:overlay" opacity=".3"/><path d="M54.853 22.291c-7.86 2.63-18.017 4.235-29.143 4.235-9.41 0-18.127-1.135-25.35-3.072v-.803c0-.24.01-.47.028-.692a25.97 25.97 0 0 1 .442-4.15l1.08-5.453c.11-.581.636-.996 1.217-.996h36.698c1.3 0 2.574.443 3.625 1.245l7.888 7.306c.83.748 1.743 1.412 2.712 1.965l.803.415Z" fill="#fff" style="mix-blend-mode:overlay" opacity=".3"/></svg>