<svg width="60" height="36" fill="none" xmlns="http://www.w3.org/2000/svg"><path fill-rule="evenodd" clip-rule="evenodd" d="M57.431 31.892h-2.82a5.165 5.165 0 0 1-4.856 3.492c-2.217 0-4.194-1.437-4.885-3.492H18.102c-.69 2.055-2.668 3.492-4.884 3.492a5.147 5.147 0 0 1-4.922-3.67c-.938-.119-1.83-.31-2.697-.573l-3.406-.98A3.03 3.03 0 0 1 0 27.244v-.26c0-1.558.23-3.145.693-4.646.173-.577.375-1.183.635-1.79.154-.346.355-.654.606-.923.086-.115.23-.23.404-.346a3.09 3.09 0 0 1 1.5-.577l1.645-.174a10.68 10.68 0 0 0 3.954-1.212l4.3-2.28c1.934-1.039 4.04-1.616 6.205-1.789 2.627-.173 6.436-.375 9.64-.144a20.8 20.8 0 0 1 5.079.981c2.049.693 4.011 1.5 5.887 2.453a43.58 43.58 0 0 1 5.484 3.261c.308.212.635.356.981.433l9.986 2.165a2.841 2.841 0 0 1 1.99 1.587c.193.462.357.923.492 1.385.019 0 .028.02.028.058l.03.058c.076.288.143.567.201.837.116.5.193 1 .231 1.5.02.328.029.635.029.924v.577c0 .52-.144 1.01-.433 1.443a2.579 2.579 0 0 1-2.136 1.126Z" fill="#F0F" style="mix-blend-mode:overlay"/></svg>