<svg width="60" height="36" fill="none" xmlns="http://www.w3.org/2000/svg"><path fill-rule="evenodd" clip-rule="evenodd" d="M47.048 29.923h-30.56a5.52 5.52 0 0 1-5.515 5.136 5.51 5.51 0 0 1-5.08-3.368 5.731 5.731 0 0 1-.434-1.768H1.74A1.747 1.747 0 0 1 0 28.183v-1.768l.001-.34a8.836 8.836 0 0 1 .028-.698c.028-.664.056-1.328.14-1.992l2.02-19.14A2.498 2.498 0 0 1 4.687 2H35.92a8.53 8.53 0 0 1 5.697 2.16L57.67 18.22a.325.325 0 0 1 .056.085A6.884 6.884 0 0 1 60 23.413v3.676a2.823 2.823 0 0 1-1.914 2.666 4.723 4.723 0 0 1-.107.814c-.477 2.61-2.778 4.49-5.416 4.49a5.521 5.521 0 0 1-5.515-5.136Z" fill="#F0F" style="mix-blend-mode:overlay"/></svg>