<svg width="60" height="36" fill="none" xmlns="http://www.w3.org/2000/svg"><path fill-rule="evenodd" clip-rule="evenodd" d="M56.123 32.187h-1.938a.428.428 0 0 1-.31-.169.345.345 0 0 1-.028-.365 4.309 4.309 0 0 0 .253-1.994c-.056-.703-.309-1.35-.73-1.94a4.162 4.162 0 0 0-3.063-1.825c-2.022-.225-3.849.983-4.467 2.922-.15.412-.224.843-.224 1.292 0 .543.103 1.058.309 1.545a.43.43 0 0 1-.056.365.381.381 0 0 1-.31.169H18.252l-.871-.056a.67.67 0 0 1-.31-.169.47.47 0 0 1-.027-.337 4.12 4.12 0 0 0 .252-2.023.925.925 0 0 1-.028-.224 4.236 4.236 0 0 0-3.793-3.484c-1.882-.197-3.68.927-4.382 2.697a4.19 4.19 0 0 0-.281 1.517c0 .356.047.693.14 1.011.028.113 0 .225-.084.337a.451.451 0 0 1-.309.141l-1.152-.084h-.056l-3.484-.59a4.08 4.08 0 0 1-3.146-2.67l-.618-1.741a1.835 1.835 0 0 1 .561-2.023c.225-.197.366-.45.366-.73l.056-.562a1.851 1.851 0 0 1 1.517-1.658l6.209-1.04a12.337 12.337 0 0 0 3.568-1.151l1.545-.787c2.051-1.011 4.158-1.714 6.237-2.079a30.984 30.984 0 0 1 12.755.393h.028c1.349.338 2.697.871 3.99 1.574l2.219 1.208a13.808 13.808 0 0 0 5.76 1.686h.224c3.877.224 7.81.618 11.66 1.208l.533.084a2.11 2.11 0 0 1 1.826 2.163v.59c-.028.281.056.534.225.787l.197.196c.28.281.421.619.421 1.012 0 .225-.056.45-.169.674l-1.517 2.81c-.45.814-1.292 1.32-2.191 1.32ZM17.915 31.4l.365.028h26.774a5.208 5.208 0 0 1-.169-1.32c0-.524.075-1.03.225-1.517.73-2.276 2.894-3.709 5.282-3.456 1.46.14 2.781.927 3.596 2.163.477.675.786 1.461.87 2.276a5.12 5.12 0 0 1-.168 1.854h1.433c.618 0 1.208-.365 1.517-.927l1.517-2.81a.658.658 0 0 0-.113-.787 2.024 2.024 0 0 1-.252-.308c-.281-.365-.422-.787-.393-1.208v-.618c.028-.702-.478-1.292-1.18-1.405l-.534-.084a133.527 133.527 0 0 0-11.575-1.18l-.253-.028c-2.107-.112-4.214-.73-6.068-1.742l-2.192-1.208a17.465 17.465 0 0 0-3.82-1.517h-.057a30.327 30.327 0 0 0-12.418-.393c-2.022.337-4.045 1.04-6.04 2.022l-1.545.787a12.822 12.822 0 0 1-3.765 1.208l-6.237 1.068a1.045 1.045 0 0 0-.87.955l-.057.562a1.854 1.854 0 0 1-.646 1.264c-.337.281-.478.759-.337 1.18l.618 1.742a3.343 3.343 0 0 0 2.585 2.163l3.455.59.647.056a8.46 8.46 0 0 1-.029-.702c0-.618.103-1.218.31-1.798.814-2.08 2.95-3.4 5.169-3.175a5.04 5.04 0 0 1 4.439 4.102c.018.094.028.187.028.281a5.248 5.248 0 0 1-.113 1.882Z" fill="#00082B"/><path d="M54.493 30.108c0 .59-.112 1.18-.309 1.686-.674 1.713-2.36 2.95-4.298 2.95a4.665 4.665 0 0 1-4.327-2.95 4.729 4.729 0 0 1-.308-1.686 4.64 4.64 0 0 1 4.635-4.636c2.557 0 4.607 2.08 4.607 4.636Z" fill="#353D4A"/><path fill-rule="evenodd" clip-rule="evenodd" d="M49.886 35.109a4.963 4.963 0 0 1-4.664-3.175 5.013 5.013 0 0 1-.337-1.826c0-2.753 2.22-5 5.001-5 2.753 0 5 2.247 5 5 0 .646-.14 1.236-.364 1.826-.73 1.939-2.585 3.175-4.636 3.175Zm0-9.243c-2.36 0-4.27 1.91-4.27 4.242 0 .543.103 1.058.309 1.545.646 1.658 2.191 2.697 3.961 2.697a4.226 4.226 0 0 0 3.961-2.697 4.252 4.252 0 0 0 .281-1.545 4.257 4.257 0 0 0-4.242-4.242Z" fill="#00082B"/><path d="M17.69 30.108c0 .59-.085 1.124-.281 1.63-.674 1.77-2.36 3.006-4.327 3.006a4.615 4.615 0 0 1-4.495-3.54 4.287 4.287 0 0 1-.14-1.096 4.64 4.64 0 0 1 4.635-4.636c2.557 0 4.608 2.08 4.608 4.636Z" fill="#353D4A"/><path fill-rule="evenodd" clip-rule="evenodd" d="M13.082 35.109a4.966 4.966 0 0 1-4.86-3.821 4.849 4.849 0 0 1-.14-1.18c0-2.753 2.219-5 5-5a5.011 5.011 0 0 1 5.001 5 4.72 4.72 0 0 1-.337 1.77 5.014 5.014 0 0 1-4.664 3.23Zm0-9.243c-2.36 0-4.27 1.91-4.27 4.242 0 .356.047.693.14 1.011.45 1.91 2.164 3.231 4.13 3.231a4.264 4.264 0 0 0 3.962-2.725 4.19 4.19 0 0 0 .28-1.517 4.257 4.257 0 0 0-4.242-4.242Z" fill="#00082B"/><path d="M15.948 30.108c0 .478-.113.927-.31 1.32-.477.927-1.46 1.574-2.556 1.574-1.264 0-2.304-.787-2.725-1.91a2.894 2.894 0 0 1-.168-.984c0-1.573 1.292-2.866 2.893-2.866a2.878 2.878 0 0 1 2.866 2.866Z" fill="#CBD7E3"/><path fill-rule="evenodd" clip-rule="evenodd" d="M13.083 33.255c-1.32 0-2.5-.843-2.95-2.08a2.92 2.92 0 0 1-.197-1.067c0-1.714 1.405-3.119 3.147-3.119a3.13 3.13 0 0 1 3.118 3.119c0 .506-.112.983-.337 1.433a3.136 3.136 0 0 1-2.781 1.714Zm0-5.788a2.638 2.638 0 0 0-2.641 2.641c0 .318.056.618.168.9a2.61 2.61 0 0 0 2.473 1.74c.983 0 1.882-.561 2.332-1.432a2.55 2.55 0 0 0 .28-1.208c0-1.46-1.18-2.64-2.612-2.64Z" fill="#00082B"/><path d="M52.752 30.108c0 .478-.113.927-.31 1.32-.477.927-1.46 1.574-2.556 1.574-1.264 0-2.304-.787-2.725-1.91a2.894 2.894 0 0 1-.169-.984c0-1.573 1.293-2.866 2.894-2.866a2.878 2.878 0 0 1 2.866 2.866Z" fill="#CBD7E3"/><path fill-rule="evenodd" clip-rule="evenodd" d="M49.886 33.255c-1.32 0-2.5-.843-2.95-2.08a2.92 2.92 0 0 1-.196-1.067c0-1.714 1.404-3.119 3.146-3.119a3.13 3.13 0 0 1 3.119 3.119c0 .506-.113.983-.337 1.433a3.136 3.136 0 0 1-2.782 1.714Zm0-5.788c-1.46 0-2.64 1.18-2.64 2.641 0 .318.056.618.168.9a2.61 2.61 0 0 0 2.472 1.74c.984 0 1.883-.561 2.332-1.432a2.55 2.55 0 0 0 .281-1.208c0-1.46-1.18-2.64-2.613-2.64Z" fill="#00082B"/><path d="M38.986 22.045H25.529c-1.18 0-2.36-.169-3.484-.478l-3.793-1.095 1.854-1.265.113-.056a6.04 6.04 0 0 1 3.37-1.04h5.31c2.276 0 4.552.59 6.547 1.715.112.074.234.15.365.224l3.175 1.939c.028.028.028.056 0 .056Z" fill="#CBD7E3"/><path fill-rule="evenodd" clip-rule="evenodd" d="M38.986 22.298H25.528a12.74 12.74 0 0 1-3.568-.506l-3.793-1.068c-.084-.028-.14-.112-.168-.196-.028-.113.028-.197.112-.253l1.967-1.349a6.228 6.228 0 0 1 3.512-1.067h5.31c2.332 0 4.635.618 6.658 1.742l.393.224 3.175 1.939c.112.084.169.197.112.337a.27.27 0 0 1-.252.197Zm-20.144-1.91 3.259.926c1.123.337 2.276.478 3.427.478h12.67l-2.528-1.517a6.305 6.305 0 0 0-.365-.225 13.223 13.223 0 0 0-6.405-1.686h-5.31a5.755 5.755 0 0 0-3.231.984l-.112.084-1.405.955Z" fill="#00082B"/><path d="M24.882 32.047a.246.246 0 0 1-.253-.197l-1.18-6.602c-.169-.843-.169-1.714-.056-2.585l.084-.787.9-3.82a.259.259 0 0 1 .308-.197c.14.028.225.168.169.309l-.871 3.82-.113.731c-.084.815-.084 1.63.056 2.444l1.18 6.602c.029.113-.056.253-.196.282h-.028Zm15.284 0a.248.248 0 0 1-.113-.029c-.112-.028-.168-.196-.14-.309l.618-1.489a8.684 8.684 0 0 0 .618-4.214 4.956 4.956 0 0 0-1.49-3.062l-.73-.702c-.112-.113-.112-.281-.028-.366.113-.112.253-.112.366 0l.758.703a5.552 5.552 0 0 1 1.63 3.371 9.512 9.512 0 0 1-.647 4.439l-.618 1.517c-.056.084-.14.14-.224.14Z" fill="#00082B"/><path d="M58.792 24.967h-.028l-4.355-.478a38.477 38.477 0 0 0-3.09-.14h-25.06a28.99 28.99 0 0 1-5.394-.506 30.584 30.584 0 0 0-5.31-.478H1.479a.252.252 0 0 1-.252-.252c0-.141.112-.253.252-.253h14.076c1.798 0 3.624.168 5.394.505 1.742.31 3.54.478 5.31.478h25.06c1.04 0 2.107.056 3.118.169l4.383.449c.14.028.225.14.225.281-.028.112-.112.225-.253.225Z" fill="#00082B"/><path d="M35.446 19.825c-2.023.618-4.355.956-6.827.956-3.203 0-6.153-.59-8.513-1.574l.112-.056a6.04 6.04 0 0 1 3.372-1.04h5.31c2.275 0 4.55.59 6.546 1.714Z" fill="#fff" style="mix-blend-mode:overlay" opacity=".3"/><path d="M59.101 26.371a94.84 94.84 0 0 1-5.422 1.124c-2.613.478-5.338.871-8.204 1.208-5.422.618-11.266.927-17.334.927-3.596 0-7.108-.112-10.507-.337-3.063-.197-6.04-.477-8.878-.843-2.81-.365-5.479-.786-8.035-1.292l-.253-.787C.243 25.81.44 25.163.889 24.77c.31-.225.506-.59.534-.983l.028-.562a1.46 1.46 0 0 1 1.208-1.293l6.237-1.067c1.264-.197 2.5-.618 3.652-1.18l1.546-.787c1.938-.955 3.99-1.685 6.124-2.05 1.77-.31 3.568-.478 5.338-.478 2.444 0 4.889.309 7.277.87h.028c1.348.338 2.669.872 3.905 1.546l2.191 1.208a13.767 13.767 0 0 0 5.928 1.714h.253c3.877.243 7.745.646 11.603 1.208l.534.084a1.745 1.745 0 0 1 1.517 1.798l-.028.59c0 .365.112.702.337.983Z" fill="#fff" style="mix-blend-mode:overlay" opacity=".3"/></svg>