<svg width="60" height="35" fill="none" xmlns="http://www.w3.org/2000/svg"><path fill-rule="evenodd" clip-rule="evenodd" d="M58.275 29.993h-3.127a5.093 5.093 0 0 1-5.078 4.729c-2.714 0-4.919-2.088-5.105-4.729H19.072c-.185 2.641-2.39 4.729-5.105 4.729a5.093 5.093 0 0 1-5.077-4.729H1.784A1.52 1.52 0 0 1 .282 28.77l-.25-1.197c-.084-.333 0-.695.222-.973.25-.306.584-.445.946-.445.037 0 .074-.019.111-.056 0-.011.005-.023.01-.036.008-.02.018-.042.018-.075v-5.452c0-.185.028-.361.083-.528.223-.723.89-1.252 1.641-1.28l7.677-.361c.807-.056 1.586-.278 2.253-.695l3.867-2.393A8.368 8.368 0 0 1 21.31 14h8.984c6.294 0 11.067 2.689 13.943 4.309l.103.058.47.268h.001c.61.35 1.102.632 1.504.789 1.252.5 2.587.834 3.922.973l5.646.585a5.42 5.42 0 0 1 1.085.278 4.814 4.814 0 0 1 1.836 1.335c.315.37.566.779.75 1.224l.112.278c.149.352.241.704.278 1.057.037.24.056.473.056.695v2.42c0 .946-.751 1.724-1.725 1.724Z" fill="#F0F" style="mix-blend-mode:overlay"/></svg>