<svg width="60" height="36" fill="none" xmlns="http://www.w3.org/2000/svg"><path fill-rule="evenodd" clip-rule="evenodd" d="M43.289 32.077H14.764l-.458-.055a6.114 6.114 0 0 1-5.288 3.031 6.083 6.083 0 0 1-5.86-4.388 3.107 3.107 0 0 1-.123-.032l-.854-.236A2.985 2.985 0 0 1 .177 28.51 2.83 2.83 0 0 1 0 27.509v-2.977a12.2 12.2 0 0 1 .59-3.713v-.03l1.06-3.447a3.366 3.366 0 0 1 1.09-1.591c.099-.08.207-.158.325-.236a.923.923 0 0 0 .236-.177 2.27 2.27 0 0 0 .5-.56l3.065-4.597c.02-.04.04-.089.06-.148v-.117l-.03-.501a.67.67 0 0 1 .619-.737l6.13-.59A21.472 21.472 0 0 1 15.588 8h12.083c.825 0 1.62.088 2.416.206l1.857.295a15.68 15.68 0 0 1 3.477 1.002 15.059 15.059 0 0 1 3.006 1.68l6.189 4.48c.648.47 1.326.765 2.092.883a.97.97 0 0 0 .236.03l5.275.707c2.711.354 5.069 1.857 6.483 4.185A8.95 8.95 0 0 1 60 26.124v3.36c0 .441-.147.883-.442 1.237-.295.354-.707.59-1.179.678l-3.89.56a5.76 5.76 0 0 1-.702.083 6.096 6.096 0 0 1-5.25 3.011 6.073 6.073 0 0 1-5.248-2.976Z" fill="#F0F" style="mix-blend-mode:overlay"/></svg>