<svg width="60" height="36" fill="none" xmlns="http://www.w3.org/2000/svg"><path fill-rule="evenodd" clip-rule="evenodd" d="M43.526 32.077H14.764l-.736-.089c-.118-.03-.236-.088-.295-.206a.437.437 0 0 1 0-.383 5.35 5.35 0 0 0 .59-2.446 5.301 5.301 0 0 0-5.305-5.305c-2.918 0-5.305 2.387-5.305 5.305 0 .452.05.884.147 1.297.03.117 0 .265-.088.353-.088.089-.206.147-.324.118a3.084 3.084 0 0 1-.413-.088l-.854-.236A2.985 2.985 0 0 1 .177 28.51 2.83 2.83 0 0 1 0 27.509v-2.977a12.2 12.2 0 0 1 .59-3.713v-.03l1.06-3.447a3.366 3.366 0 0 1 1.09-1.591c.099-.08.207-.158.325-.236a.923.923 0 0 0 .236-.177 2.27 2.27 0 0 0 .5-.56l3.065-4.597c.02-.04.04-.089.06-.148v-.117l-.03-.501a.67.67 0 0 1 .619-.737l6.13-.59A21.472 21.472 0 0 1 15.588 8h12.083c.825 0 1.62.088 2.416.206l1.857.295a15.68 15.68 0 0 1 3.477 1.002 15.059 15.059 0 0 1 3.006 1.68l6.189 4.48c.648.47 1.326.765 2.092.883.079.02.157.03.236.03l5.275.707c2.711.354 5.069 1.857 6.483 4.185A8.95 8.95 0 0 1 60 26.124v3.36c0 .441-.147.883-.442 1.237-.295.354-.707.59-1.179.678l-3.89.56a5.298 5.298 0 0 1-.913.088.42.42 0 0 1-.354-.177c-.059-.117-.088-.265 0-.383a5.37 5.37 0 0 0 .619-2.534c0-1.975-1.09-3.772-2.859-4.715a5.35 5.35 0 0 0-2.446-.59 5.397 5.397 0 0 0-3.949 1.739 5.384 5.384 0 0 0-1.355 3.566c0 .884.206 1.768.619 2.534a.31.31 0 0 1 0 .383.4.4 0 0 1-.325.207Zm-28.703-.796h28.085a5.773 5.773 0 0 1-.472-2.328 6.1 6.1 0 0 1 1.562-4.067 6.15 6.15 0 0 1 4.538-2.033c.973 0 1.945.235 2.83.707a6.072 6.072 0 0 1 2.828 7.662.558.558 0 0 1 .177-.03l3.89-.589c.266-.03.53-.177.708-.383.147-.206.265-.471.265-.737v-3.36a7.976 7.976 0 0 0-1.208-4.243 8.12 8.12 0 0 0-5.894-3.83l-5.305-.679a5.744 5.744 0 0 0-.265-.059 5.903 5.903 0 0 1-2.387-1.002l-6.189-4.479a14.375 14.375 0 0 0-2.858-1.591c-1.061-.472-2.181-.767-3.3-.973l-1.857-.294a15.095 15.095 0 0 0-2.3-.177H15.59c-.628 0-1.247.03-1.856.088l-6.041.59.029.412c0 .098-.01.197-.03.295a1.752 1.752 0 0 1-.176.442L4.479 15.22c-.176.275-.402.52-.677.737a4.601 4.601 0 0 1-.325.235l-.235.177c-.413.295-.678.708-.826 1.209l-1.09 3.448a11.91 11.91 0 0 0-.53 3.506v2.977a2.167 2.167 0 0 0 1.591 2.122l.59.177a6.04 6.04 0 0 1-.06-.855c0-3.36 2.741-6.1 6.1-6.1 3.36 0 6.1 2.74 6.1 6.1 0 .796-.146 1.591-.441 2.328h.147Z" fill="#00082B"/><path d="M58.35 21.674c-2.093.855-4.539 1.62-7.191 2.24-2.122.5-4.45.913-6.866 1.208-3.625.5-7.545.766-11.582.766-13.556 0-25.285-2.888-31.09-7.102l.412-1.326c.177-.56.501-1.061.943-1.415l.295-.177c.098-.078.196-.147.295-.206a4.65 4.65 0 0 0 .589-.648l3.035-4.598a.926.926 0 0 0 .118-.294.367.367 0 0 0 0-.207l-.03-.53c0-.147.119-.295.266-.295l6.13-.589a21.155 21.155 0 0 1 1.915-.088h12.083c.785 0 1.571.058 2.357.176l1.857.295c1.179.206 2.299.53 3.389.973a15.725 15.725 0 0 1 2.917 1.65l6.218 4.48a5.428 5.428 0 0 0 2.24.942l.236.06 5.304.677c2.623.354 4.863 1.857 6.16 4.008Z" fill="#fff" style="mix-blend-mode:overlay" opacity=".3"/><path d="M54.224 28.953c0 .972-.236 1.915-.678 2.711a5.63 5.63 0 0 1-5.01 3.006c-2.18 0-4.037-1.208-5.01-2.977a5.742 5.742 0 0 1-.707-2.74c0-3.153 2.564-5.688 5.717-5.688a5.672 5.672 0 0 1 5.688 5.688Z" fill="#353D4A"/><path fill-rule="evenodd" clip-rule="evenodd" d="M48.536 35.053a6.07 6.07 0 0 1-5.363-3.183 6.211 6.211 0 0 1-.737-2.917c0-3.36 2.74-6.1 6.1-6.1 3.36 0 6.1 2.74 6.1 6.1a6.183 6.183 0 0 1-.736 2.888 6.097 6.097 0 0 1-5.364 3.212Zm0-11.405a5.301 5.301 0 0 0-5.304 5.305c0 .884.206 1.768.619 2.534a5.356 5.356 0 0 0 4.685 2.77 5.357 5.357 0 0 0 4.686-2.77c.412-.766.619-1.65.619-2.534 0-2.918-2.387-5.305-5.305-5.305Z" fill="#00082B"/><path d="M49.98 31.694c-.442.206-.913.353-1.444.353-.53 0-1.002-.147-1.444-.353-.972-.53-1.65-1.562-1.65-2.741 0-1.68 1.385-3.065 3.094-3.065a3.062 3.062 0 0 1 3.065 3.065c0 1.179-.648 2.21-1.62 2.74Z" fill="#CBD7E3"/><path fill-rule="evenodd" clip-rule="evenodd" d="M48.536 32.312a3.17 3.17 0 0 1-1.562-.412 3.334 3.334 0 0 1-1.798-2.947c0-1.827 1.503-3.33 3.36-3.33a3.345 3.345 0 0 1 3.33 3.33c0 1.238-.678 2.387-1.768 2.947a3.256 3.256 0 0 1-1.562.412Zm0-6.188a2.83 2.83 0 0 0-2.83 2.829c0 1.06.59 2.004 1.504 2.505a2.996 2.996 0 0 0 2.652 0 2.856 2.856 0 0 0 1.503-2.505 2.83 2.83 0 0 0-2.83-2.83Z" fill="#00082B"/><path d="M14.735 28.953c0 .943-.236 1.856-.649 2.652a5.685 5.685 0 0 1-5.068 3.065c-2.682 0-4.922-1.857-5.54-4.332a6.5 6.5 0 0 1-.148-1.385 5.672 5.672 0 0 1 5.688-5.688c3.153 0 5.717 2.535 5.717 5.688Z" fill="#353D4A"/><path fill-rule="evenodd" clip-rule="evenodd" d="M9.018 35.053a6.083 6.083 0 0 1-6.1-6.1c0-3.36 2.74-6.1 6.1-6.1 3.36 0 6.1 2.74 6.1 6.1a6.163 6.163 0 0 1-.678 2.829 6.117 6.117 0 0 1-5.422 3.271Zm0-11.405c-2.918 0-5.305 2.387-5.305 5.305 0 .452.05.884.147 1.297a5.301 5.301 0 0 0 5.158 4.007 5.268 5.268 0 0 0 4.715-2.858 5.35 5.35 0 0 0 .59-2.446 5.301 5.301 0 0 0-5.305-5.305Z" fill="#00082B"/><path fill-rule="evenodd" clip-rule="evenodd" d="M9.017 32.165c-1.06 0-2.033-.53-2.652-1.385-.354-.56-.56-1.179-.56-1.827a3.22 3.22 0 0 1 3.212-3.212 3.22 3.22 0 0 1 3.213 3.212 3.22 3.22 0 0 1-1.061 2.387 3.22 3.22 0 0 1-2.152.825Zm0-6.16a2.956 2.956 0 0 0-2.947 2.948c0 .59.177 1.179.53 1.68.531.795 1.445 1.267 2.417 1.267.737 0 1.444-.265 1.975-.766a2.95 2.95 0 0 0 .972-2.181 2.956 2.956 0 0 0-2.947-2.947Z" fill="#00082B"/><path d="M12.112 28.953c0 .913-.383 1.71-1.032 2.299a3.142 3.142 0 0 1-2.063.795c-1.06 0-1.974-.53-2.534-1.355a2.96 2.96 0 0 1-.53-1.74 3.081 3.081 0 0 1 3.064-3.064c1.71 0 3.095 1.385 3.095 3.065Z" fill="#CBD7E3"/><path fill-rule="evenodd" clip-rule="evenodd" d="M9.018 32.312c-1.09 0-2.122-.56-2.74-1.473a3.322 3.322 0 0 1-.59-1.886 3.345 3.345 0 0 1 3.33-3.33c1.857 0 3.36 1.503 3.36 3.33 0 .943-.413 1.856-1.12 2.475-.59.56-1.415.884-2.24.884Zm0-6.188c-1.532 0-2.8 1.267-2.8 2.829 0 .59.148 1.12.472 1.591a2.866 2.866 0 0 0 2.328 1.238c.707 0 1.385-.265 1.886-.737.59-.53.943-1.297.943-2.092a2.83 2.83 0 0 0-2.829-2.83Z" fill="#00082B"/><path d="M46.65 16.93H32.77c-.413 0-.825-.01-1.238-.03l-15.796-1.208c-1.001-.089-1.945-.443-2.71-1.061a4.72 4.72 0 0 1-1.12-1.18 5.163 5.163 0 0 1-.678-1.473v-.03a1.495 1.495 0 0 1-.03-.294c0-.59.442-1.15 1.09-1.208l4.834-.442c.825-.059 1.66-.098 2.505-.118l15.648-.03a15.734 15.734 0 0 1 2.917 1.65l.914.65 5.304 3.83a5.427 5.427 0 0 0 2.24.943Z" fill="#2196FF"/><path fill-rule="evenodd" clip-rule="evenodd" d="M46.65 17.195H32.77c-.432 0-.855-.02-1.267-.06l-15.796-1.178a5.378 5.378 0 0 1-2.858-1.12 5.29 5.29 0 0 1-1.857-2.8v-.03a1.113 1.113 0 0 1-.059-.353c0-.736.59-1.385 1.326-1.444l4.833-.471a35.16 35.16 0 0 1 2.535-.089l15.648-.059c.04 0 .079.01.118.03a15.697 15.697 0 0 1 2.976 1.68l6.189 4.479a4.807 4.807 0 0 0 2.122.884c.147.03.236.147.236.295-.03.147-.148.236-.266.236Zm-35.157-5.276c.138.492.354.953.648 1.386.275.432.62.805 1.032 1.12.737.589 1.65.942 2.593 1.001l15.766 1.209c.413.02.826.03 1.238.03h12.26a6.513 6.513 0 0 1-.796-.473l-6.189-4.479c-.884-.619-1.827-1.179-2.829-1.591l-15.59.03c-.854 0-1.68.058-2.475.117l-4.833.442a.954.954 0 0 0-.825 1.179v.03Z" fill="#00082B"/><path d="M21.012 16.34c-.118 0-.236-.088-.266-.236l-.294-6.188c0-.148.088-.266.235-.295.148 0 .266.118.295.265l.295 6.189c0 .147-.089.265-.236.265h-.03Z" fill="#00082B"/><path d="M39.253 29.925h-.059l-15.383-.471a1.981 1.981 0 0 1-1.857-1.474l-.589-2.269a18.615 18.615 0 0 1-.619-4.774v-4.862c0-.118.118-.236.265-.236.148 0 .266.118.266.236v4.862c0 1.562.206 3.124.589 4.627l.59 2.299c.176.618.736 1.06 1.355 1.06l15.383.472a1.432 1.432 0 0 0 1.474-1.15l.294-1.355c.649-3.094.678-6.277.06-9.4l-.09-.502a.272.272 0 0 1 .207-.324c.147-.03.265.088.295.236l.118.5a23.99 23.99 0 0 1-.089 9.608l-.294 1.355a1.931 1.931 0 0 1-1.916 1.562Z" fill="#00082B"/><path d="M7.927 11.713 6.07 14.69a2.005 2.005 0 0 1-1.709.972h-.796c.217-.196.413-.413.59-.648l3.035-4.598a.926.926 0 0 0 .118-.294l.265.147c.501.295.649.943.354 1.444Z" fill="#2196FF"/><path fill-rule="evenodd" clip-rule="evenodd" d="M4.362 15.898h-.796c-.118 0-.206-.06-.265-.177a.238.238 0 0 1 .088-.265c.216-.177.393-.373.53-.59l3.036-4.597a1.45 1.45 0 0 0 .088-.206.529.529 0 0 1 .148-.206c.088-.03.176-.03.235.029l.266.147c.294.177.53.472.618.825.06.354 0 .708-.176 1.002l-1.828 2.977c-.412.678-1.149 1.06-1.944 1.06Zm-.177-.501h.177c.618 0 1.178-.324 1.502-.825l1.828-3.006a.694.694 0 0 0 .088-.59.65.65 0 0 0-.354-.471c0 .02-.01.03-.03.03L4.363 15.16l-.177.236Z" fill="#00082B"/><path d="m8.104 17.637-.766.265c-2.505.736-2.829 1.886-3.418 2.652a.984.984 0 0 1-.737.354H.973s.235-.737.589-1.621a4.822 4.822 0 0 1 2.092-2.535c1.18-.707 2.653-.648 3.802.06l.678.412c.177.118.147.354-.03.413Z" fill="#FF4D4D"/><path fill-rule="evenodd" clip-rule="evenodd" d="M3.183 21.173H.973c-.09 0-.178-.06-.236-.118a.313.313 0 0 1-.03-.236s.265-.736.59-1.62a5.26 5.26 0 0 1 2.24-2.682c1.237-.737 2.799-.708 4.066.088l.678.413a.52.52 0 0 1 .235.442.482.482 0 0 1-.324.412l-.766.295c-2.004.56-2.534 1.385-3.006 2.092a2.165 2.165 0 0 1-.294.442c-.207.295-.56.472-.943.472Zm-1.857-.53h1.857a.63.63 0 0 0 .53-.266c.098-.118.187-.245.265-.383.501-.766 1.12-1.71 3.3-2.328l.65-.265-.59-.354c-1.12-.678-2.476-.707-3.537-.059a4.697 4.697 0 0 0-2.004 2.387c-.206.501-.353.973-.471 1.267Z" fill="#00082B"/><path d="m58.585 23.766-2.357-.412c-.708-.118-1.327-.472-1.828-.973l-.088-.088a6.973 6.973 0 0 0-2.18-1.533l-2.358-1.06c-.148-.09-.177-.295-.03-.384.649-.412 1.415-.59 2.152-.442 2.8.56 6.69 2.623 6.69 4.892Z" fill="#CBD7E3"/><path fill-rule="evenodd" clip-rule="evenodd" d="M58.586 24.031h-.06l-2.357-.412a3.636 3.636 0 0 1-1.945-1.061l-.118-.088a6.566 6.566 0 0 0-2.092-1.474l-2.328-1.06a.443.443 0 0 1-.295-.413.438.438 0 0 1 .206-.442c.707-.443 1.562-.62 2.358-.472 2.888.59 6.896 2.682 6.896 5.157 0 .089-.03.177-.089.206a.317.317 0 0 1-.176.06Zm-8.635-4.538 2.269 1.002a7.69 7.69 0 0 1 2.27 1.591l.117.118a2.931 2.931 0 0 0 1.65.884l2.034.383c-.354-2.003-3.86-3.83-6.425-4.332a2.726 2.726 0 0 0-1.915.354Z" fill="#00082B"/><path d="M39.105 12.155c-3.624 1.09-8.398 1.768-13.644 1.768-5.54 0-10.55-.736-14.234-1.974a1.494 1.494 0 0 1-.03-.295c0-.59.443-1.15 1.091-1.208l4.833-.442a52.12 52.12 0 0 1 2.505-.118l15.648-.03a15.736 15.736 0 0 1 2.918 1.65l.913.65Z" fill="#fff" style="mix-blend-mode:overlay" opacity=".3"/></svg>