<svg width="60" height="36" fill="none" xmlns="http://www.w3.org/2000/svg"><path fill-rule="evenodd" clip-rule="evenodd" d="M48.968 31.472h-33.24a.454.454 0 0 1-.31-.141.57.57 0 0 1-.086-.311 4.29 4.29 0 0 0 .085-.849c0-.933-.31-1.839-.905-2.574a4.145 4.145 0 0 0-3.253-1.556c-.934 0-1.839.311-2.574.877a4.144 4.144 0 0 0-1.556 3.253c0 .283.028.566.085.849a.57.57 0 0 1-.085.311.454.454 0 0 1-.311.141h-5.12A1.702 1.702 0 0 1 0 29.775v-1.273c0-.99.368-1.924 1.047-2.63l.056-.086c.151-.15.293-.32.425-.509.113-.15.207-.302.282-.452.151-.264.264-.547.34-.849l.65-2.065a4.621 4.621 0 0 1 1.047-1.81 4.843 4.843 0 0 1 1.98-1.302l.17-.056a4.149 4.149 0 0 0 1.67-1.075l1.272-1.415a10.216 10.216 0 0 1 3.678-2.49c.877-.339 1.81-.537 2.744-.622h.028L31.287 13a5.87 5.87 0 0 1 1.301.198c.623.189 1.207.48 1.754.877.547.377 1 .849 1.358 1.414l1.5 2.264c.537.82 1.442 1.3 2.432 1.329l16.747.34a1.87 1.87 0 0 1 1.782 1.499l.283 1.527c.057.34.151.66.283.962.076.189.17.387.283.594v.028c.056.095.113.18.17.255l.31.453c.34.509.51 1.075.51 1.669v2.121c0 .764-.283 1.5-.82 2.037a2.492 2.492 0 0 1-.962.65.717.717 0 0 1-.17.086.348.348 0 0 1-.368-.029.34.34 0 0 1-.17-.367 4.46 4.46 0 0 0 .057-.736c0-2.291-1.867-4.13-4.158-4.13a4.117 4.117 0 0 0-4.13 4.13c0 .283.018.566.056.849a.393.393 0 0 1-.056.311.455.455 0 0 1-.312.141Zm-32.815-.763h32.39a4.886 4.886 0 0 1-.028-.538c0-2.687 2.206-4.894 4.894-4.894 2.715 0 4.922 2.207 4.922 4.894v.142c.113-.076.217-.16.311-.255.396-.424.622-.962.622-1.528v-2.12a2.17 2.17 0 0 0-.396-1.245l-.31-.453-.17-.282c-.02 0-.029-.01-.029-.029a4.878 4.878 0 0 1-.34-.707 5.016 5.016 0 0 1-.339-1.103l-.282-1.528c-.085-.48-.51-.848-1.019-.877l-16.775-.34a3.746 3.746 0 0 1-3.027-1.668l-1.5-2.263a4.668 4.668 0 0 0-1.187-1.245 4.417 4.417 0 0 0-1.528-.736 5.374 5.374 0 0 0-1.103-.17l-15.87.142a8.378 8.378 0 0 0-2.49.566 9.323 9.323 0 0 0-3.394 2.32l-1.301 1.386a4.602 4.602 0 0 1-1.952 1.273l-.17.056a3.93 3.93 0 0 0-1.669 1.104 3.666 3.666 0 0 0-.877 1.499l-.65 2.093a7.42 7.42 0 0 1-.397.962l-.34.566c-.15.188-.31.377-.48.566l-.057.085c-.537.593-.848 1.329-.848 2.121v1.273c0 .51.424.934.933.934h4.696a4.87 4.87 0 0 1-.028-.538c0-1.5.679-2.885 1.867-3.819a4.717 4.717 0 0 1 3.027-1.075c1.5 0 2.913.68 3.847 1.839a4.793 4.793 0 0 1 1.075 3.055c0 .189-.01.368-.028.538Z" fill="#00082B"/><path d="M15.813 30.171a3.5 3.5 0 0 1-.113.905 4.527 4.527 0 0 1-4.441 3.65c-2.179 0-4.017-1.585-4.442-3.65a4.613 4.613 0 0 1-.085-.905 4.54 4.54 0 0 1 4.527-4.526c2.517 0 4.554 2.037 4.554 4.526Z" fill="#353D4A"/><path fill-rule="evenodd" clip-rule="evenodd" d="M11.259 35.093c-2.32 0-4.329-1.64-4.81-3.932a5.688 5.688 0 0 1-.084-.99c0-2.687 2.206-4.894 4.894-4.894 2.715 0 4.922 2.207 4.922 4.894 0 .34-.028.67-.085.99a4.937 4.937 0 0 1-4.837 3.932Zm0-9.052a4.135 4.135 0 0 0-4.046 4.979c.368 1.923 2.094 3.31 4.046 3.31 1.98 0 3.705-1.387 4.073-3.31a4.29 4.29 0 0 0 .085-.849c0-2.291-1.867-4.13-4.158-4.13Z" fill="#00082B"/><path d="M11.258 32.774c-1.103 0-2.036-.708-2.404-1.698a2.415 2.415 0 0 1-.17-.905 2.584 2.584 0 0 1 2.574-2.574c1.443 0 2.603 1.16 2.603 2.574 0 .32-.057.623-.17.905a2.582 2.582 0 0 1-2.433 1.698Z" fill="#CBD7E3"/><path fill-rule="evenodd" clip-rule="evenodd" d="M11.258 33.028c-1.16 0-2.234-.764-2.659-1.867-.113-.32-.17-.65-.17-.99a2.837 2.837 0 0 1 2.83-2.829c1.584 0 2.857 1.273 2.857 2.83 0 .339-.057.669-.17.99-.424 1.102-1.5 1.866-2.688 1.866Zm0-5.176a2.33 2.33 0 0 0-2.32 2.32c0 .282.048.555.142.82.34.905 1.217 1.527 2.178 1.527.99 0 1.868-.622 2.207-1.527a2.42 2.42 0 0 0 .142-.82c0-1.274-1.047-2.32-2.348-2.32Z" fill="#00082B"/><path d="M57.963 30.171c0 .264-.028.528-.085.792a4.534 4.534 0 0 1-4.47 3.763c-2.178 0-4.017-1.585-4.44-3.65a4.619 4.619 0 0 1-.086-.905 4.54 4.54 0 0 1 4.526-4.526c2.518 0 4.555 2.037 4.555 4.526Z" fill="#353D4A"/><path fill-rule="evenodd" clip-rule="evenodd" d="M53.409 35.093c-2.32 0-4.329-1.64-4.81-3.932a5.695 5.695 0 0 1-.084-.99c0-2.687 2.206-4.894 4.894-4.894 2.715 0 4.922 2.207 4.922 4.894 0 .302-.029.585-.085.849a4.894 4.894 0 0 1-4.837 4.073Zm0-9.052a4.117 4.117 0 0 0-4.13 4.13c0 .283.018.566.056.849.396 1.923 2.122 3.31 4.074 3.31 2.036 0 3.762-1.443 4.101-3.423.038-.246.057-.49.057-.736 0-2.291-1.867-4.13-4.158-4.13Z" fill="#00082B"/><path d="M53.408 32.774c-1.103 0-2.037-.708-2.404-1.698a2.416 2.416 0 0 1-.17-.905 2.584 2.584 0 0 1 2.574-2.574c1.443 0 2.603 1.16 2.603 2.574 0 .32-.057.623-.17.905a2.582 2.582 0 0 1-2.433 1.698Z" fill="#CBD7E3"/><path fill-rule="evenodd" clip-rule="evenodd" d="M53.408 33.028c-1.16 0-2.234-.764-2.659-1.867-.113-.32-.17-.65-.17-.99a2.837 2.837 0 0 1 2.83-2.829c1.584 0 2.857 1.273 2.857 2.83 0 .339-.066.669-.198.99a2.846 2.846 0 0 1-2.66 1.866Zm0-5.176a2.33 2.33 0 0 0-2.32 2.32c0 .282.048.555.142.82.34.905 1.217 1.527 2.178 1.527.99 0 1.867-.622 2.207-1.527a2.42 2.42 0 0 0 .141-.82c0-1.274-1.046-2.32-2.348-2.32Z" fill="#00082B"/><path d="M59.632 26.409v2.121a2.48 2.48 0 0 1-.735 1.783c-.227.245-.5.433-.82.565l-.17.057c0 .019-.01.028-.029.028a3.77 3.77 0 0 0 .085-.792c0-2.49-2.037-4.526-4.554-4.526a4.54 4.54 0 0 0-4.526 4.526c0 .32.028.623.084.905H37.822c0-9.505 15.615-9.024 15.615-9.024 2.065 0 3.904.82 5.262 2.15v.029c.056.094.113.179.17.254l.31.481c.312.424.453.934.453 1.443Z" fill="#CBD7E3"/><path fill-rule="evenodd" clip-rule="evenodd" d="M48.967 31.331H37.822a.254.254 0 0 1-.255-.255c0-2.093.735-3.903 2.235-5.318 4.3-4.187 13.267-3.989 13.635-3.96a7.66 7.66 0 0 1 5.431 2.235l.057.056c.038.094.085.18.141.255l.34.48c.31.481.48 1.019.48 1.585v2.121a2.76 2.76 0 0 1-.792 1.952c-.264.283-.565.49-.905.623a.628.628 0 0 1-.198.084.275.275 0 0 1-.254-.028c-.085-.056-.114-.141-.114-.254.057-.227.085-.472.085-.736a4.286 4.286 0 0 0-8.572 0c0 .302.03.594.086.877.028.057 0 .142-.057.198-.028.057-.113.085-.198.085Zm-10.89-.51h10.607a3.634 3.634 0 0 1-.056-.65c0-2.63 2.15-4.78 4.78-4.78 2.66 0 4.81 2.15 4.81 4.78 0 .132-.01.255-.029.368.189-.094.368-.226.538-.396.424-.425.65-1.018.65-1.613v-2.12a2.42 2.42 0 0 0-.396-1.301l-.31-.453a423.03 423.03 0 0 1-.17-.283 7.127 7.127 0 0 0-5.064-2.093c-.113 0-9.137-.198-13.296 3.819-1.33 1.3-2.008 2.885-2.065 4.724Z" fill="#00082B"/><path d="m17.454 29.294-.538 1.782H15.7c.076-.282.113-.584.113-.905 0-2.49-2.037-4.526-4.554-4.526a4.54 4.54 0 0 0-4.526 4.526c0 .32.028.623.085.905h-5.12a1.28 1.28 0 0 1-1.302-1.3v-1.274c0-.877.311-1.726.934-2.376l.056-.085c.302-.32.556-.67.764-1.047 5.064-2.291 13.409-5.063 15.304.453.424 1.245.396 2.602 0 3.847Z" fill="#CBD7E3"/><path fill-rule="evenodd" clip-rule="evenodd" d="M16.917 31.331H15.7c-.056 0-.141-.028-.17-.085-.056-.056-.084-.141-.056-.198a4.46 4.46 0 0 0 .085-.877c0-2.348-1.924-4.271-4.3-4.271a4.286 4.286 0 0 0-4.272 4.271c0 .302.029.594.085.877.029.057 0 .142-.056.198-.029.057-.113.085-.198.085h-5.12a1.57 1.57 0 0 1-1.556-1.556v-1.273c0-.933.34-1.839.99-2.546l.085-.085a4.53 4.53 0 0 0 .707-.99.32.32 0 0 1 .113-.113c4.073-1.839 9.646-3.734 13.07-2.263 1.244.537 2.12 1.5 2.573 2.857.453 1.273.453 2.66.029 4.017l-.566 1.782c-.028.113-.141.17-.226.17Zm-.905-.51h.707l.509-1.583c.368-1.273.368-2.546 0-3.706-.425-1.217-1.216-2.094-2.32-2.575-3.225-1.386-8.6.425-12.588 2.235a5.805 5.805 0 0 1-.736 1.047l-.085.057c-.565.594-.848 1.386-.848 2.206v1.273c0 .594.452 1.047 1.046 1.047h4.838a3.633 3.633 0 0 1-.057-.65 4.793 4.793 0 0 1 4.781-4.782c2.66 0 4.78 2.15 4.78 4.781 0 .226-.009.443-.027.65Z" fill="#00082B"/><path d="M23.848 16.281v1.528a1.34 1.34 0 0 1-1.358 1.358h-5.177a1.34 1.34 0 0 1-1.358-1.358v-1.528a1.34 1.34 0 0 1 1.358-1.357h5.177a1.34 1.34 0 0 1 1.358 1.357Z" fill="#2196FF"/><path fill-rule="evenodd" clip-rule="evenodd" d="M22.49 19.422h-5.177a1.63 1.63 0 0 1-1.613-1.613v-1.528c0-.905.736-1.612 1.613-1.612h5.176c.906 0 1.613.707 1.613 1.612v1.528c0 .877-.707 1.613-1.613 1.613Zm-5.177-4.244c-.623 0-1.104.481-1.104 1.103v1.528c0 .622.481 1.103 1.104 1.103h5.176c.623 0 1.104-.48 1.104-1.103v-1.528c0-.622-.481-1.103-1.104-1.103h-5.176Z" fill="#00082B"/><path d="M34.144 17.78c0 .736-.622 1.387-1.414 1.387h-5.828a1.388 1.388 0 0 1-1.386-1.386V16.31c0-.764.623-1.386 1.386-1.386h3.932c1.104 0 2.094.509 2.716 1.357.226.34.424.708.538 1.104.037.132.056.264.056.396Z" fill="#2196FF"/><path fill-rule="evenodd" clip-rule="evenodd" d="M32.73 19.422h-5.827a1.642 1.642 0 0 1-1.641-1.641V16.31c0-.905.735-1.641 1.64-1.641h3.933c1.16 0 2.234.537 2.913 1.471.264.358.462.754.594 1.188.038.132.057.283.057.453 0 .905-.736 1.64-1.67 1.64Zm-5.827-4.244c-.623 0-1.132.51-1.132 1.132v1.47c0 .623.51 1.132 1.131 1.132h5.828c.65 0 1.16-.509 1.16-1.131 0-.113-.01-.217-.029-.311a3.592 3.592 0 0 0-.509-1.047 3.135 3.135 0 0 0-2.517-1.245h-3.933Z" fill="#00082B"/><path d="M35.898 29.605H18.614a.253.253 0 0 1-.255-.254c0-.142.113-.255.255-.255h17.284c.142 0 .255.113.255.255a.254.254 0 0 1-.255.254Zm17.511-8.317-44.328-.48a.254.254 0 0 1-.255-.255c0-.113.113-.226.255-.226l44.328.452c.141 0 .255.113.255.255a.253.253 0 0 1-.255.255ZM25.6 28.332a.254.254 0 0 1-.254-.254l.029-5.517c0-.113.113-.226.254-.226.141 0 .255.113.255.255l-.029 5.488a.254.254 0 0 1-.254.254Z" fill="#00082B"/><path d="M23.847 16.281v1.5c-.81.037-1.65.056-2.518.056a47.44 47.44 0 0 1-5.374-.283v-1.273a1.34 1.34 0 0 1 1.357-1.357h5.177a1.34 1.34 0 0 1 1.358 1.357Zm9.703 0c-2.433.68-5.148 1.16-8.034 1.387V16.31c0-.764.623-1.386 1.386-1.386h3.932c1.104 0 2.094.509 2.716 1.357Z" fill="#fff" style="mix-blend-mode:overlay" opacity=".3"/><path d="M58.36 23.552c-8.742 2.687-19.916 4.271-32.108 4.271-3.932 0-7.78-.17-11.457-.48a127.518 127.518 0 0 1-6.337-.708c-2.3-.32-4.507-.698-6.62-1.132a6.97 6.97 0 0 0 .312-.509c.15-.282.273-.584.368-.905l.65-2.093c.198-.594.51-1.16.962-1.641.481-.566 1.132-.962 1.839-1.216l.17-.057a4.424 4.424 0 0 0 1.81-1.16l1.273-1.386a9.376 9.376 0 0 1 3.536-2.405 9.39 9.39 0 0 1 2.631-.622l15.898-.141c.396.019.792.085 1.188.198a5.51 5.51 0 0 1 1.641.792c.51.368.934.82 1.273 1.33l1.5 2.263a3.361 3.361 0 0 0 2.715 1.499l16.775.367c.707 0 1.273.51 1.415 1.189l.254 1.527c.076.359.18.698.311 1.019Z" fill="#fff" style="mix-blend-mode:overlay" opacity=".3"/></svg>