<svg width="60" height="35" fill="none" xmlns="http://www.w3.org/2000/svg"><path fill-rule="evenodd" clip-rule="evenodd" d="M58.03 30.552h-2.463a.374.374 0 0 1-.383-.383 4.07 4.07 0 0 0-4.078-4.078 4.088 4.088 0 0 0-4.078 4.078c0 .219-.164.383-.355.383H15.53a.374.374 0 0 1-.383-.383 4.07 4.07 0 0 0-4.078-4.078 4.088 4.088 0 0 0-4.077 4.078c0 .219-.164.383-.356.383h-.191l-4.105-.794c-.903-.191-1.642-.875-1.861-1.778L.04 26.31c-.027-.164-.11-.41.082-.63.164-.246.465-.273.684-.273h.055v-.027l-.11-1.916a2.705 2.705 0 0 1-.027-.383v-.356c-.027-.657.028-1.34.11-2.025l.273-2.134a20.54 20.54 0 0 1 .684-3.065 19.046 19.046 0 0 1 1.998-4.434c.22-.328.493-.602.849-.766A2.194 2.194 0 0 1 5.733 10h34.481c1.314 0 2.573.41 3.667 1.177l5.966 4.597a5.483 5.483 0 0 0 1.916.958l.684.192c.821.218 1.56.574 2.19 1.094l3.803 3.065c.091.073.173.155.246.247.41.437.63 1.012.63 1.614l-.028 2.573c0 .036.019.063.055.082.41.219.657.656.657 1.122v.848c0 .301-.11.575-.274.821l-.574.684a.82.82 0 0 0-.165.493.95.95 0 0 1-.273.684.89.89 0 0 1-.684.3Zm-2.108-.739h2.108c.073 0 .127-.018.164-.055.027-.027.082-.082.055-.164 0-.356.109-.684.328-.958l.575-.711a.63.63 0 0 0 .11-.356v-.848c0-.22-.11-.41-.275-.493-.273-.137-.41-.41-.41-.712v-2.572c0-.41-.137-.82-.438-1.122a.696.696 0 0 0-.164-.164l-3.777-3.065c-.574-.465-1.231-.766-1.915-.958l-.712-.191a6.106 6.106 0 0 1-2.189-1.095l-5.938-4.57a5.475 5.475 0 0 0-3.23-1.04H5.734c-.274 0-.52.055-.767.191a1.66 1.66 0 0 0-.547.52 18.79 18.79 0 0 0-1.943 4.27c-.274.957-.493 1.97-.63 2.955l-.273 2.107a15.826 15.826 0 0 0-.137 1.943c0 .11.009.22.027.329v.355l.137 1.916v.465c0 .192-.164.356-.383.356H.753l.027.055.41 1.614a1.617 1.617 0 0 0 1.287 1.204l3.803.74a4.817 4.817 0 0 1 4.79-4.38 4.812 4.812 0 0 1 4.816 4.434h30.431a4.805 4.805 0 0 1 4.789-4.433 4.812 4.812 0 0 1 4.816 4.433Z" fill="#00082B"/><path d="M15.53 30.169a4.462 4.462 0 0 1-4.46 4.46c-2.436 0-4.434-1.997-4.434-4.46a4.45 4.45 0 0 1 4.433-4.434c2.463 0 4.461 1.998 4.461 4.434Z" fill="#353D4A"/><path fill-rule="evenodd" clip-rule="evenodd" d="M11.07 34.985c-2.627 0-4.79-2.162-4.79-4.816a4.794 4.794 0 0 1 4.79-4.79c2.654 0 4.816 2.135 4.816 4.79a4.823 4.823 0 0 1-4.816 4.816Zm0-8.894a4.088 4.088 0 0 0-4.078 4.078 4.07 4.07 0 0 0 4.078 4.077c2.271 0 4.105-1.806 4.105-4.077 0-2.244-1.834-4.078-4.105-4.078Z" fill="#00082B"/><path fill-rule="evenodd" clip-rule="evenodd" d="M11.07 32.769c-1.396 0-2.573-1.177-2.573-2.6a2.587 2.587 0 0 1 2.572-2.573c1.423 0 2.6 1.15 2.6 2.573s-1.177 2.6-2.6 2.6Zm0-4.68c-1.15 0-2.08.93-2.08 2.08 0 1.177.93 2.107 2.08 2.107a2.09 2.09 0 0 0 2.107-2.107c0-1.15-.93-2.08-2.107-2.08Z" fill="#00082B"/><path d="M13.423 30.169a2.353 2.353 0 0 1-2.353 2.353c-1.286 0-2.326-1.067-2.326-2.353a2.324 2.324 0 0 1 2.326-2.326 2.33 2.33 0 0 1 2.353 2.326Z" fill="#CBD7E3"/><path fill-rule="evenodd" clip-rule="evenodd" d="M11.07 32.769c-1.396 0-2.573-1.177-2.573-2.6a2.587 2.587 0 0 1 2.572-2.573c1.423 0 2.6 1.15 2.6 2.573s-1.177 2.6-2.6 2.6Zm0-4.68c-1.15 0-2.08.93-2.08 2.08 0 1.177.93 2.107 2.08 2.107a2.09 2.09 0 0 0 2.107-2.107c0-1.15-.93-2.08-2.107-2.08Z" fill="#00082B"/><path d="M55.567 30.169a4.461 4.461 0 0 1-4.46 4.46c-2.436 0-4.434-1.997-4.434-4.46a4.45 4.45 0 0 1 4.433-4.434c2.463 0 4.46 1.998 4.46 4.434Z" fill="#353D4A"/><path fill-rule="evenodd" clip-rule="evenodd" d="M51.106 34.985c-2.627 0-4.79-2.162-4.79-4.816a4.794 4.794 0 0 1 4.79-4.79c2.654 0 4.816 2.135 4.816 4.79a4.824 4.824 0 0 1-4.816 4.816Zm0-8.894a4.088 4.088 0 0 0-4.078 4.078 4.07 4.07 0 0 0 4.078 4.077c2.271 0 4.105-1.806 4.105-4.077 0-2.244-1.834-4.078-4.105-4.078Z" fill="#00082B"/><path fill-rule="evenodd" clip-rule="evenodd" d="M51.106 32.769c-1.396 0-2.572-1.177-2.572-2.6a2.587 2.587 0 0 1 2.572-2.573c1.423 0 2.6 1.15 2.6 2.573s-1.177 2.6-2.6 2.6Zm0-4.68c-1.15 0-2.08.93-2.08 2.08 0 1.177.93 2.107 2.08 2.107a2.09 2.09 0 0 0 2.107-2.107c0-1.15-.93-2.08-2.107-2.08Z" fill="#00082B"/><path d="M53.46 30.169a2.371 2.371 0 0 1-2.354 2.353c-1.286 0-2.326-1.067-2.326-2.353a2.324 2.324 0 0 1 2.326-2.326c1.287 0 2.354 1.04 2.354 2.326Z" fill="#CBD7E3"/><path fill-rule="evenodd" clip-rule="evenodd" d="M51.106 32.769c-1.396 0-2.572-1.177-2.572-2.6a2.587 2.587 0 0 1 2.572-2.573c1.423 0 2.6 1.15 2.6 2.573s-1.177 2.6-2.6 2.6Zm0-4.68c-1.15 0-2.08.93-2.08 2.08 0 1.177.93 2.107 2.08 2.107a2.09 2.09 0 0 0 2.107-2.107c0-1.15-.93-2.08-2.107-2.08Z" fill="#00082B"/><path d="M2.121 22.725v2.71h-.903c.018-.019.027-.046.027-.083l-.137-1.915a9.275 9.275 0 0 1-.027-.712h1.04Z" fill="#FF4D4D"/><path fill-rule="evenodd" clip-rule="evenodd" d="M2.12 25.68h-.902c-.055 0-.137-.027-.165-.081-.054-.082-.082-.137-.054-.22l-.137-1.942a10.031 10.031 0 0 1-.028-.712c0-.073.028-.128.083-.164a.184.184 0 0 1 .164-.082h1.04c.137 0 .246.11.246.246v2.71c0 .136-.11.246-.246.246Zm-.656-.492h.41v-2.216h-.547c0 .145.01.291.027.437l.11 1.78Z" fill="#00082B"/><path d="M58.96 22.944v.739h-1.368v-2.518h.356l.273.22c.466.382.74.957.74 1.56Z" fill="#FFCF0D"/><path fill-rule="evenodd" clip-rule="evenodd" d="M58.96 23.93h-1.368a.245.245 0 0 1-.247-.247v-2.518c0-.136.11-.246.247-.246h.355c.073 0 .128.018.164.055l.247.219c.547.438.848 1.067.848 1.751l-.027.739c0 .137-.11.246-.22.246Zm-1.15-.493h.904v-.493a1.84 1.84 0 0 0-.657-1.396l-.192-.136h-.055v2.025Z" fill="#00082B"/><path d="M17.555 21.056H2.504v-1.067h15.051v1.067Z" fill="#353D4A"/><path fill-rule="evenodd" clip-rule="evenodd" d="M17.555 21.302H2.505a.245.245 0 0 1-.247-.246v-1.067c0-.137.11-.247.246-.247h15.051c.137 0 .247.11.247.247v1.067c0 .137-.11.246-.247.246ZM2.75 20.81h14.56v-.575H2.75v.575Z" fill="#00082B"/><path d="m17.282 12.49-.356 2.244-.383 2.49c-.055.384-.356.63-.739.63H5.077a.742.742 0 0 1-.712-.985l1.396-3.996.246-.738c.11-.274.383-.493.684-.493h9.852c.465 0 .821.41.739.848Z" fill="#2196FF"/><path fill-rule="evenodd" clip-rule="evenodd" d="M15.804 18.1H5.077c-.329 0-.63-.137-.794-.41a.913.913 0 0 1-.137-.876l1.615-4.734a.994.994 0 0 1 .93-.684h9.852c.3 0 .575.136.766.355.164.22.246.493.22.794l-.74 4.734a1 1 0 0 1-.985.821Zm-9.113-6.212a.533.533 0 0 0-.465.329L4.61 16.95a.552.552 0 0 0 .055.465c.11.137.246.192.41.192h10.728c.246 0 .465-.164.493-.41l.738-4.735a.406.406 0 0 0-.109-.383.479.479 0 0 0-.383-.192H6.69Z" fill="#00082B"/><path d="M33.756 17.225c-.055.383-.41.63-.821.63H19.307c-.41 0-.766-.33-.766-.74l.355-2.19.383-2.517c0-.41.329-.766.767-.766h12.889c.52 0 .903.41.821.848v4.735Z" fill="#2196FF"/><path fill-rule="evenodd" clip-rule="evenodd" d="M32.935 18.1H19.307c-.547 0-1.013-.438-1.013-.985 0-.018.01-.036.028-.055l.711-4.68a1.023 1.023 0 0 1 1.013-.984h12.89c.328 0 .656.164.848.41a.781.781 0 0 1 .218.712v4.761c-.082.466-.52.821-1.067.821Zm-14.148-.985a.534.534 0 0 0 .52.493h13.628c.301 0 .548-.165.602-.383l-.027-4.735v-.027a.415.415 0 0 0-.082-.356.641.641 0 0 0-.493-.219h-12.89a.52.52 0 0 0-.52.52v.028l-.738 4.68Z" fill="#00082B"/><path d="M47.11 17.854H37.067c-.41 0-.766-.328-.766-.739l-.22-2.052-.3-2.655c0-.41.328-.766.766-.766h3.065c1.204 0 3.23 1.286 4.953 2.518a50.641 50.641 0 0 1 3.038 2.435.724.724 0 0 1-.493 1.26Z" fill="#2196FF"/><path fill-rule="evenodd" clip-rule="evenodd" d="M47.11 18.1H37.068c-.547 0-.985-.438-1.012-.985l-.52-4.68v-.027c0-.547.465-1.012 1.012-1.012h3.065c1.04 0 2.764.875 5.09 2.572a45.08 45.08 0 0 1 3.065 2.436c.301.3.383.711.247 1.094a.948.948 0 0 1-.904.602Zm-11.083-5.72.52 4.708v.027c0 .274.22.493.52.493h10.044c.246 0 .383-.137.437-.301.082-.137.082-.356-.11-.52 0-.028-1.367-1.232-3.037-2.436-2.189-1.614-3.858-2.463-4.789-2.463h-3.065c-.3 0-.52.22-.52.493Z" fill="#00082B"/><path d="M57.592 23.93h-.028l-55.443-.96a.245.245 0 0 1-.246-.246c0-.137.109-.246.246-.246l55.47.958c.137 0 .247.11.22.246 0 .137-.11.246-.22.246Zm-12.288 4.624-27.75-.164a.245.245 0 0 1-.245-.246c0-.137.11-.247.246-.247l27.749.165c.137 0 .246.109.246.246s-.11.246-.246.246Z" fill="#00082B"/><path d="m17.282 12.49-.356 2.244c-4.077-.41-7.827-1.04-11.165-1.86l.246-.74c.11-.273.383-.492.684-.492h9.852c.465 0 .821.41.739.848Zm16.474 0v2.71c-1.715.073-3.475.109-5.281.109-3.312 0-6.514-.137-9.579-.383l.384-2.518c0-.41.328-.766.766-.766h12.89c.52 0 .902.41.82.848Zm10.809 1.67c-2.682.41-5.528.711-8.483.903l-.301-2.655c0-.41.328-.766.766-.766h3.065c1.204 0 3.23 1.286 4.953 2.518Z" fill="#fff" style="mix-blend-mode:overlay" opacity=".3"/><path d="M58.413 21.576c-8.484 2.654-19.457 4.269-31.416 4.269-9.524 0-18.39-1.013-25.916-2.764v-.356c0-.657.037-1.323.11-1.998l.3-2.107c.128-1.021.347-2.025.657-3.01a18.327 18.327 0 0 1 1.97-4.351c.165-.274.411-.493.685-.657.273-.137.602-.219.93-.219h34.481a6 6 0 0 1 3.449 1.095l5.938 4.597c.63.466 1.314.821 2.053 1.013l.711.191c.739.192 1.45.548 2.052 1.013l3.53 2.873.274.22a.953.953 0 0 1 .192.19Z" fill="#fff" style="mix-blend-mode:overlay" opacity=".3"/></svg>